<svg width="28" height="28" viewBox="0 0 28 28" fill="none" xmlns="http://www.w3.org/2000/svg">
<path d="M2.75775 15.1175C2.31507 12.0409 2.09373 10.5026 2.72427 9.18736C3.35481 7.87212 4.69689 7.07265 7.38107 5.4737L8.99671 4.51127C11.4342 3.05926 12.653 2.33325 13.9997 2.33325C15.3464 2.33325 16.5652 3.05926 19.0026 4.51127L20.6183 5.4737C23.3024 7.07265 24.6446 7.87212 25.275 9.18736C25.9056 10.5026 25.6843 12.0409 25.2416 15.1175L24.9164 17.3777C24.3477 21.3297 24.0633 23.3057 22.6925 24.4862C21.3216 25.6666 19.311 25.6666 15.2901 25.6666H12.7092C8.68827 25.6666 6.67778 25.6666 5.30687 24.4862C3.93596 23.3057 3.65163 21.3297 3.08298 17.3777L2.75775 15.1175Z" stroke="#060B1B" stroke-width="2.5"/>
<path d="M17.5 21H10.5" stroke="#060B1B" stroke-width="2.5" stroke-linecap="round"/>
</svg>
