<svg width="28" height="28" viewBox="0 0 28 28" fill="none" xmlns="http://www.w3.org/2000/svg">
<g clip-path="url(#clip0_2927_1010)">
<path fill-rule="evenodd" clip-rule="evenodd" d="M4.94021 -0.000244141V7.6948L-0.000976562 11.9772V27.9998H27.999V11.9772L23.0595 7.69481V-0.000244141H4.94021ZM6.58725 17.5574V1.64681H21.4108V17.5574L18.6503 19.7644H9.34773L6.58725 17.5574ZM23.0595 9.87388L26.3536 12.7282V13.6045L23.0595 16.2398V9.87385V9.87388ZM1.64608 13.6044V12.7282L4.94021 9.87387V16.2398L1.64608 13.6045V13.6044ZM26.3536 15.7143V24.8044L22.8816 20.4068L21.5887 21.428L25.4774 26.3527H2.52069L6.41104 21.428L5.11809 20.4068L1.64609 24.8044V15.7143L8.76962 21.4132H19.2301L26.3536 15.7143L26.3536 15.7143ZM14.8231 4.11755V8.2352H18.9407V9.88225H14.823V13.9999H13.176V9.88227H9.05834V8.23521H13.176V4.11756H14.8231L14.8231 4.11755Z" fill="#7EE3FF"/>
</g>
<defs>
<clipPath id="clip0_2927_1010">
<rect width="28" height="28" fill="white"/>
</clipPath>
</defs>
</svg>
