<svg width="24" height="24" viewBox="0 0 24 24" fill="none" xmlns="http://www.w3.org/2000/svg">
<g clip-path="url(#clip0_1764_14871)">
<path d="M15.5959 3.58785C15.5363 3.40407 15.4059 3.25155 15.2339 3.16384C15.0616 3.07602 14.8617 3.06038 14.6779 3.12012L11.63 4.11057C11.2473 4.23491 11.0378 4.64591 11.1622 5.02854L11.3146 5.49754L3.56169 11.1924L0.503415 12.186C0.319625 12.2458 0.167115 12.3761 0.0793972 12.5482C-0.00832059 12.7203 -0.0240573 12.9203 0.035684 13.1041L1.89388 18.822C1.99394 19.1298 2.27953 19.3256 2.58659 19.3256C2.66129 19.3256 2.73716 19.314 2.81196 19.2897L5.86974 18.2961L7.4408 18.3043C7.75631 19.7941 9.0813 20.9155 10.6635 20.9155C12.2337 20.9155 13.55 19.8109 13.8784 18.3382L15.4897 18.3467L15.642 18.8158C15.7016 18.9996 15.8319 19.1521 16.0041 19.2398C16.1075 19.2925 16.2209 19.3192 16.3349 19.3192C16.4106 19.3192 16.4867 19.3073 16.5599 19.2835L19.6079 18.2932C19.9906 18.1688 20.2001 17.7578 20.0758 17.3752L15.5959 3.58785ZM3.05442 17.6788L1.64666 13.3466L3.43055 12.7669L4.83811 17.0991L3.05442 17.6788ZM10.6634 19.4584C9.89485 19.4584 9.23605 18.9836 8.96221 18.3124L12.358 18.3303C12.0799 18.9923 11.4253 19.4584 10.6634 19.4584ZM6.28628 16.8411L5.52004 14.4828L4.75379 12.1246L11.7886 6.95727L13.946 13.5967L15.0151 16.8872L6.28628 16.8411ZM16.8025 17.6726L16.713 17.3974C16.7129 17.3969 16.7128 17.3964 16.7127 17.3958L14.7878 11.4719L12.7731 5.2711L14.4353 4.73091L18.4647 17.1323L16.8025 17.6726Z" fill="#EEEEEE"/>
<path d="M18.0501 7.12938C18.1562 7.18339 18.2691 7.20893 18.3804 7.20893C18.6456 7.20893 18.9014 7.06361 19.0301 6.81105L20.3377 4.24557C20.5205 3.88712 20.378 3.44834 20.0196 3.26562C19.6611 3.08299 19.2223 3.2253 19.0396 3.58385L17.732 6.14933C17.5492 6.50787 17.6917 6.94666 18.0501 7.12938Z" fill="#EEEEEE"/>
<path d="M23.5257 14.0573L20.9598 12.7503C20.6013 12.5678 20.1626 12.7103 19.98 13.0688C19.7972 13.4274 19.9399 13.8661 20.2984 14.0487L22.8642 15.3557C22.9702 15.4096 23.0831 15.4352 23.1943 15.4352C23.4595 15.4352 23.7154 15.2898 23.8441 15.0372C24.0268 14.6787 23.8842 14.2401 23.5257 14.0573Z" fill="#EEEEEE"/>
<path d="M19.8405 9.831C19.9406 10.1388 20.2262 10.3346 20.5333 10.3346C20.608 10.3346 20.6838 10.323 20.7586 10.2987L23.4968 9.40892C23.8793 9.28458 24.0889 8.87358 23.9644 8.49085C23.8401 8.10812 23.4291 7.89907 23.0464 8.02312L20.3082 8.91292C19.9256 9.03736 19.7162 9.44836 19.8405 9.831Z" fill="#EEEEEE"/>
</g>
<defs>
<clipPath id="clip0_1764_14871">
<rect width="24" height="24" fill="white"/>
</clipPath>
</defs>
</svg>
