<svg width="24" height="24" viewBox="0 0 24 24" fill="none" xmlns="http://www.w3.org/2000/svg">
<path d="M17.6562 7.08673C17.5232 6.88152 17.362 6.74163 17.2119 6.64699C17.2112 6.39226 17.1944 6.03201 17.1338 5.61653C17.1747 5.12079 17.3178 2.39108 15.6476 1.16035C14.6175 0.401204 13.4704 0 12.3305 0C11.404 0 10.5217 0.263297 9.84587 0.74136C9.23726 1.17199 8.90205 1.64039 8.72461 1.97012C8.19977 1.98867 7.11244 2.20267 6.63152 3.5891C6.17652 4.90053 6.5439 5.71074 6.81412 6.08625C6.79644 6.30343 6.79007 6.49437 6.78963 6.64688C6.63954 6.74152 6.47835 6.88141 6.34539 7.08662C6.04454 7.55096 5.99337 8.17363 6.1932 8.93772C6.56685 10.3664 7.43876 10.6809 7.90398 10.744C8.19055 11.3169 8.82036 12.4878 9.4506 13.0761C9.70237 13.3111 10.0297 13.5094 10.4234 13.6658C10.926 13.8651 11.4567 13.9663 12.0008 13.9663C12.5448 13.9663 13.0756 13.8651 13.5781 13.6658C13.9719 13.5094 14.2992 13.3111 14.551 13.0761C15.1812 12.4878 15.811 11.3169 16.0976 10.744C16.5627 10.6809 17.4346 10.3663 17.8084 8.93761C18.0082 8.17374 17.957 7.55096 17.6562 7.08673ZM16.7461 8.65993C16.5183 9.53085 16.1113 9.66085 15.8889 9.66085C15.873 9.66085 15.8612 9.65997 15.8542 9.65942C15.6001 9.59519 15.3651 9.72871 15.254 9.96774C15.0366 10.435 14.3517 11.7603 13.8018 12.2736C13.6506 12.4147 13.439 12.5399 13.1731 12.6454C12.4269 12.9415 11.5745 12.9415 10.8285 12.6454C10.5625 12.5399 10.3509 12.4147 10.1998 12.2736C9.64988 11.7603 8.96496 10.435 8.74756 9.96774C8.65511 9.769 8.47734 9.6435 8.27389 9.6435C8.2326 9.6435 8.19022 9.64866 8.14729 9.65953C8.14026 9.66019 8.1284 9.66096 8.1127 9.66096C7.89036 9.66096 7.48334 9.53085 7.25551 8.66015C7.1434 8.2316 7.14439 7.8898 7.25814 7.69787C7.32435 7.58632 7.41834 7.54876 7.44908 7.5391C7.74367 7.50715 7.92111 7.24923 7.89651 6.95201C7.89596 6.94476 7.87675 6.68959 7.90112 6.30123C8.27894 6.13884 8.88261 5.81856 9.39153 5.26891C9.65054 4.98903 9.84006 4.64613 9.975 4.33156C10.3429 4.63196 10.8638 4.98497 11.553 5.28999C12.7335 5.81241 15.0926 6.06088 16.0885 6.14576C16.1297 6.61976 16.1056 6.94322 16.1049 6.95091C16.079 7.24901 16.2568 7.50715 16.5524 7.5391C16.5831 7.54876 16.6771 7.58643 16.7433 7.69787C16.8572 7.88969 16.8582 8.23149 16.7461 8.65993ZM20.2666 15.9922L15.4668 14.0723C15.3287 14.0172 15.1742 14.0204 15.0383 14.0811C14.9025 14.1421 14.7972 14.2555 14.7467 14.3954L13.5402 17.7313L13.3012 17.0444L13.6814 16.1151C13.7505 15.9458 13.731 15.7531 13.629 15.6012C13.527 15.4493 13.3561 15.3582 13.1732 15.3582H10.8285C10.6455 15.3582 10.4746 15.4493 10.3727 15.6012C10.2707 15.7531 10.2511 15.9458 10.3203 16.1151L10.7004 17.0444L10.4615 17.7313L9.25494 14.3954C9.20443 14.2555 9.09913 14.142 8.96342 14.0811C8.82749 14.0203 8.6729 14.0171 8.53488 14.0723L3.73492 15.9922C2.26099 16.5817 1.30859 17.9885 1.30859 19.5761V23.451C1.30859 23.7543 1.55443 24 1.85759 24H22.144C22.4471 24 22.693 23.7543 22.693 23.451V19.5761C22.693 17.9885 21.7406 16.5818 20.2666 15.9922ZM20.0999 21.1602C20.0999 21.4634 19.854 21.7092 19.5509 21.7092H15.8649C15.5618 21.7092 15.3159 21.4634 15.3159 21.1602V19.4484C15.3159 19.1451 15.5618 18.8994 15.8649 18.8994H19.5509C19.854 18.8994 20.0999 19.1451 20.0999 19.4484V21.1602Z" fill="#EEEEEE"/>
</svg>
