<svg width="242" height="328" viewBox="0 0 242 328" fill="none" xmlns="http://www.w3.org/2000/svg">
<path d="M104.544 205.255C104.544 205.255 106.716 204.987 108.065 205.255C110.578 205.753 112.593 207.646 113.599 208.776M113.599 208.776C115.593 211.016 116.523 212.527 117.624 215.316C118.656 217.933 119.177 219.547 119.133 222.359C119.092 224.98 118.63 226.479 117.624 228.899C116.744 231.015 114.605 233.93 114.605 233.93M113.599 208.776C113.534 209.169 113.431 209.782 113.431 209.782M64.298 238.961L76.8748 239.967L90.4577 238.961L92.124 238.355M64.298 238.961L60.5249 237.703M64.298 238.961C64.298 238.961 65.46 242.281 65.8072 244.494C66.2943 247.6 66.3102 249.4 66.3102 252.544L65.8072 258.077M42.1628 208.776C42.5557 209.759 43.1689 211.292 43.1689 211.292C43.1689 211.292 44.2292 215.637 45.1812 218.335C46.323 221.57 47.0979 223.351 48.7027 226.384C50.1054 229.034 50.7299 230.687 52.7273 232.924C54.1182 234.482 56.7519 236.445 56.7519 236.445L60.5249 237.703M42.1628 208.776C43.3415 207.99 43.9129 207.395 45.1812 206.764C47.5278 205.596 51.7211 205.255 51.7211 205.255M42.1628 208.776C40.6725 210.291 39.9695 211.346 39.1443 213.304C37.9898 216.044 37.6719 217.877 37.6351 220.85C37.6058 223.216 37.966 224.62 38.6412 226.887C39.4203 229.503 42.1628 232.924 42.1628 232.924M42.1628 232.924H44.175M42.1628 232.924C42.1628 232.924 39.1519 236.966 38.1382 239.967C37.3713 242.237 37.0406 246.004 37.0406 246.004V250.531M44.175 232.924L43.1689 229.402L42.6658 225.881V221.856L43.1689 211.795M44.175 232.924C44.175 232.924 46.0336 235.437 47.6966 236.445C49.4504 237.509 50.7028 237.625 52.7273 237.954C55.7344 238.444 60.5249 237.703 60.5249 237.703M65.8072 258.077C65.8072 258.077 67.3225 259.599 67.8195 260.593C68.8256 262.605 68.8514 264.669 69.3287 267.636C69.8628 270.956 70.0101 272.841 70.3348 276.188C71.0378 283.433 71.3145 294.802 71.3145 294.802M65.8072 258.077L61.5311 256.568L56.7519 255.059M69.3287 316.434C71.5242 315.553 72.7238 314.486 73.8563 312.409C74.9079 310.481 74.8625 306.875 74.8625 306.875C74.8625 306.875 75.2319 301.68 73.8563 298.826C73.1225 297.304 71.341 295.305 71.341 295.305L71.3145 294.802M69.3287 316.434C68.5428 315.648 67.9832 315.311 67.3164 314.421C65.8254 312.433 65.8132 310.817 65.3041 308.385C65.0195 307.025 64.9164 306.247 64.801 304.863C64.6379 302.905 64.801 301.797 64.801 299.832M69.3287 316.434C67.3641 318.005 66.2626 318.887 64.298 320.458C62.3333 322.03 60.6718 322.411 58.2611 323.477C55.7584 324.583 54.3827 325.357 51.7211 325.992C48.0854 326.86 45.9007 326.476 42.1628 326.495C38.0324 326.516 35.6101 326.974 31.5982 325.992C28.9403 325.341 27.1605 325.228 25.0583 323.477C23.8794 322.495 23.1527 321.866 22.5429 320.458C21.6841 318.475 22.0398 314.421 22.0398 314.421L23.2346 309.391M64.801 299.832C66.1763 299.439 67.1048 299.576 68.3225 298.826C69.9899 297.799 71.3145 294.802 71.3145 294.802M64.801 299.832C64.186 300.799 63.4279 301.254 62.2857 301.342C61.478 301.404 61.0373 301.108 60.2734 300.839C58.2693 300.132 55.7457 297.82 55.7457 297.82C55.7457 297.82 52.1678 295.995 49.7089 295.305C46.8465 294.501 45.1302 294.481 42.1628 294.299C39.6135 294.142 38.1435 293.887 35.6228 294.299C33.5985 294.629 32.3199 294.702 30.5921 295.808C28.8328 296.933 28.0246 297.975 27.0706 299.832C27.0282 299.915 26.9643 300.045 26.9643 300.045M23.2346 309.391C23.2346 309.391 23.3443 307.844 23.5491 306.875C24.1658 303.957 26.9643 300.045 26.9643 300.045M23.2346 309.391C22.6687 308.72 21.7571 306.739 21.5368 304.863C21.3292 303.096 21.8722 301.006 22.0398 300.335C22.0398 300.335 22.923 297.094 24.0521 295.305C24.8709 294.007 26.5675 292.286 26.5675 292.286M26.5675 292.286L26.9643 300.045M26.5675 292.286L27.5736 280.213C27.5736 280.213 28.4009 270.822 30.089 265.12C31.3633 260.816 34.1136 255.059 34.1136 255.059M34.1136 255.059C34.1136 255.059 33.0428 258.821 33.1074 261.599C33.163 263.988 33.3683 265.365 34.1136 267.636C35.1014 270.646 35.6883 272.67 38.1382 274.679C40.1133 276.298 41.6361 276.917 44.175 277.194C47.6358 277.572 49.9291 276.75 52.7273 274.679C55.7067 272.473 56.9254 270.242 57.758 266.63C58.3317 264.141 57.758 260.09 57.758 260.09L56.7519 255.059M34.1136 255.059L37.0406 250.531M56.7519 255.059C56.7519 255.059 55.7255 252.047 54.2365 250.531C52.4416 248.704 51.1968 247.594 48.7027 247.01C46.9811 246.607 45.9275 246.774 44.175 247.01C41.7121 247.341 38.6412 249.022 38.6412 249.022L37.0406 250.531M114.605 233.93L112.09 231.918L111.587 231.415M114.605 233.93L117.121 238.961C117.121 238.961 118.625 242.252 119.133 244.494C119.742 247.184 119.636 251.537 119.636 251.537M111.587 231.415C111.587 231.415 112.922 229.36 113.431 227.893C113.827 226.752 113.926 226.105 114.102 224.875C114.241 223.902 114.507 223.047 114.605 221.856C114.702 220.681 114.605 218.838 114.605 218.838L113.431 209.782M111.587 231.415C111.587 231.415 110.623 233.48 109.574 234.433C108.727 235.204 107.059 235.942 107.059 235.942L103.538 237.451C103.538 237.451 102.628 237.791 102.028 237.954C98.9236 238.801 93.7903 237.749 93.7903 237.749M113.431 209.782L112.09 214.813L107.562 226.384C107.562 226.384 105.009 232.582 101.525 234.936C98.8623 236.736 93.7903 237.749 93.7903 237.749M93.7903 237.749L92.124 238.355M119.636 251.537L122.654 255.562L123.45 257.451M119.636 251.537C119.636 251.537 117.807 248.974 116.114 248.016C113.866 246.743 112.156 246.391 109.574 246.507C107.573 246.596 106.321 247.091 104.544 248.016C103.183 248.724 102.534 249.375 101.525 250.531C100.196 252.056 99.01 255.059 99.01 255.059M91.4639 300.839V307.882C91.2962 309.055 90.7596 311.705 89.9547 312.912C89.1497 314.12 87.607 315.428 86.9362 315.931L90.4577 318.949L94.4823 321.464C94.4823 321.464 97.4507 323.224 99.513 323.98C102.335 325.014 103.577 325.598 106.556 325.992C109.29 326.354 113.599 326.495 113.599 326.495H119.636C119.636 326.495 124.834 325.824 125.673 325.489C126.511 325.154 128.591 324.785 130.2 323.98C131.81 323.175 132.548 321.632 132.716 320.961L133.219 315.931V311.403C133.219 311.403 131.952 305.638 130.2 302.348C129.662 301.337 128.846 300.464 128.691 299.329C128.638 298.94 128.691 298.826 128.691 298.826M91.4639 300.839C91.4639 300.839 93.6307 301.076 94.9854 300.839C96.8914 300.505 99.513 298.826 99.513 298.826C99.513 298.826 103.037 296.603 105.55 295.808C108.013 295.028 109.513 294.99 112.09 294.802C114.441 294.63 118.127 294.802 118.127 294.802C118.127 294.802 120.93 294.409 122.654 294.802C125.417 295.431 128.691 298.826 128.691 298.826M91.4639 300.839C91.4639 300.839 88.3886 300.105 86.9362 298.826C85.545 297.602 84.4209 294.802 84.4209 294.802M128.691 298.826V297.82V291.783M84.4209 294.802C84.4209 294.802 82.9731 297.612 82.4086 299.832C81.9245 301.736 81.4024 303.354 81.4024 304.863C81.4024 307.06 81.5995 308.355 82.4086 310.397C83.4941 313.137 87.0266 316.021 87.0266 316.021M84.4209 294.802V289.268V283.231L85.427 274.176L86.9362 265.623L88.4454 260.09L89.9547 258.077M133.219 310.397C133.219 310.397 134.006 308.036 134.225 306.372C134.457 304.608 134.225 301.845 134.225 301.845C134.225 301.845 133.858 299.012 133.219 297.317C132.754 296.084 132.511 295.345 131.71 294.299C130.776 293.081 128.691 291.783 128.691 291.783M128.691 291.783V288.262C128.691 287.591 128.591 284.137 128.188 275.685C127.786 267.233 126.176 264.617 126.176 264.617L123.45 257.451M89.9547 258.077L99.01 255.059M89.9547 258.077V251.034C89.9547 251.034 89.8572 248.272 89.9547 246.507C90.0527 244.73 89.9635 243.688 90.4577 241.979C90.8905 240.483 92.124 238.355 92.124 238.355M99.01 255.059C99.01 255.059 98.619 257.811 98.5069 259.587C98.3583 261.939 98.216 263.284 98.5069 265.623C98.7304 267.421 98.7242 268.521 99.513 270.151C100.423 272.031 101.543 273.217 103.035 274.679C104.328 275.946 104.91 276.439 106.556 277.194C109.056 278.342 111 278.093 113.599 277.194C115.608 276.5 117.034 275.579 118.63 274.176C120.198 272.797 120.739 272.031 121.648 270.151C122.437 268.521 122.843 267.407 123.157 265.623C123.715 262.466 123.45 257.451 123.45 257.451M39.63 129.29C39.63 129.29 34.5003 128.394 30.5746 129.793M17.0033 151.426C16.7575 156.921 16.5008 159.978 17.0034 165.512C17.5923 171.995 19.0161 180.101 19.0161 180.101M19.0161 180.101C19.0161 180.101 16.8766 184.183 18.01 188.15C19.0161 191.671 20.0223 192.175 20.0223 192.175C21.5318 193.18 25.0533 194.186 29.0776 193.181C33.6477 192.039 34.8629 191.168 35.6175 190.665C36.3721 190.162 37.1267 189.156 37.1267 189.156C37.1267 189.156 38.8481 186.165 38.636 184.125C38.3596 181.468 37.6298 180.101 35.6175 178.592C33.6052 177.082 31.0899 176.579 26.5622 177.585C22.0346 178.592 19.0161 180.101 19.0161 180.101Z" stroke="#7EE3FF" stroke-width="2"/>
<path d="M80.708 5C104.236 5 118.923 13.9988 127.65 24.1953C132.025 29.3067 134.916 34.736 136.667 39.5156C138.425 44.3154 139.01 48.3951 138.84 50.8018C138.252 59.1413 138.898 67.9128 138.989 76.1387C139.081 84.435 138.615 92.2453 135.898 98.9941C133.203 105.69 128.263 111.411 119.244 115.48C110.182 119.569 96.9816 122 77.7881 122C65.8606 122 55.9814 121.999 47.835 121.103C39.6912 120.207 33.4082 118.427 28.6172 114.961C23.8521 111.514 20.4473 106.313 18.2314 98.335C16.0091 90.3333 15 79.5969 15 65.1699C15 46.8257 19.7256 31.8306 30.1963 21.415C40.6678 10.9989 57.0491 5 80.708 5Z" stroke="#7EE3FF" stroke-width="2"/>
<path d="M78.8408 31C100.051 31 113.202 32.8345 121.006 36.4062C124.849 38.1652 127.292 40.3013 128.801 42.7637C130.303 45.2166 130.989 48.1757 130.999 51.79C130.406 57.461 130.823 63.7003 130.773 69.2656C130.722 75.041 130.19 80.3472 127.896 84.9141C123.439 93.786 111.642 101 78.8408 101C68.1981 101 59.4409 100.999 52.2314 100.351C45.0133 99.7017 39.5889 98.4195 35.5205 96.0146C27.6423 91.3576 24 81.9186 24 60.8926C24 54.3086 24.8839 49.2769 26.7207 45.3955C28.531 41.5701 31.3269 38.7347 35.4219 36.6172C39.5716 34.4714 45.0829 33.0501 52.293 32.1787C59.4911 31.3088 68.2544 31 78.8408 31Z" stroke="#7EE3FF" stroke-width="4"/>
<path d="M78.3711 2.5C90.8534 2.50001 94.9533 2.79895 96.957 3.25879C96.2588 7.85947 96.1409 11.1793 96.0693 13.5205C96.0269 14.9075 96.0021 15.754 95.917 16.3662C95.9072 16.4369 95.8972 16.4978 95.8877 16.5498C95.8364 16.5576 95.7765 16.5659 95.707 16.5732C95.0925 16.6381 94.1658 16.6289 92.665 16.5596C89.7495 16.425 85.1938 16.0977 78.3711 16.0977C73.9547 16.0977 69.6458 16.3876 66.0654 16.5254C62.3494 16.6684 59.5013 16.641 57.5186 16.1621C56.5592 15.9304 55.985 15.6318 55.6475 15.3457C55.3578 15.1 55.1486 14.7888 55.0439 14.2559C54.7907 12.9666 55.1682 10.4736 57.3047 5.96582C57.7756 4.97239 58.2077 4.44015 58.7031 4.0752C59.2203 3.69422 60.0228 3.33671 61.4941 3.06934C64.5756 2.5094 69.5279 2.5 78.3711 2.5Z" fill="#030E21" stroke="#7EE3FF" stroke-width="5"/>
<path d="M96.2436 120.739C96.2436 120.739 98.0522 131.164 75.2461 131.85C62.1704 131.316 61.5605 125.053 58.5126 121.745" stroke="#7EE3FF"/>
<path d="M92.2186 121.746C92.2186 121.746 93.4219 126.744 75.6171 127.28C65.4089 126.863 64.4133 124.328 62.0338 121.746" stroke="#7EE3FF"/>
<path d="M107.542 194.689C107.542 194.689 87.6173 199.745 74.7661 198.704C63.819 197.817 53.2194 195.193 48.6822 192.174" stroke="#7EE3FF" stroke-linecap="round"/>
<path d="M105.529 201.731C105.529 201.731 86.9174 206.497 75.255 205.552C64.3309 204.666 55.7253 202.737 51.198 199.719" stroke="#7EE3FF" stroke-linecap="round"/>
<path d="M104.526 205.255C104.526 205.255 87.0093 212.237 75.3469 211.291C64.4228 210.405 56.7324 207.77 52.2052 204.752" stroke="#7EE3FF"/>
<path d="M50.6152 47.2905C51.2788 47.2906 51.8984 47.3267 52.4766 47.3921C47.6406 48.151 43.9299 52.5734 43.9297 57.9165C43.9297 63.117 47.4453 67.4433 52.0918 68.3706C51.9215 68.3869 51.7478 68.4053 51.5703 68.4194C46.033 68.4194 39.3955 64.4152 39.3955 58.5386C39.3956 52.6621 45.078 47.2907 50.6152 47.2905Z" fill="#7EE3FF"/>
<path d="M102.371 47.2905C101.8 47.2906 101.268 47.3266 100.771 47.3921C104.929 48.1508 108.12 52.5733 108.12 57.9165C108.12 63.117 105.096 67.4432 101.102 68.3706C101.248 68.3869 101.398 68.4053 101.551 68.4194C106.312 68.4192 112.018 64.415 112.018 58.5386C112.018 52.662 107.132 47.2905 102.371 47.2905Z" fill="#7EE3FF"/>
<ellipse cx="53.9845" cy="57.8541" rx="3.52156" ry="4.52772" fill="#7EE3FF"/>
<ellipse cx="3.52156" cy="4.52772" rx="3.52156" ry="4.52772" transform="matrix(-1 0 0 1 100.771 53.3264)" fill="#7EE3FF"/>
<path d="M93.0437 84.2195C87.8555 90.0664 79.1896 93.1074 70.1453 89.6995C61.8192 86.5621 56.0373 79.9588 54.5769 73.0196C58.0479 78.854 66.2806 85.1181 73.8173 87.21C80.4698 89.0566 87.9384 87.3711 93.0437 84.2195Z" fill="#7EE3FF"/>
<path d="M52.978 121.243C52.978 121.243 44.9286 122.752 41.4071 126.273C37.4559 130.224 37.7996 140.345 37.1141 145.891C36.3413 152.142 36.8957 155.694 37.1144 161.989C37.3556 168.931 38.0347 172.975 40.1327 179.596C41.6994 184.541 44.1572 190.17 47.1757 191.675C50.1941 193.179 64.302 190.992 76.857 191.675C89.4869 192.361 106.538 195.862 108.048 194.185C112.575 189.155 116.031 186.485 118.612 179.596C121.451 172.018 121.076 167.051 120.624 158.97C120.222 151.777 119.769 148.538 119.115 141.363C118.526 134.907 119.384 127.782 116.869 123.758C114.858 120.54 101.777 120.236 101.777 120.236" stroke="#7EE3FF" stroke-width="2"/>
<path d="M27.0539 139.35C27.0539 139.35 29.8931 141.078 31.5815 142.369C33.6816 143.973 35.6061 146.393 35.6061 146.393C35.6061 146.393 32.2153 146.262 29.5692 145.89C27.2347 145.561 23.0293 145.89 23.0293 145.89" stroke="#7EE3FF" stroke-width="2"/>
<path d="M27.5565 138.848C29.2038 135.832 32.0838 132.304 32.0838 130.795C32.0838 129.477 30.3641 129.515 29.0657 129.289C27.0449 128.938 25.7888 129.735 24.0349 130.799C22.372 131.807 21.788 132.348 20.5131 133.817C19.2254 135.301 18.4264 136.611 17.4947 138.341C15.8676 141.362 15.2513 143.47 15.4824 146.893C15.6624 149.559 17.4947 153.433 17.4947 153.433C17.4947 153.433 19.4587 151.318 20.5131 149.912C22.0227 147.9 22.023 147.4 23.5319 145.388C25.3765 142.927 26.0824 141.547 27.5565 138.848Z" stroke="#7EE3FF" stroke-width="2"/>
<line y1="-0.5" x2="11.4718" y2="-0.5" transform="matrix(-0.263118 0.964764 -0.964764 -0.263117 107.043 194.186)" stroke="#7EE3FF"/>
<line x1="49.1727" y1="192.06" x2="52.1912" y2="205.14" stroke="#7EE3FF"/>
<path d="M37.6272 183.555C37.5905 184.107 38.0074 184.583 38.5585 184.62C39.1095 184.657 39.586 184.24 39.6228 183.689L38.625 183.622L37.6272 183.555ZM38.625 183.622L39.6228 183.689L40.1259 176.142L39.1281 176.076L38.1303 176.009L37.6272 183.555L38.625 183.622Z" fill="#7EE3FF"/>
<path d="M13.7379 169.035C14.3274 175.539 13.9069 181.779 18.2658 186.643C24.3883 193.473 30.202 193.604 38.8921 190.667C41.3892 189.823 42.642 188.959 44.9291 187.649C48.239 185.752 49.5867 185.109 52.4753 182.618L52.4801 182.614C56.9158 178.788 60.0491 176.085 63.0399 171.047C67.1628 164.102 68.3449 160.193 70.5862 152.433C72.1069 147.168 72.2818 143.262 73.1015 137.844C74.0424 131.625 73.6045 122.248 73.6045 122.248L51.9721 116.211L31.8489 113.193C31.8489 113.193 28.4484 117.499 26.3149 121.745C24.1026 126.148 23.1494 130.265 21.2841 134.825C18.5073 141.615 18.0292 142.298 16.2533 149.415C14.3831 156.91 13.0407 161.341 13.7379 169.035Z" fill="#060B1B" stroke="#7EE3FF" stroke-width="2"/>
<path d="M205.358 97.5C214.65 97.5 223.915 99.2475 230.952 102.718C238.007 106.197 241.358 110.674 241.358 115C241.358 119.326 238.007 123.803 230.952 127.282C223.915 130.752 214.65 132.5 205.358 132.5C196.066 132.5 186.801 130.752 179.765 127.282C172.71 123.803 169.358 119.326 169.358 115C169.358 110.674 172.71 106.197 179.765 102.718C186.801 99.2475 196.066 97.5 205.358 97.5Z" fill="#4FBFDE" stroke="#EFEFEF"/>
<path d="M183.726 106.694L168.858 99.3843V115.691L183.726 123V106.694ZM226.989 105.234L241.858 97.925V114.231L226.989 121.541V105.234ZM226.989 74.3093L241.858 67V83.3063L226.989 90.6157V74.3093Z" fill="#4FBFDE"/>
<path d="M205.358 81.5C214.65 81.5 223.915 83.2475 230.952 86.7178C238.007 90.1971 241.358 94.6739 241.358 99C241.358 103.326 238.007 107.803 230.952 111.282C223.915 114.752 214.65 116.5 205.358 116.5C196.066 116.5 186.801 114.752 179.765 111.282C172.71 107.803 169.358 103.326 169.358 99C169.358 94.6739 172.71 90.1971 179.765 86.7178C186.801 83.2475 196.066 81.5 205.358 81.5Z" fill="#69B4D7" stroke="#EFEFEF"/>
<path d="M183.726 89.3745L168.858 82V98.4517L183.726 105.824V89.3745ZM226.989 89.5504L241.858 82.1759V98.6276L226.989 106V89.5504Z" fill="#69B4D7"/>
<path d="M205.358 65.5C214.65 65.5 223.915 67.2475 230.952 70.7178C238.007 74.1971 241.358 78.6739 241.358 83C241.358 87.3261 238.007 91.8029 230.952 95.2822C223.915 98.7525 214.65 100.5 205.358 100.5C196.066 100.5 186.801 98.7525 179.765 95.2822C172.71 91.8029 169.358 87.3261 169.358 83C169.358 78.6739 172.71 74.1971 179.765 70.7178C186.801 67.2475 196.066 65.5 205.358 65.5Z" fill="#4FBFDE" stroke="#EFEFEF"/>
<path d="M183.858 73.1188L168.858 66V81.8812L183.858 89V73.1188Z" fill="#4FBFDE"/>
<path d="M183.726 59.1577L168.858 51.6081V68.4504L183.726 76V59.1577ZM226.989 57.5496L241.858 50V66.124L226.989 73.6714V57.5496Z" fill="#69B4D7"/>
<path d="M205.358 48.5C214.65 48.5 223.915 50.2475 230.952 53.7178C238.007 57.1971 241.358 61.6739 241.358 66C241.358 70.3261 238.007 74.8029 230.952 78.2822C223.915 81.7525 214.65 83.5 205.358 83.5C196.066 83.5 186.801 81.7525 179.765 78.2822C172.71 74.8029 169.358 70.3261 169.358 66C169.358 61.6739 172.71 57.1971 179.765 53.7178C186.801 50.2475 196.066 48.5 205.358 48.5Z" fill="#69B4D7" stroke="#EFEFEF"/>
<path d="M205.358 33.5C214.65 33.5 223.915 35.2476 230.952 38.7168C238.007 42.196 241.358 46.6726 241.358 50.999C241.358 55.3256 238.007 59.803 230.952 63.2822C223.915 66.7524 214.65 68.5 205.358 68.5C196.066 68.5 186.801 66.7524 179.765 63.2822C172.71 59.803 169.358 55.3256 169.358 50.999C169.358 46.6726 172.71 42.196 179.765 38.7168C186.801 35.2476 196.066 33.5 205.358 33.5Z" fill="#4FBFDE" stroke="#EFEFEF"/>
<path d="M213.858 75.9545C213.858 75.4363 213.653 74.9395 213.29 74.5731C212.927 74.2067 212.434 74.0006 211.92 74H198.732C198.23 74.0168 197.753 74.2299 197.404 74.5944C197.054 74.9589 196.858 75.4463 196.858 75.9534C196.858 76.4606 197.054 76.948 197.404 77.3125C197.753 77.677 198.23 77.8901 198.732 77.9069H211.92C212.991 77.9069 213.858 77.032 213.858 75.9545ZM213.858 91.5607C213.858 91.0423 213.654 90.5452 213.291 90.1786C212.927 89.8121 212.434 89.6062 211.92 89.6062H198.732C198.23 89.6229 197.753 89.8361 197.404 90.2006C197.054 90.5651 196.858 91.0524 196.858 91.5596C196.858 92.0668 197.054 92.5541 197.404 92.9186C197.753 93.2832 198.23 93.4963 198.732 93.5131H211.92C212.991 93.5131 213.858 92.6382 213.858 91.5607ZM213.858 109.232C213.858 108.714 213.654 108.217 213.291 107.85C212.927 107.484 212.434 107.278 211.92 107.278H198.732C198.23 107.295 197.753 107.508 197.404 107.872C197.054 108.237 196.858 108.724 196.858 109.231C196.858 109.738 197.054 110.226 197.404 110.59C197.753 110.955 198.23 111.168 198.732 111.185H211.92C212.991 111.185 213.858 110.31 213.858 109.232ZM213.858 125.048C213.858 124.529 213.653 124.033 213.29 123.666C212.927 123.3 212.434 123.094 211.92 123.093H198.732C198.23 123.11 197.753 123.323 197.404 123.688C197.054 124.052 196.858 124.539 196.858 125.047C196.858 125.554 197.054 126.041 197.404 126.406C197.753 126.77 198.23 126.983 198.732 127H211.92C212.991 127 213.858 126.125 213.858 125.048Z" fill="#E3F9FF"/>
<path d="M119.385 127.782L126.428 126.273M143.03 145.39C142.692 143.746 144.539 139.353 144.539 136.838C144.539 134.322 142.023 131.304 140.514 129.795C139.005 128.285 137.951 127.461 135.484 126.775C133.212 126.143 130.956 125.77 128.944 125.77C127.944 125.77 126.428 126.273 126.428 126.273M143.03 145.39C144.558 147.369 143.533 145.893 144.539 147.402C145.084 148.22 146.048 148.91 146.048 148.91C146.048 148.91 149.57 152.936 150.576 153.943M143.03 145.39C141.629 143.577 138.502 140.359 136.993 138.85M136.993 138.85C135.603 137.461 134.723 136.339 133.471 134.825M136.993 138.85C133.974 138.85 131.459 140.359 128.944 141.617C127.323 142.427 124.483 143.931 123.409 145.39C122.311 146.883 120.123 149.413 120.123 149.413L121.129 146.394C121.129 146.394 122.265 142.218 123.644 139.854C124.634 138.157 126.683 136.71 128.44 135.832C130.453 134.825 131.459 134.825 133.471 134.825M133.471 134.825C131.31 132.103 126.428 126.273 126.428 126.273M152.085 153.943C152.085 153.943 150.248 158.149 149.57 160.483C148.876 162.869 148.754 163.539 148.563 166.016C148.315 169.247 149.338 171.071 150.576 174.066C152.408 178.498 157.619 184.127 157.619 184.127C157.619 184.127 162.721 184.654 165.668 185.637M152.085 153.943C152.085 153.943 157.619 147.402 162.147 143.378C165.891 140.05 165.989 140.563 170.196 137.844C172.902 136.095 177.061 134.419 180.257 134.825C183.532 135.242 183.47 139.271 185.791 141.617C188.514 144.368 190.574 145.325 193.841 147.402C197.254 149.573 199.17 150.858 202.896 152.433C206.675 154.031 212.166 151.427 212.958 155.452C213.682 159.135 209.603 161.378 206.921 164.004C204.834 166.047 203.131 167.673 200.884 169.538C197.527 172.324 195.917 173.594 192.331 176.078C186.373 180.205 183.027 181.603 176.233 184.127C172.078 185.671 170.082 185.233 165.668 185.637M152.085 153.943C152.085 153.943 149.076 154.674 146.048 156.961C143.939 158.554 142.575 160.071 141.52 162.495C139.691 166.701 139.253 169.727 140.514 174.066C141.822 178.566 147.054 184.127 147.054 184.127M165.668 185.637C157.619 184.127 159.573 183.663 156.613 185.637C152.085 188.655 147.054 184.127 147.054 184.127M120.123 150.924C120.123 150.924 120.123 160.483 123.644 168.029C125.391 171.772 128.944 175.072 133.471 178.09C138.413 181.385 147.054 184.127 147.054 184.127" stroke="#7EE3FF" stroke-width="2"/>
<path d="M213.461 154.377V150.924L206.418 156.843C206.418 156.843 208.779 159.658 210.82 158.816C212.189 158.251 213.461 155.363 213.461 155.363V154.377Z" fill="#060B1B" stroke="#7EE3FF" stroke-width="2"/>
<path d="M5.7606 72.881C5.76304 57.5436 8.78737 51.1728 11.5681 48.5913C12.9432 47.3149 14.2907 46.9323 15.2745 46.8539C15.4317 46.8414 15.5802 46.8391 15.7188 46.8398C15.6869 46.978 15.6559 47.1289 15.6258 47.293C15.2411 49.3948 14.8716 54.3849 14.8707 65.9709C14.8696 81.3157 15.4035 88.3741 15.8628 91.8632C16.0936 93.6168 16.3066 94.4727 16.4133 94.9857C16.4665 95.2412 16.4803 95.3549 16.4782 95.4467C16.4772 95.493 16.4703 95.5463 16.453 95.6241C16.2487 95.5746 15.9229 95.4407 15.487 95.1599C14.4968 94.5219 13.1616 93.2875 11.7905 91.4194C9.06061 87.6999 6.25071 81.5493 5.7606 72.881Z" stroke="#7EE3FF" stroke-width="1.5"/>
<path d="M0.750001 69.4438C1.49562 58.8614 3.74467 54.7459 5.56934 53.2144C6.4583 52.4682 7.27097 52.3126 7.83887 52.3208C7.93332 52.3222 8.02229 52.3304 8.10449 52.3394C8.06802 52.4598 8.02618 52.5928 7.9834 52.7388C7.76708 53.4769 7.4766 54.533 7.17676 55.8091C6.57804 58.3573 5.93896 61.8031 5.79102 65.3628C5.33953 76.2265 6.75611 82.0406 7.93066 85.1431C8.22351 85.9166 8.49877 86.5145 8.71973 86.9712C8.77032 87.0758 8.81618 87.1696 8.85742 87.2534C8.31115 87.1519 7.59593 86.8208 6.79297 86.1763C5.87651 85.4405 4.89772 84.3362 3.99902 82.8491C2.20647 79.8829 0.754063 75.4245 0.750001 69.4438Z" stroke="#7EE3FF" stroke-width="1.5"/>
<path d="M190.226 119.228C192.506 119.686 193.711 120.5 194.307 121.399C194.906 122.303 194.962 123.401 194.705 124.579C194.448 125.757 193.892 126.948 193.355 127.97C193.081 128.492 192.838 128.924 192.621 129.332C192.423 129.704 192.239 130.067 192.169 130.342C191.924 131.307 191.771 132.333 191.609 133.303C191.445 134.286 191.272 135.219 190.988 136.057C190.706 136.891 190.322 137.606 189.755 138.165C189.201 138.71 188.443 139.133 187.362 139.354C185.384 139.335 183.752 138.104 182.587 136.109C181.416 134.102 180.762 131.387 180.758 128.613C180.988 126.181 182.3 123.829 184.111 122.08C185.919 120.334 188.166 119.244 190.226 119.228Z" fill="#070C1E" stroke="#7EE3FF"/>
<path d="M204.342 131.302C206.582 131.768 207.95 132.66 208.771 133.714C209.601 134.78 209.917 136.069 209.941 137.396C209.966 138.727 209.697 140.066 209.389 141.191C209.235 141.752 209.073 142.256 208.935 142.675C208.801 143.081 208.679 143.44 208.621 143.675C207.738 147.277 204.656 150.496 201.047 152.393C196.298 150.739 194.424 148.691 193.962 146.859C193.492 144.997 194.42 143.123 195.779 141.737L195.836 141.68L195.871 141.607C197.068 139.165 198.176 136.577 199.543 134.571C200.896 132.586 202.403 131.322 204.342 131.302Z" fill="#070C1E" stroke="#7EE3FF"/>
<path d="M38.8917 97.193C37.013 100.908 35.3701 107.255 35.3701 107.255L45.4317 108.764C45.4317 108.764 46.44 105.299 47.444 103.23C48.5625 100.925 49.3329 99.6699 50.9656 97.6961C52.2052 96.1974 53.4604 95.8263 54.4872 94.1745C55.3734 92.7489 56.123 91.8237 55.9964 90.1498C55.8567 88.3017 54.9361 87.2732 53.481 86.1252C52.0178 84.9707 50.7794 84.2429 48.9533 84.616C47.1786 84.9785 46.6956 86.337 45.4317 87.6344C43.8687 89.239 43.1776 90.3152 41.9102 92.1622C40.6138 94.0513 39.9256 95.1484 38.8917 97.193Z" fill="#070C1E" stroke="#7EE3FF" stroke-width="2"/>
<path d="M48.4505 104.895L47.4443 109.926H47.9474L58.009 112.944L58.5121 111.938C58.5121 111.938 59.7106 109.364 60.5244 107.41C61.0999 106.029 60.9637 105.319 60.5244 103.889C60.0594 102.375 59.5117 101.874 58.009 101.373C57.0587 101.057 56.9912 100.991 55.9967 100.87C54.4364 100.681 53.4743 100.408 51.9721 100.87C51.1323 101.128 50.581 101.255 49.9597 101.876C49.0811 102.755 48.4505 104.895 48.4505 104.895Z" fill="#060B1B" stroke="#7EE3FF" stroke-width="2"/>
<path d="M60.5105 108.938L59.5956 113.947L59.9889 113.957L67.7781 117.175L68.197 116.18C68.197 116.18 69.1996 113.63 69.8857 111.694C70.3708 110.325 70.2825 109.612 69.9755 108.173C69.6505 106.65 69.2351 106.139 68.0731 105.608C67.3382 105.273 67.2871 105.206 66.5127 105.065C65.2977 104.845 64.5525 104.553 63.3663 104.985C62.7032 105.227 62.269 105.342 61.7674 105.951C61.0581 106.811 60.5105 108.938 60.5105 108.938Z" fill="#060B1B" stroke="#7EE3FF" stroke-width="2"/>
<path d="M71.1516 113.885L69.6426 118.412L70.6487 118.916L73.0002 120.929L73.133 119.994C73.133 119.994 74.4506 117.713 74.6731 115.897C74.8305 114.613 74.7342 114.214 74.6731 112.879C74.6361 112.069 74.17 111.794 73.667 111.369C73.3918 111.137 72.8713 110.963 72.7403 110.89C72.4071 110.705 72.0194 110.679 71.8692 110.868C71.6813 111.104 71.8039 111.297 71.6547 111.873C71.4436 112.686 71.1516 113.885 71.1516 113.885Z" fill="#060B1B" stroke="#7EE3FF" stroke-width="2"/>
<path d="M183.774 130.631C185.184 130.631 186.62 131.417 187.72 132.692C188.815 133.964 189.53 135.672 189.53 137.417C189.53 140.976 187.095 143.717 184.256 143.717C181.466 143.717 179.463 141.038 179.463 137.417C179.463 135.601 179.856 133.875 180.603 132.621C181.341 131.38 182.399 130.631 183.774 130.631ZM63.6943 112.184C65.212 112.184 66.5262 112.568 67.4521 113.343C68.2573 114.016 68.815 115.024 68.9346 116.459C68.9068 116.635 68.8876 116.821 68.873 117.016C68.844 117.406 68.8346 117.86 68.8311 118.384C68.7118 118.983 68.5118 119.519 68.2471 119.991C68.0313 120.265 67.818 120.508 67.6182 120.722C67.413 120.943 67.2322 121.125 67.0664 121.298C66.9754 121.392 66.8845 121.488 66.8037 121.583C65.9369 122.184 64.8601 122.511 63.6777 122.511C62.1981 122.511 60.8557 122.001 59.8867 121.078C58.9219 120.159 58.2979 118.802 58.2979 117.051C58.2979 116.804 58.311 116.569 58.335 116.344C58.4719 115.945 58.572 115.519 58.6299 115.067C58.9039 114.344 59.3337 113.778 59.8652 113.347C60.8258 112.568 62.1763 112.184 63.6943 112.184ZM72.0703 115.211C73.2869 115.499 73.6581 115.715 73.8496 116.097C73.9618 116.322 74.0352 116.65 74.0732 117.186C74.111 117.719 74.1113 118.4 74.1113 119.306C74.1113 120.207 73.9838 120.794 73.7881 121.18C73.6026 121.546 73.3413 121.762 72.9854 121.899C72.6075 122.045 72.1177 122.104 71.4863 122.12C70.8446 122.136 70.1577 122.107 69.3281 122.107C68.6295 122.107 68.1416 122.094 67.8105 122.07C67.9141 121.983 68.0166 121.893 68.1143 121.798C68.4891 121.432 68.8135 121.013 69.083 120.546C69.3089 120.254 69.5385 119.928 69.7568 119.563L69.8281 119.445V119.306C69.8281 119.011 69.8297 118.738 69.8311 118.485C69.915 118.032 69.96 117.553 69.96 117.051C69.96 116.871 69.9514 116.696 69.9404 116.524C69.9844 116.282 70.0403 116.106 70.1133 115.971C70.2197 115.776 70.377 115.633 70.6807 115.511C70.9922 115.387 71.4302 115.298 72.0703 115.211ZM52.1533 108.848C53.6459 108.848 55.0323 109.322 56.0381 110.205C57.0353 111.08 57.6904 112.385 57.6904 114.126C57.6904 114.373 57.6751 114.612 57.6494 114.843C57.5115 115.236 57.4123 115.661 57.3555 116.119C57.0675 116.906 56.609 117.551 56.0371 118.055C55.0309 118.942 53.6448 119.42 52.1533 119.42C49.1255 119.42 46.1134 117.503 46.1133 114.126C46.1133 113.754 46.1513 113.401 46.2188 113.068C46.4479 112.625 46.6292 112.15 46.752 111.646C47.0723 111.09 47.4981 110.615 47.9971 110.221C49.1348 109.324 50.6573 108.848 52.1533 108.848ZM40.4014 103.806C43.2689 103.806 45.9385 106.562 45.9385 110.09C45.9385 110.507 45.8918 110.908 45.8066 111.291C45.5714 111.728 45.3877 112.203 45.2695 112.718C44.2045 114.669 42.0251 115.886 39.8984 115.886C36.9312 115.886 33.8586 113.518 33.8584 110.09C33.8584 108.388 34.7332 106.818 36.0186 105.661C37.3075 104.501 38.9534 103.806 40.4014 103.806Z" fill="#070C1E" stroke="#7EE3FF"/>
<path d="M219.101 132.307C221.302 132.439 222.692 133.16 223.567 134.137C224.454 135.127 224.869 136.441 224.993 137.85C225.243 140.683 224.301 143.702 223.995 144.606C223.308 146.638 221.686 148.586 219.547 150.167C217.47 151.702 214.941 152.862 212.407 153.407C211.555 152.8 211.161 152.393 211.013 152.092C210.944 151.953 210.933 151.848 210.948 151.751C210.965 151.642 211.021 151.505 211.146 151.317C211.272 151.128 211.449 150.918 211.678 150.662C211.895 150.418 212.178 150.113 212.461 149.791C213.041 149.129 213.709 148.294 214.338 147.182C215.347 145.744 215.797 144.044 216.011 142.345C216.225 140.644 216.208 138.88 216.254 137.356C216.301 135.792 216.413 134.511 216.826 133.623C217.026 133.194 217.287 132.876 217.633 132.661C217.978 132.446 218.447 132.309 219.101 132.307Z" fill="#070C1E" stroke="#7EE3FF"/>
<path d="M211.695 134.319C213.769 134.431 215.153 135.068 216.08 135.938C217.015 136.816 217.532 137.976 217.786 139.209C218.299 141.694 217.719 144.345 217.513 145.125C217.062 146.827 215.875 148.464 214.29 149.915C212.758 151.317 210.884 152.514 209.042 153.403C206.622 152.631 205.226 151.987 204.501 151.425C204.135 151.141 203.984 150.912 203.929 150.742C203.879 150.587 203.889 150.422 203.988 150.207C204.093 149.98 204.286 149.722 204.569 149.421C204.85 149.122 205.192 148.808 205.571 148.458C206.311 147.777 207.183 146.972 207.825 146.008C209.84 143.562 209.758 140.4 209.785 138.056C209.799 136.829 209.842 135.878 210.114 135.228C210.242 134.922 210.413 134.708 210.64 134.565C210.868 134.421 211.199 134.321 211.695 134.319Z" fill="#070C1E" stroke="#7EE3FF"/>
<path d="M200.711 152.498C200.83 152.378 201.027 152.247 201.369 152.027C201.694 151.819 202.112 151.553 202.6 151.187C203.406 150.583 204.122 149.985 204.636 149.54C204.746 149.445 204.844 149.355 204.935 149.275C204.964 149.337 204.994 149.403 205.027 149.47C205.273 149.964 205.655 150.606 206.189 151.14C206.689 151.64 207.086 151.911 207.38 152.059C207.528 152.132 207.65 152.175 207.748 152.199C207.778 152.207 207.806 152.211 207.831 152.215C207.857 152.224 207.892 152.236 207.937 152.251C208.032 152.282 208.168 152.325 208.341 152.374C208.685 152.471 209.175 152.593 209.759 152.693C209.927 152.722 210.084 152.739 210.229 152.749C210.019 153.011 209.771 153.31 209.493 153.617C208.614 154.584 207.519 155.565 206.506 155.904C206.052 156.057 205.601 156.226 205.314 156.324C204.991 156.434 204.754 156.501 204.542 156.525C204.163 156.567 203.781 156.487 203.037 156.021C202.115 155.445 201.857 155.26 201.677 155.02C201.586 154.898 201.506 154.749 201.382 154.484C201.26 154.227 201.101 153.872 200.862 153.394C200.671 153.013 200.617 152.811 200.613 152.697C200.611 152.634 200.62 152.589 200.711 152.498Z" fill="#030E21" stroke="#7EE3FF"/>
<path d="M191.873 145.875C192.368 145.116 193.135 144.45 193.803 143.964C193.913 143.885 194.02 143.813 194.12 143.745C194.11 143.856 194.098 143.972 194.09 144.093C194.035 144.87 194.029 145.893 194.275 146.691C194.539 147.549 195.185 148.439 195.722 149.082C195.997 149.411 196.256 149.691 196.447 149.889C196.542 149.988 196.621 150.066 196.676 150.121L196.792 150.232L196.822 150.253L196.823 150.254C196.824 150.255 196.826 150.256 196.827 150.257C196.831 150.259 196.836 150.263 196.843 150.268C196.856 150.277 196.876 150.29 196.9 150.307C196.949 150.34 197.021 150.388 197.109 150.446C197.286 150.561 197.535 150.718 197.823 150.884C198.387 151.208 199.149 151.594 199.83 151.745C200.417 151.876 201.147 151.876 201.718 151.849C201.5 152.129 201.235 152.455 200.933 152.79C200.059 153.759 198.962 154.723 197.918 155.021C196.921 155.305 196.397 155.41 195.917 155.359C195.441 155.309 194.955 155.099 194.058 154.594C192.124 153.506 190.937 151.917 190.531 149.752C190.375 148.921 190.465 148.354 190.692 147.816C190.938 147.237 191.336 146.697 191.873 145.875Z" fill="#030E21" stroke="#7EE3FF"/>
<path d="M149.071 72.881C149.069 57.5436 146.045 51.1728 143.264 48.5913C141.889 47.3149 140.541 46.9323 139.557 46.8539C139.4 46.8414 139.252 46.8391 139.113 46.8398C139.145 46.978 139.176 47.1289 139.206 47.293C139.591 49.3948 139.96 54.3849 139.961 65.9709C139.962 81.3157 139.429 88.3741 138.969 91.8632C138.738 93.6168 138.525 94.4727 138.419 94.9857C138.366 95.2412 138.352 95.3549 138.354 95.4467C138.355 95.493 138.362 95.5463 138.379 95.6241C138.583 95.5746 138.909 95.4407 139.345 95.1599C140.335 94.5219 141.67 93.2875 143.042 91.4194C145.771 87.6999 148.581 81.5493 149.071 72.881Z" stroke="#7EE3FF" stroke-width="1.5"/>
<path d="M154.083 69.4438C153.337 58.8614 151.088 54.7459 149.264 53.2144C148.375 52.4682 147.562 52.3126 146.994 52.3208C146.9 52.3222 146.811 52.3304 146.729 52.3394C146.765 52.4598 146.807 52.5928 146.85 52.7388C147.066 53.4769 147.356 54.533 147.656 55.8091C148.255 58.3573 148.894 61.8031 149.042 65.3628C149.493 76.2265 148.077 82.0406 146.902 85.1431C146.609 85.9166 146.334 86.5145 146.113 86.9712C146.063 87.0758 146.017 87.1696 145.976 87.2534C146.522 87.1519 147.237 86.8208 148.04 86.1763C148.956 85.4405 149.935 84.3362 150.834 82.8491C152.627 79.8829 154.079 75.4245 154.083 69.4438Z" stroke="#7EE3FF" stroke-width="1.5"/>
</svg>
