<svg width="248" height="357" viewBox="0 0 248 357" fill="none" xmlns="http://www.w3.org/2000/svg">
<path opacity="0.5" d="M246.468 100.452L193.346 242.938L110.251 205.348L155.945 75.7188L246.468 100.452Z" fill="#7EE3FF" stroke="#7EE3FF"/>
<path opacity="0.3" d="M242.218 99.8389L189.096 242.324L106.001 204.734L151.695 75.1055L242.218 99.8389Z" fill="white" stroke="#7EE3FF"/>
<path d="M131.878 116.501L128.361 122.577C127.049 124.843 125.363 126.871 123.375 128.576L123.094 128.816C120.648 130.913 117.734 132.444 114.623 133.281C109.185 134.745 103.526 135.501 97.8936 135.501H92.8962C92.2191 135.501 91.5436 135.438 90.8784 135.312M131.878 116.501L134.038 113.909C134.258 113.645 134.378 113.313 134.378 112.969C134.378 112.158 133.721 111.501 132.91 111.501H132.878M131.878 116.501C127.235 117.164 122.522 117.164 117.878 116.501L110.878 115.501L105.966 114.191C104.249 113.733 102.6 113.047 101.065 112.152L99.6815 111.344C98.1634 110.459 96.8502 109.262 95.8287 107.831C95.1979 106.948 94.6854 105.986 94.3044 104.97L94.1915 104.669C93.6527 103.232 93.3394 101.721 93.2628 100.188L92.8784 92.501V83.501V72.001L93.3784 66.501L93.8784 58.001L94.0936 56.2797C94.2821 54.7715 94.7257 53.3064 95.4054 51.9469L95.5407 51.6764C96.0955 50.5667 96.8257 49.5537 97.703 48.6764C98.4826 47.8968 99.3699 47.2329 100.338 46.705L104.378 44.501L109.878 42.001L116.378 40.001L122.878 38.001L125.919 37.4942C127.889 37.1659 129.882 37.001 131.878 37.001M40.3784 10.501L33.4956 14.6905C30.4225 16.5611 27.506 18.6774 24.7745 21.0186C20.5273 24.6591 16.7554 28.8196 13.5475 33.4023L11.3784 36.501L10.1898 38.7085C6.33576 45.8659 3.53638 53.5427 1.87842 61.501L1.43381 65.947C0.73279 72.9573 0.882074 80.0266 1.87842 87.001L2.10345 87.8111C3.61554 93.2546 5.71976 98.516 8.37842 103.501L8.85529 104.169C13.4561 110.61 19.6723 115.725 26.8784 119.001L28.5647 119.875C36.4064 123.941 44.7493 126.957 53.3784 128.845M40.3784 10.501L41.1734 9.70601C43.2896 7.58982 45.7998 5.90872 48.5624 4.75767C49.7708 4.25413 51.0203 3.8551 52.2969 3.56496L55.7137 2.78841C59.4824 1.93189 63.3211 1.42003 67.1825 1.25914L73.3784 1.00098L79.0173 1.26949C82.253 1.42358 85.4715 1.83287 88.6428 2.49355C93.4493 3.4949 98.1187 5.06777 102.551 7.17861L106.378 9.00098L114.711 14.0008C115.819 14.6651 116.84 15.4626 117.753 16.3756L121.833 20.4554C122.182 20.8047 122.378 21.2785 122.378 21.7726C122.378 22.5178 121.934 23.1913 121.249 23.4849L118.878 24.501L116.362 25.5793C115.713 25.8575 115.014 26.001 114.308 26.001C113.063 26.001 111.859 25.5556 110.913 24.7453L108.878 23.001L108.606 22.7963C104.798 19.9407 100.7 17.4954 96.3784 15.501C91.7344 13.179 86.7894 11.5155 81.6862 10.5587L81.3784 10.501L73.3784 9.00098L65.8784 8.00098H58.3784C53.7263 8.00098 49.0889 8.52133 44.5525 9.55232L40.3784 10.501ZM122.878 23.001C124.872 24.9941 126.625 27.2136 128.102 29.6143L129.878 32.501L131.878 37.001M131.878 37.001C132.877 38.3326 134.414 39.4685 134.64 41.1176C134.686 41.4497 134.62 41.7589 134.378 42.001C133.938 42.441 133.377 42.6995 132.878 42.843M132.878 111.501H125.878L120.378 111.001L119.581 110.934C116.122 110.646 112.703 109.998 109.378 109.001L107.144 108.163C105.974 107.724 104.881 107.103 103.906 106.323L103.626 106.099C103.129 105.702 102.678 105.25 102.28 104.753C101.361 103.604 100.751 102.239 100.509 100.787L100.499 100.724C100.419 100.243 100.378 99.7557 100.378 99.2676V83.501V71.001V64.001V60.9242C100.378 60.3098 100.429 59.6964 100.53 59.0903L100.588 58.7456C100.78 57.5928 101.187 56.4865 101.788 55.4843C102.18 54.8312 102.651 54.2286 103.189 53.6901L103.275 53.604C103.677 53.2027 104.111 52.8352 104.572 52.5053L105.675 51.7176C106.809 50.9078 108.004 50.188 109.251 49.5649L111.378 48.501L115.378 47.001L120.378 45.501L124.378 44.501L128.878 43.501L130.877 43.1679C131.543 43.0568 132.229 43.0299 132.878 42.843M132.878 111.501C133.875 109.839 134.688 108.073 135.3 106.235L135.378 106.001L136.378 101.501L136.878 97.001L137.378 90.501L137.878 85.001V77.501V70.001L137.378 63.001L136.378 56.001L134.878 49.501L132.878 42.843M53.3784 128.845L56.3784 129.501L73.3784 132.001L90.8784 135.312M53.3784 128.845V130.001M53.3784 133.501L58.3784 134.001L64.3784 135.001L67.6284 135.751M53.3784 133.501L49.3784 132.501M53.3784 133.501V130.001M95.3784 140.001L96.7459 140.913C96.834 140.971 96.9161 141.039 96.991 141.114L97.4208 141.543C97.9162 142.039 97.8345 142.864 97.2516 143.252C97.0122 143.412 96.7202 143.472 96.4371 143.421L91.3784 142.501L90.8784 142.376M90.8784 135.312V136.501M90.8784 142.376L85.3784 141.001L77.8784 139.001L70.8784 136.501L67.6284 135.751M90.8784 142.376V136.501M90.8784 136.501L91.3007 136.554C93.6535 136.848 95.9055 137.686 97.8784 139.001L98.3856 139.255C100.689 140.406 102.73 142.022 104.378 144.001L104.695 144.423C106.48 146.804 108.048 149.34 109.378 152.001M109.378 152.001L110.061 152.456C110.603 152.817 111.085 153.26 111.492 153.768L111.941 154.33C112.548 155.088 112.878 156.03 112.878 157.001C112.878 157.951 112.456 158.853 111.726 159.461L111.378 159.751M109.378 152.001L106.378 154.501L105.276 155.604C104.381 156.498 103.878 157.712 103.878 158.977C103.878 159.325 103.917 159.672 103.992 160.012L104.878 164.001L105.878 168.501L106.378 172.501M111.878 171.001L110.669 167.373C110.145 165.802 109.878 164.157 109.878 162.501C109.878 161.551 110.301 160.649 111.031 160.041L111.378 159.751M53.3784 130.001H51.8738C50.8817 130.001 49.8945 130.139 48.9405 130.412L48.5441 130.525C47.4446 130.839 46.4186 131.369 45.5257 132.083C44.7663 132.691 44.1151 133.422 43.5997 134.247L43.0374 135.147C42.2689 136.376 41.6846 137.712 41.303 139.111L40.3784 142.501C39.38 145.829 38.6477 149.231 38.1885 152.675L37.8784 155.001V164.501L37.8504 164.949C37.5365 169.972 37.7133 175.013 38.3784 180.001L40.0828 188.097C40.2796 189.031 40.5507 189.949 40.8936 190.84C42.1868 194.203 44.4625 197.098 47.4245 199.148L47.5806 199.256C48.775 200.083 50.0624 200.767 51.4164 201.294L53.8784 202.251M91.3784 182.001C91.2118 181.834 90.7784 181.601 88.3784 182.001C86.4763 182.318 84.3542 183.348 82.6884 184.32L82.3784 184.501L81.3148 185.299C80.6937 185.765 80.142 186.316 79.6762 186.937C79.1478 187.642 78.7364 188.427 78.458 189.262L77.8784 191.001L77.2833 193.084C77.0147 194.024 76.8784 194.997 76.8784 195.975C76.8784 197.313 77.1338 198.64 77.631 199.882L77.8784 200.501M77.8784 200.501L76.6598 199.959C74.4812 198.991 72.436 197.747 70.5744 196.258C69.1141 195.09 67.7753 193.777 66.5781 192.341L63.3784 188.501L59.3784 183.501L57.3546 181.14C56.7247 180.405 56.3784 179.469 56.3784 178.501M77.8784 200.501C78.5351 201.814 79.5031 202.947 80.698 203.801L81.1087 204.094C81.951 204.696 82.8738 205.176 83.8499 205.52L90.8784 208.001H80.8784C73.5575 207.335 66.3038 206.068 59.1907 204.213L58.3784 204.001L53.8784 202.251M56.3784 174.001L59.9464 176.776C60.5668 177.259 61.2235 177.693 61.9106 178.074L63.4771 178.945C64.724 179.637 66.127 180.001 67.5535 180.001C69.0748 180.001 70.5675 179.588 71.872 178.805L72.3784 178.501L74.8784 176.501L76.6524 175.392C78.1017 174.486 79.2392 173.159 79.9125 171.588C80.2216 170.867 80.4278 170.106 80.5251 169.327L80.6244 168.533C80.7929 167.185 80.765 165.821 80.5418 164.481L79.8784 160.501M56.3784 174.001L55.1288 172.251C54.3026 171.095 53.7014 169.793 53.3567 168.414C53.0402 167.148 52.9448 165.837 53.0746 164.539L53.2572 162.713C53.3379 161.907 53.4857 161.108 53.699 160.325L54.0689 158.969C54.5964 157.035 55.6921 155.304 57.2143 153.999C57.9859 153.337 58.8536 152.797 59.7877 152.397L60.6774 152.016C61.4764 151.673 62.3054 151.406 63.1539 151.218L64.0569 151.017C65.5836 150.678 67.1683 150.698 68.6856 151.078C69.8058 151.358 70.8695 151.828 71.8303 152.469L72.7514 153.083C74.161 154.023 75.4171 155.174 76.4753 156.497L76.8784 157.001L79.8784 160.501M56.3784 174.001V178.501M93.3784 179.001L90.8784 174.001L87.3784 168.001L86.9473 167.354C85.9039 165.789 84.7085 164.331 83.3784 163.001M79.8784 160.501L82.2901 162.109C82.6813 162.37 83.0459 162.668 83.3784 163.001M56.3784 178.501L54.9808 177.569C53.9152 176.859 52.9223 176.045 52.0166 175.139C51.2591 174.382 50.5655 173.563 49.9428 172.691L48.4265 170.568C48.3945 170.524 48.3675 170.476 48.3459 170.425C48.0183 169.661 46.8784 166.254 46.8784 165.422C46.8784 164.884 46.8784 164.248 46.8784 163.501C46.8784 157.501 46.8784 159.334 46.8784 161.001V160.532C46.8784 157.89 47.5678 155.295 48.8784 153.001L49.7402 151.622C50.826 149.885 52.1698 148.323 53.7253 146.989L53.8697 146.866C54.5412 146.29 55.255 145.766 56.0051 145.297C57.9034 144.11 60.0097 143.295 62.2122 142.895L63.3945 142.68C64.0491 142.561 64.7131 142.501 65.3784 142.501M83.3784 163.001V161.202C83.3784 160.071 83.2667 158.942 83.0448 157.833C82.6048 155.633 81.738 153.54 80.4935 151.674L80.3784 151.501L79.7146 150.572C78.4977 148.868 77.026 147.362 75.3511 146.106L75.1145 145.928C74.2921 145.311 73.4159 144.77 72.4965 144.31L72.0089 144.066C69.9502 143.037 67.6801 142.501 65.3784 142.501M67.6284 135.751L67.5546 135.888C66.4459 137.947 65.7092 140.186 65.3784 142.501M111.378 159.751L111.407 159.834C112.587 163.227 115.786 165.501 119.378 165.501M53.8784 202.251L58.3784 215.501M58.3784 215.501C57.5186 215.071 56.3315 215.007 55.2362 215.091C53.6689 215.212 52.2951 216.084 51.1836 217.196C50.6488 217.731 50.18 218.332 49.7909 218.98C49.1896 219.982 48.7798 221.093 48.5876 222.246L48.2976 223.986C48.0204 225.649 48.0478 227.348 48.3784 229.001L48.6425 229.881C49.4608 232.609 50.7231 235.183 52.3784 237.501L52.9777 238.167C55.5637 241.04 58.5636 243.512 61.8784 245.501M58.3784 215.501C62.6997 217.163 67.1841 218.365 71.7574 219.087L74.3784 219.501L81.3625 220.499C83.7035 220.833 86.0653 221.001 88.43 221.001H91.8637C92.871 221.001 93.8759 220.901 94.8638 220.704L100.111 219.654C100.604 219.556 101.039 219.271 101.327 218.86C102.012 217.882 103.407 217.742 104.272 218.566L106.465 220.654C107.367 221.514 107.878 222.707 107.878 223.953V230.001M107.878 230.001L141.878 222.001M107.878 230.001L85.8784 235.297M80.8784 236.501L162.378 258.501M80.8784 236.501L85.8784 235.297M80.8784 236.501V245.501M80.8784 236.501C79.9394 234.31 77.9819 232.722 75.6445 232.254L75.5572 232.237C74.7765 232.081 73.9695 232.052 73.1795 232.151C71.382 232.376 69.7114 233.242 68.4996 234.589L68.4142 234.683C66.8185 236.456 66.154 238.879 66.6218 241.218C66.7916 242.067 67.1061 242.88 67.5516 243.623L68.049 244.452C69.184 246.344 71.2282 247.501 73.4341 247.501C74.0601 247.501 74.6826 247.407 75.281 247.223L80.8784 245.501M162.378 355.501V258.501M162.378 355.501L241.878 331.501V238.001M162.378 355.501L98.3784 332.728M162.378 258.501L241.878 238.001M241.878 238.001L198.378 225.501M98.3784 236.501L162.378 252.001L224.878 238.001L196.378 230.001M61.8784 245.501L61.1878 242.739C60.9818 241.915 60.836 241.077 60.7515 240.232C60.5056 237.772 60.7824 235.289 61.564 232.944L61.8784 232.001L62.097 231.509C63.2446 228.927 65.2991 226.855 67.8715 225.686C68.871 225.232 69.9302 224.922 71.0171 224.767L72.2156 224.596C74.9532 224.205 77.7443 224.456 80.3677 225.331L80.9816 225.535C81.9095 225.845 82.7975 226.263 83.627 226.781L85.3963 227.887C86.0402 228.29 86.5694 228.851 86.933 229.518L87.5912 230.724C88.5336 232.452 87.7239 234.614 85.8784 235.297M61.8784 245.501L65.8784 250.001M80.8784 245.501V252.001M65.8784 250.001L64.4622 252.833C63.7414 254.275 63.1648 255.784 62.7408 257.339C62.1684 259.438 61.8784 261.603 61.8784 263.778V270.501M65.8784 250.001C69.8524 251.326 74.014 252.001 78.203 252.001H80.8784M80.8784 252.001V268.501M61.8784 270.501L64.7041 271.066C67.7876 271.683 70.9648 271.661 74.0395 271.002C75.5946 270.669 77.1109 270.175 78.5643 269.529L80.8784 268.501M61.8784 270.501C60.5681 271.484 59.5388 272.793 58.8936 274.299L58.7244 274.694C58.4941 275.231 58.3072 275.786 58.1654 276.353L56.3784 283.501L53.3784 294.501L51.9771 304.31C51.9114 304.77 51.8784 305.234 51.8784 305.699C51.8784 308.729 53.2773 311.589 55.669 313.449L56.3784 314.001M80.8784 268.501V319.001M56.3784 314.001L58.936 311.443C59.5627 310.817 60.2499 310.253 60.9874 309.762L62.1201 309.007C63.5926 308.025 65.3228 307.501 67.0926 307.501C68.5925 307.501 70.0684 307.877 71.3851 308.596L73.4111 309.701C74.3864 310.233 75.3002 310.87 76.1363 311.602C77.9387 313.179 79.3421 315.16 80.2316 317.384L80.8784 319.001M56.3784 314.001L55.5031 316.335C55.09 317.437 54.8784 318.604 54.8784 319.78C54.8784 321.717 55.4518 323.611 56.5263 325.223L57.7571 327.069C58.1703 327.689 58.6437 328.266 59.1705 328.793C60.9268 330.549 63.2124 331.679 65.6744 332.007L67.0938 332.196C68.6051 332.398 70.14 332.332 71.6284 332.001M80.8784 319.001V322.751M80.8784 322.751L80.0038 324.391C79.2576 325.79 78.3086 327.071 77.1875 328.192L75.5082 329.871C74.4438 330.936 73.0979 331.674 71.6284 332.001M80.8784 322.751C80.8784 324.999 82.2932 327.004 84.4114 327.758L98.3784 332.728M98.3784 332.728C92.0563 333.242 85.7021 333.225 79.3829 332.675L71.6284 332.001M73.8784 321.501V319.455C73.8784 317.297 72.7999 315.282 71.0044 314.085C69.9442 313.378 68.6985 313.001 67.4243 313.001H65.3263C64.0693 313.001 62.8538 313.451 61.8995 314.269C60.6287 315.358 59.9514 316.986 60.0751 318.656L60.1884 320.186C60.3122 321.857 60.9385 323.451 61.985 324.759L62.0367 324.824C62.9176 325.925 64.054 326.843 65.4488 327.049C66.857 327.258 68.6616 327.237 70.3784 326.501C73.1784 325.301 73.8784 322.668 73.8784 321.501Z" stroke="#7EE3FF" stroke-width="2"/>
<path d="M146.754 75.6145L242.255 97.0282L202.753 215.616L192.753 242.114L108.753 206.114L146.754 75.6145Z" fill="url(#paint0_linear_3532_16192)" fill-opacity="0.5"/>
<path d="M94.3784 177.501L108.878 172.001L125.878 171.001L141.878 174.001L157.378 169.501L161.878 172.001V176.001L146.378 206.501L137.378 213.501L125.878 216.501L101.878 215.501L90.3784 209.501V192.001L90.8784 182.001L94.3784 177.501Z" fill="#060B1B"/>
<path d="M143.475 177.156C142.776 175.745 141.475 173.656 141.475 173.656C141.475 173.656 142.66 172.97 143.475 172.656C144.96 172.084 147.475 171.878 147.475 171.878L150.975 175.656C150.975 175.656 152.755 174.849 153.975 174.656C155.132 174.473 155.84 174.363 156.975 174.656C158.601 175.077 160.475 177.156 160.475 177.156C160.475 177.156 164.065 175.455 166.475 174.656C167.824 174.209 168.568 173.863 169.975 173.656C171.52 173.429 172.508 173.118 173.975 173.656C175.406 174.182 176.023 174.965 176.975 176.156C178.175 177.659 179.039 178.734 178.975 180.656C178.908 182.665 176.475 185.156 176.475 185.156L175.975 185.489C175.975 185.489 176.534 187.712 176.475 189.156C176.391 191.193 176.34 192.642 174.975 194.156C174.189 195.028 172.475 195.823 172.475 195.823C172.475 195.823 172.366 198.665 171.475 200.156C170.766 201.341 170.006 201.738 168.975 202.656C168.041 203.487 167.578 204.068 166.475 204.656C165.22 205.324 164.383 205.463 162.975 205.656C161.621 205.842 160.785 206.046 159.475 205.656C158.125 205.254 156.475 203.656 156.475 203.656C156.475 203.656 155.745 205.057 154.975 205.656C154 206.414 153.203 206.529 151.975 206.656C150.184 206.841 149.232 206.047 147.475 205.656C146.303 206.144 145.646 206.418 144.475 206.906C144.865 206.418 145.129 206.177 145.475 205.656C145.958 204.929 146.148 204.466 146.475 203.656C147.29 201.631 147.359 200.336 147.475 198.156C147.6 195.808 146.975 192.156 146.975 192.156L146.475 188.156C146.475 188.156 146.13 184.439 145.475 182.156C144.895 180.135 144.408 179.041 143.475 177.156Z" fill="#070C1E"/>
<path d="M141.475 173.656C141.475 173.656 136.675 171.845 133.475 171.156C130.397 170.494 128.619 170.323 125.475 170.156C123.135 170.032 121.305 169.905 118.975 170.156C116.385 170.435 112.975 171.156 112.975 171.156C112.975 171.156 111.558 171.596 110.975 171.656C109.747 171.783 109.842 171.853 108.475 172.156C106.718 172.547 105.736 172.783 103.975 173.156C102.027 173.569 100.82 173.908 98.9747 174.656C97.2675 175.348 96.4602 175.566 94.9751 176.656C93.7456 177.559 92.8261 178.391 91.9747 179.656C90.756 181.467 90.4751 183.156 90.4751 185.156C90.4751 186.956 90.6154 187.862 90.475 189.656C90.3068 191.806 90.3926 193.001 90.4747 195.156C90.5342 196.717 90.3937 197.596 90.4747 199.156C90.5665 200.922 90.4052 201.889 90.4747 203.656C90.5131 204.632 90.3464 205.188 90.4748 206.156C90.6944 207.81 91.3801 208.897 92.4747 210.156C93.5077 211.344 94.5521 211.982 95.9748 212.656C98.207 213.714 99.5751 214.072 101.975 214.656C104.47 215.264 105.916 215.441 108.475 215.656C111.588 215.918 113.351 216.156 116.475 216.156C119.013 216.156 120.446 215.873 122.975 215.656C125.342 215.454 128.975 214.656 128.975 214.656C128.975 214.656 132.396 213.953 134.475 213.156C136.513 212.375 139.475 210.656 139.475 210.656C139.475 210.656 142.206 209.492 143.475 208.156C143.905 207.703 144.084 207.394 144.475 206.906M141.475 173.656C141.475 173.656 142.776 175.745 143.475 177.156C144.408 179.041 144.895 180.135 145.475 182.156C146.13 184.439 146.475 188.156 146.475 188.156L146.975 192.156C146.975 192.156 147.6 195.808 147.475 198.156C147.359 200.336 147.29 201.631 146.475 203.656C146.148 204.466 145.958 204.929 145.475 205.656C145.129 206.177 144.865 206.418 144.475 206.906M141.475 173.656C141.475 173.656 142.66 172.97 143.475 172.656C144.96 172.084 147.475 171.878 147.475 171.878M147.475 171.878L150.975 175.656M147.475 171.878L151.225 170.767L154.975 169.656C154.975 169.656 157.153 169.307 158.475 169.656C160.04 170.07 161.245 170.433 161.975 171.878C162.941 173.791 160.475 177.156 160.475 177.156M150.975 175.656C150.975 175.656 150.588 177.167 150.475 178.156C150.319 179.514 150.211 180.315 150.475 181.656C150.761 183.115 151.975 185.156 151.975 185.156M150.975 175.656C150.975 175.656 152.755 174.849 153.975 174.656C155.132 174.473 155.84 174.363 156.975 174.656C158.601 175.077 160.475 177.156 160.475 177.156M151.975 185.156L150.475 188.156C150.475 188.156 149.582 189.61 149.475 190.656C149.33 192.07 150.475 194.156 150.475 194.156M151.975 185.156L156.975 186.156H160.475M150.475 194.156C150.475 194.156 153.184 194.974 154.975 195.156C156.529 195.315 158.975 195.156 158.975 195.156M150.475 194.156C150.475 194.156 149.061 196.49 148.975 198.156C148.913 199.342 149.032 200.054 149.475 201.156M158.975 195.156C158.975 195.156 158.698 193.295 158.975 192.156C159.436 190.259 161.975 188.156 161.975 188.156M158.975 195.156L160.975 197.656C160.975 197.656 163.108 197.656 164.475 197.656C166.232 197.656 167.279 198.119 168.975 197.656C170.238 197.312 171.975 196.156 171.975 196.156L172.475 195.823M161.975 188.156L160.475 186.156M161.975 188.156C161.975 188.156 164.717 188.156 166.475 188.156C168.623 188.156 169.932 188.82 171.975 188.156C173.76 187.576 175.975 185.489 175.975 185.489M160.475 186.156V183.656V179.656V177.156M160.475 177.156C160.475 177.156 164.065 175.455 166.475 174.656C167.824 174.209 168.568 173.863 169.975 173.656C171.52 173.429 172.508 173.118 173.975 173.656C175.406 174.182 176.023 174.965 176.975 176.156C178.175 177.659 179.039 178.734 178.975 180.656C178.908 182.665 176.475 185.156 176.475 185.156L175.975 185.489M175.975 185.489C175.975 185.489 176.534 187.712 176.475 189.156C176.391 191.193 176.34 192.642 174.975 194.156C174.189 195.028 172.475 195.823 172.475 195.823M160.475 197.656L156.475 203.656M156.475 203.656C156.475 203.656 154.619 203.907 153.475 203.656C151.675 203.262 151.037 202.132 149.475 201.156M156.475 203.656C156.475 203.656 155.745 205.057 154.975 205.656C154 206.414 153.203 206.529 151.975 206.656C150.184 206.841 149.232 206.047 147.475 205.656M156.475 203.656C156.475 203.656 158.125 205.254 159.475 205.656C160.785 206.046 161.621 205.842 162.975 205.656C164.383 205.463 165.22 205.324 166.475 204.656C167.578 204.068 168.041 203.487 168.975 202.656C170.006 201.738 170.766 201.341 171.475 200.156C172.366 198.665 172.475 195.823 172.475 195.823M149.475 201.156C149.475 202.132 149.825 202.745 149.475 203.656C149.078 204.687 148.506 205.26 147.475 205.656M147.475 205.656C146.303 206.144 145.646 206.418 144.475 206.906" stroke="#7EE3FF" stroke-width="2"/>
<line x1="167.218" y1="79.1844" x2="131.218" y2="170.184" stroke="white"/>
<line x1="186.217" y1="85.1872" x2="153.217" y2="167.187" stroke="white"/>
<line x1="206.218" y1="89.1852" x2="173.218" y2="172.185" stroke="white"/>
<line x1="149.892" y1="88.52" x2="229.892" y2="111.52" stroke="white"/>
<line x1="142.892" y1="105.52" x2="222.892" y2="128.52" stroke="white"/>
<line x1="134.892" y1="125.52" x2="214.892" y2="148.52" stroke="white"/>
<line x1="128.904" y1="144.524" x2="207.904" y2="169.524" stroke="white"/>
<line x1="162.221" y1="205.178" x2="154.221" y2="226.178" stroke="white"/>
<line x1="145.218" y1="207.186" x2="141.218" y2="217.186" stroke="white"/>
<line x1="226.219" y1="94.182" x2="173.219" y2="230.182" stroke="white"/>
<defs>
<linearGradient id="paint0_linear_3532_16192" x1="233.752" y1="73.4233" x2="215.407" y2="126.862" gradientUnits="userSpaceOnUse">
<stop stop-color="#D9D9D9" stop-opacity="0.05"/>
<stop offset="1" stop-color="#D7D7D7"/>
</linearGradient>
</defs>
</svg>
