<svg width="207" height="328" viewBox="0 0 207 328" fill="none" xmlns="http://www.w3.org/2000/svg">
<path d="M106.883 209.927C106.883 209.927 108.972 209.67 110.269 209.927C112.685 210.407 114.622 212.227 115.59 213.313M115.59 213.313C117.507 215.467 118.401 216.919 119.459 219.601C120.452 222.117 120.953 223.669 120.91 226.373C120.871 228.893 120.427 230.335 119.459 232.661C118.613 234.695 116.557 237.498 116.557 237.498M115.59 213.313C115.527 213.691 115.428 214.281 115.428 214.281M68.1866 242.336L80.2792 243.303L93.3392 242.336L94.9414 241.753M68.1866 242.336L64.5588 241.126M68.1866 242.336C68.1866 242.336 69.3039 245.529 69.6377 247.656C70.1061 250.642 70.1214 252.373 70.1214 255.395L69.6377 260.716M46.9036 213.313C47.2814 214.258 47.871 215.732 47.871 215.732C47.871 215.732 48.8905 219.91 49.8058 222.504C50.9037 225.615 51.6487 227.327 53.1917 230.243C54.5404 232.791 55.1409 234.38 57.0614 236.531C58.3988 238.029 60.931 239.917 60.931 239.917L64.5588 241.126M46.9036 213.313C48.037 212.558 48.5863 211.985 49.8058 211.379C52.062 210.256 56.094 209.927 56.094 209.927M46.9036 213.313C45.4707 214.77 44.7948 215.784 44.0013 217.667C42.8913 220.301 42.5856 222.064 42.5502 224.922C42.522 227.197 42.8684 228.547 43.5176 230.727C44.2667 233.242 46.9036 236.531 46.9036 236.531M46.9036 236.531H48.8384M46.9036 236.531C46.9036 236.531 44.0087 240.417 43.0339 243.303C42.2966 245.486 41.9786 249.107 41.9786 249.107V253.461M48.8384 236.531L47.871 233.145L47.3873 229.759V225.89L47.871 216.216M48.8384 236.531C48.8384 236.531 50.6254 238.947 52.2243 239.917C53.9106 240.94 55.1149 241.051 57.0614 241.368C59.9527 241.839 64.5588 241.126 64.5588 241.126M69.6377 260.716C69.6377 260.716 71.0946 262.179 71.5725 263.135C72.5399 265.07 72.5647 267.054 73.0236 269.907C73.5372 273.099 73.6788 274.911 73.991 278.13C74.6669 285.096 74.933 296.027 74.933 296.027M69.6377 260.716L65.5262 259.265L60.931 257.814M73.0236 316.826C75.1346 315.978 76.288 314.953 77.377 312.956C78.388 311.102 78.3444 307.635 78.3444 307.635C78.3444 307.635 78.6995 302.64 77.377 299.896C76.6714 298.432 74.9585 296.51 74.9585 296.51L74.933 296.027M73.0236 316.826C72.268 316.07 71.73 315.746 71.0888 314.891C69.6552 312.979 69.6435 311.425 69.154 309.087C68.8804 307.779 68.7812 307.032 68.6703 305.701C68.5134 303.818 68.6703 302.753 68.6703 300.864M73.0236 316.826C71.1347 318.337 70.0756 319.184 68.1866 320.695C66.2976 322.207 64.7 322.573 62.3821 323.598C59.9758 324.662 58.6531 325.405 56.094 326.016C52.5982 326.851 50.4976 326.482 46.9036 326.5C42.9323 326.52 40.6032 326.96 36.7458 326.016C34.1902 325.391 32.4789 325.282 30.4576 323.598C29.3242 322.653 28.6254 322.049 28.0391 320.695C27.2133 318.789 27.5554 314.891 27.5554 314.891L28.7042 310.054M68.6703 300.864C69.9926 300.486 70.8854 300.617 72.0562 299.896C73.6594 298.908 74.933 296.027 74.933 296.027M68.6703 300.864C68.0789 301.793 67.35 302.23 66.2518 302.315C65.4752 302.374 65.0515 302.09 64.317 301.831C62.39 301.151 59.9636 298.929 59.9636 298.929C59.9636 298.929 56.5234 297.174 54.1592 296.51C51.407 295.738 49.7568 295.718 46.9036 295.543C44.4525 295.393 43.039 295.147 40.6154 295.543C38.669 295.86 37.4397 295.931 35.7784 296.994C34.0869 298.076 33.3097 299.077 32.3924 300.864C32.3517 300.943 32.2903 301.068 32.2903 301.068M28.7042 310.054C28.7042 310.054 28.8097 308.567 29.0065 307.635C29.5995 304.83 32.2903 301.068 32.2903 301.068M28.7042 310.054C28.16 309.409 27.2835 307.504 27.0717 305.701C26.8721 304.002 27.3941 301.992 27.5554 301.347C27.5554 301.347 28.4046 298.231 29.4902 296.51C30.2774 295.263 31.9087 293.608 31.9087 293.608M31.9087 293.608L32.2903 301.068M31.9087 293.608L32.8761 281.999C32.8761 281.999 33.6716 272.97 35.2947 267.488C36.5199 263.35 39.1643 257.814 39.1643 257.814M39.1643 257.814C39.1643 257.814 38.1348 261.431 38.1969 264.102C38.2503 266.4 38.4477 267.723 39.1643 269.907C40.1141 272.801 40.6784 274.747 43.0339 276.678C44.933 278.235 46.3972 278.83 48.8384 279.097C52.1659 279.46 54.371 278.67 57.0614 276.678C59.9261 274.558 61.0979 272.412 61.8984 268.939C62.45 266.546 61.8984 262.651 61.8984 262.651L60.931 257.814M39.1643 257.814L41.9786 253.461M60.931 257.814C60.931 257.814 59.9442 254.918 58.5125 253.461C56.7867 251.703 55.5898 250.636 53.1917 250.075C51.5364 249.687 50.5233 249.848 48.8384 250.075C46.4703 250.393 43.5176 252.01 43.5176 252.01L41.9786 253.461M116.557 237.498L114.139 235.564L113.655 235.08M116.557 237.498L118.976 242.336C118.976 242.336 120.422 245.5 120.91 247.656C121.496 250.242 121.394 254.428 121.394 254.428M113.655 235.08C113.655 235.08 114.939 233.104 115.428 231.694C115.809 230.597 115.904 229.975 116.073 228.792C116.207 227.857 116.463 227.035 116.557 225.89C116.65 224.76 116.557 222.987 116.557 222.987L115.428 214.281M113.655 235.08C113.655 235.08 112.728 237.066 111.72 237.982C110.905 238.723 109.302 239.433 109.302 239.433L105.916 240.884C105.916 240.884 105.041 241.211 104.464 241.368C101.479 242.182 96.5435 241.17 96.5435 241.17M115.428 214.281L114.139 219.118L109.785 230.243C109.785 230.243 107.33 236.202 103.981 238.466C101.42 240.196 96.5435 241.17 96.5435 241.17M96.5435 241.17L94.9414 241.753M121.394 254.428L124.296 258.298L125.061 260.114M121.394 254.428C121.394 254.428 119.635 251.964 118.008 251.042C115.846 249.818 114.202 249.48 111.72 249.591C109.796 249.677 108.592 250.153 106.883 251.042C105.574 251.723 104.95 252.349 103.981 253.461C102.702 254.926 101.562 257.814 101.562 257.814M94.3066 301.831V308.603C94.1454 309.731 93.6295 312.279 92.8555 313.44C92.0816 314.601 90.5982 315.858 89.9533 316.342L93.3392 319.244L97.2089 321.663C97.2089 321.663 100.063 323.354 102.046 324.081C104.759 325.076 105.953 325.637 108.818 326.016C111.446 326.364 115.59 326.5 115.59 326.5H121.394C121.394 326.5 126.392 325.855 127.199 325.532C128.005 325.21 130.004 324.855 131.552 324.081C133.1 323.307 133.809 321.824 133.97 321.179L134.454 316.342V311.989C134.454 311.989 133.236 306.446 131.552 303.282C131.034 302.31 130.25 301.471 130.101 300.38C130.05 300.006 130.101 299.896 130.101 299.896M94.3066 301.831C94.3066 301.831 96.3901 302.059 97.6926 301.831C99.5252 301.51 102.046 299.896 102.046 299.896C102.046 299.896 105.434 297.759 107.85 296.994C110.219 296.244 111.661 296.207 114.139 296.027C116.399 295.862 119.943 296.027 119.943 296.027C119.943 296.027 122.639 295.649 124.296 296.027C126.953 296.632 130.101 299.896 130.101 299.896M94.3066 301.831C94.3066 301.831 91.3498 301.125 89.9533 299.896C88.6157 298.719 87.5348 296.027 87.5348 296.027M130.101 299.896V298.929V293.124M87.5348 296.027C87.5348 296.027 86.1428 298.729 85.6 300.864C85.1345 302.694 84.6326 304.249 84.6326 305.701C84.6326 307.813 84.822 309.058 85.6 311.021C86.6437 313.656 90.0402 316.429 90.0402 316.429M87.5348 296.027V290.706V284.901L88.5022 276.195L89.9533 267.972L91.4044 262.651L92.8555 260.716M134.454 311.021C134.454 311.021 135.211 308.752 135.422 307.152C135.645 305.456 135.422 302.798 135.422 302.798C135.422 302.798 135.069 300.075 134.454 298.445C134.007 297.259 133.774 296.549 133.003 295.543C132.106 294.372 130.101 293.124 130.101 293.124M130.101 293.124V289.738C130.101 289.093 130.004 285.772 129.617 277.646C129.23 269.52 127.682 267.004 127.682 267.004L125.061 260.114M92.8555 260.716L101.562 257.814M92.8555 260.716V253.944C92.8555 253.944 92.7618 251.289 92.8555 249.591C92.9498 247.883 92.8641 246.881 93.3392 245.238C93.7553 243.799 94.9414 241.753 94.9414 241.753M101.562 257.814C101.562 257.814 101.186 260.46 101.079 262.167C100.936 264.43 100.799 265.722 101.079 267.972C101.293 269.7 101.287 270.757 102.046 272.325C102.92 274.133 103.998 275.273 105.432 276.678C106.676 277.897 107.235 278.37 108.818 279.097C111.221 280.2 113.09 279.961 115.59 279.097C117.521 278.429 118.892 277.544 120.427 276.195C121.935 274.869 122.454 274.133 123.329 272.325C124.087 270.757 124.477 269.687 124.78 267.972C125.316 264.936 125.061 260.114 125.061 260.114M44.4683 136.888C44.4683 136.888 39.5361 136.026 35.7616 137.371M22.7127 158.171C22.4764 163.455 22.2295 166.394 22.7128 171.714C23.2791 177.948 24.6481 185.742 24.6481 185.742M24.6481 185.742C24.6481 185.742 22.5909 189.667 23.6807 193.481C24.6481 196.867 25.6155 197.351 25.6155 197.351M24.6481 185.742C24.6481 185.742 27.5503 184.291 31.9036 183.323C36.257 182.356 38.6755 182.84 40.6103 184.291C42.5451 185.742 43.2469 187.056 43.5126 189.612C43.7165 191.573 42.0614 194.449 42.0614 194.449C42.0614 194.449 41.3359 195.416 40.6103 195.9C39.8848 196.383 38.7163 197.22 34.3222 198.318C30.4528 199.285 27.0669 198.318 25.6155 197.351M25.6155 197.351L23.6807 204.123C23.6807 204.123 22.4789 210.879 22.2281 216.216C22.104 218.857 22.3026 221.824 22.7015 224.438C23.0891 226.978 23.2771 228.794 24.1526 231.21C24.9894 233.519 29.4902 236.65 29.4902 236.65L34.3104 237.982L45.4356 236.047" stroke="#7EE3FF" stroke-width="2"/>
<path d="M82.9551 3.90234C106.41 3.90237 120.682 13.1178 129.113 23.8779C137.561 34.659 140.193 47.0549 140.207 53.4805C138.75 66.4066 139.003 77.7114 139 87.3125C138.996 96.9838 138.727 104.818 136.326 111.029C133.966 117.136 129.509 121.748 120.862 124.863C112.149 128.002 99.2258 129.6 80.042 129.6C68.1427 129.6 58.293 129.599 50.1719 128.638C42.0571 127.677 35.7983 125.77 31.0225 122.054C26.2645 118.351 22.8574 112.756 20.6406 104.17C18.4191 95.5658 17.4121 84.0294 17.4121 68.543C17.4121 48.8282 22.1354 32.7049 32.5957 21.5117C43.0443 10.3311 59.3747 3.90234 82.9551 3.90234Z" stroke="#7EE3FF" stroke-width="2"/>
<path d="M78.6455 38.761C98.9715 38.761 111.523 40.7273 118.955 44.5305C122.606 46.399 124.957 48.6805 126.423 51.3557C127.891 54.0353 128.557 57.2718 128.566 61.2004C127.996 67.2656 128.397 73.9127 128.35 79.929C128.3 86.1362 127.79 91.887 125.563 96.843C121.267 106.408 109.994 114.088 78.6455 114.088C68.4375 114.088 60.0585 114.086 53.1641 113.393C46.2677 112.7 41.1099 111.334 37.2422 108.778C29.6712 103.774 26.1524 93.554 26.1523 70.9495C26.1523 63.861 27.003 58.413 28.7861 54.1995C30.545 50.0436 33.2455 47.0053 37.1406 44.7532C41.0903 42.4696 46.3404 40.954 53.2314 40.0227C60.1136 39.0926 68.5002 38.761 78.6455 38.761Z" stroke="#7EE3FF" stroke-width="4"/>
<path d="M80.0059 2.5C88.3898 2.5 92.7926 2.6891 95.3643 3.0293C96.6233 3.19587 97.3569 3.38906 97.8594 3.5752C97.87 3.57912 97.8802 3.58394 97.8906 3.58789C97.12 10.3623 96.998 15.1682 96.9258 18.5234C96.886 20.3724 96.8621 21.6412 96.7695 22.5879C96.7192 23.1029 96.6555 23.3992 96.6123 23.5576C96.595 23.5606 96.5762 23.5663 96.5557 23.5693C96.0613 23.6434 95.2534 23.6381 93.8027 23.543C91.0223 23.3606 86.6006 22.9102 80.0059 22.9102C75.7312 22.9102 71.5282 23.3103 68.1309 23.4961C64.5477 23.692 61.9577 23.6394 60.2051 23.0381C59.3979 22.7611 58.88 22.4014 58.5273 21.9766C58.175 21.5522 57.8475 20.8947 57.6953 19.7939C57.3741 17.47 57.895 13.6444 59.9512 7.47949C60.4575 5.96138 60.9454 5.10304 61.4785 4.54492C61.975 4.02522 62.6821 3.58791 63.9756 3.25391C65.3239 2.90581 67.1754 2.70387 69.8467 2.60156C72.5009 2.49992 75.8009 2.5 80.0059 2.5Z" fill="#030E21" stroke="#7EE3FF" stroke-width="5"/>
<path d="M10.3916 81.7282C10.3935 66.9913 12.8075 59.9224 15.099 56.5543C16.2221 54.9036 17.3131 54.1459 18.0821 53.7933C17.839 55.8279 17.6062 60.6154 17.6054 71.6095C17.6043 86.4054 19.0589 95.6455 20.3397 101.382C20.9756 104.231 21.5777 106.248 21.907 107.551C22.077 108.224 22.1665 108.677 22.1822 108.989C22.1918 109.181 22.1693 109.259 22.1604 109.281C21.6482 109.79 21.1745 109.971 20.7419 109.975C20.2898 109.978 19.7587 109.787 19.1498 109.317C17.913 108.36 16.5873 106.425 15.3403 103.698C12.8652 98.2854 10.8652 90.128 10.3916 81.7282Z" stroke="#7EE3FF" stroke-width="1.5"/>
<path d="M149.643 77.4443C149.641 62.7084 147.227 55.6394 144.935 52.2714C143.798 50.5993 142.693 49.8425 141.923 49.496C141.582 49.3428 141.298 49.2679 141.097 49.2296C141.005 49.5208 140.879 50.0615 140.748 51.0284C140.399 53.6129 140.042 58.9954 140.042 70.138C140.043 84.8964 139.644 93.4939 139.322 98.6501C139.16 101.246 139.022 102.921 138.96 104.11C138.929 104.727 138.921 105.169 138.937 105.498C139.161 105.29 139.441 105 139.764 104.614C140.807 103.367 142.179 101.326 143.571 98.6799C146.354 93.3933 149.171 85.7856 149.643 77.4443Z" stroke="#7EE3FF" stroke-width="1.5"/>
<path d="M75.9691 134.507C85.9902 134.575 91.2733 133.07 94.032 131.598C95.4084 130.863 96.1535 130.139 96.5497 129.624C96.5521 129.621 96.554 129.617 96.5565 129.614C96.5048 129.622 96.4512 129.63 96.3955 129.638C95.6143 129.747 94.4353 129.892 92.8375 130.044C89.6417 130.347 84.769 130.671 78.0474 130.757C73.5547 130.814 69.2506 130.536 66.1285 130.313C64.5613 130.2 63.3044 130.103 62.46 130.067C62.3551 130.063 62.2582 130.062 62.1694 130.06C63.1538 131.396 63.8952 132.198 65.425 132.809C67.2558 133.539 70.2127 133.992 75.9691 134.507Z" stroke="#7EE3FF"/>
<path d="M78.34 140.743C89.2447 140.466 95.0347 137.474 98.0936 134.626C99.6271 133.198 100.489 131.793 100.966 130.755C101.164 130.326 101.295 129.957 101.381 129.677C101.11 129.687 100.759 129.699 100.331 129.715C99.2099 129.759 97.5628 129.825 95.4575 129.914C91.2463 130.094 85.2013 130.369 77.8687 130.754C72.9537 131.011 68.4764 130.808 65.2916 130.643C63.6911 130.56 62.4362 130.487 61.6025 130.485C61.408 130.484 61.2458 130.489 61.1133 130.496C62.3395 132.904 63.6251 135.107 65.9573 136.876C68.4342 138.755 72.1468 140.186 78.34 140.743Z" stroke="#7EE3FF"/>
<path d="M109.768 199.769C109.768 199.769 90.6099 204.63 78.2534 203.629C67.7278 202.776 57.5362 200.253 53.1737 197.35" stroke="#7EE3FF" stroke-linecap="round"/>
<path d="M107.831 206.542C107.831 206.542 89.9359 211.124 78.7225 210.215C68.219 209.363 59.9446 207.509 55.5917 204.607" stroke="#7EE3FF" stroke-linecap="round"/>
<path d="M106.868 209.93C106.868 209.93 90.0252 216.643 78.8118 215.734C68.3082 214.882 60.914 212.348 56.561 209.446" stroke="#7EE3FF"/>
<path d="M2.08479 82.1913C2.2317 72.13 5.45348 66.1565 8.57129 62.7062C10.1375 60.973 11.6913 59.8616 12.8449 59.1862C12.9802 59.107 13.1101 59.0343 13.2337 58.9668C13.2171 59.0193 13.1991 59.0726 13.182 59.1272C12.831 60.2457 12.3632 61.8083 11.899 63.5829C10.9761 67.1111 10.044 71.5566 10.0941 75.0289C10.2451 85.4844 11.7976 92.3143 12.9361 96.5286C13.2162 97.5657 13.4799 98.4751 13.6758 99.1877C13.8784 99.9241 14.0136 100.469 14.0715 100.872C14.1045 101.102 14.1024 101.236 14.0969 101.308C14.0721 101.31 14.0403 101.313 14.0003 101.313C11.289 101.293 8.48795 99.4821 6.2447 96.1054C4.01537 92.7496 2.41094 87.941 2.08479 82.1913Z" stroke="#7EE3FF" stroke-width="1.5"/>
<path d="M157.947 77.9013C157.8 67.8404 154.579 61.8674 151.461 58.4171C149.895 56.6838 148.341 55.5726 147.187 54.8971C147.052 54.818 146.922 54.7452 146.798 54.6778C146.815 54.7303 146.833 54.7835 146.85 54.8381C147.201 55.9566 147.669 57.5183 148.133 59.2929C149.056 62.8211 149.988 67.2674 149.938 70.7399C149.787 81.2132 147.872 88.0451 146.366 92.2632C145.991 93.3136 145.642 94.1998 145.358 94.9278C145.069 95.6679 144.857 96.2176 144.736 96.632C144.697 96.7652 144.675 96.8726 144.659 96.9573C147.387 96.9146 150.527 95.0905 153.106 91.741C155.681 88.3969 157.622 83.6162 157.947 77.9013Z" stroke="#7EE3FF" stroke-width="1.5"/>
<path d="M49.3135 62.5562C49.9385 62.5562 50.5219 62.6067 51.0664 62.7036C46.5179 63.8229 43.0275 70.3558 43.0273 78.2476C43.0273 85.9285 46.334 92.3216 50.7041 93.6899C50.5432 93.7141 50.3787 93.7383 50.2109 93.7593C45.0039 93.7589 38.7627 87.8457 38.7627 79.1675C38.7627 70.4891 44.1064 62.5562 49.3135 62.5562Z" fill="#7EE3FF"/>
<path d="M100.028 62.5562C99.4029 62.5562 98.8192 62.6065 98.2744 62.7036C102.822 63.8235 106.312 70.3562 106.312 78.2476C106.312 85.928 103.006 92.3211 98.6367 93.6899C98.798 93.7142 98.9628 93.7383 99.1309 93.7593C104.338 93.759 110.579 87.8457 110.579 79.1675C110.579 70.4891 105.235 62.5562 100.028 62.5562Z" fill="#7EE3FF"/>
<ellipse cx="54.6252" cy="73.5236" rx="3.38593" ry="4.83703" fill="#7EE3FF"/>
<ellipse cx="3.38593" cy="4.83703" rx="3.38593" ry="4.83703" transform="matrix(-1 0 0 1 98.6221 68.6865)" fill="#7EE3FF"/>
<path d="M87.5703 94.4304C85.4672 97.4989 81.1561 99.6373 76.1494 99.7039C71.284 99.7685 67.0222 97.8605 64.7812 94.989C67.7055 96.5722 71.6554 97.5193 75.9922 97.4617C80.5526 97.401 84.6555 96.2417 87.5703 94.4304Z" fill="#7EE3FF"/>
<path d="M60.4296 129.15C60.4296 129.15 49.3044 131.568 45.9185 134.954C42.1193 138.753 42.7081 147.519 42.049 152.851C41.306 158.862 41.839 162.277 42.0493 168.33C42.2812 175.004 42.9342 178.893 44.9514 185.259C46.4578 190.013 48.821 195.426 51.7232 196.873C54.6254 198.319 68.1901 196.217 80.2617 196.873C92.4054 197.533 108.8 200.899 110.251 199.287C114.605 194.45 117.928 191.883 120.409 185.259C123.139 177.972 122.778 173.197 122.344 165.427C121.957 158.511 121.522 155.397 120.893 148.498C120.327 142.29 122.344 135.926 119.925 132.057C117.992 128.963 106.865 128.182 106.865 128.182" stroke="#7EE3FF" stroke-width="2"/>
<path d="M121.781 140.289L126.383 136.751M144.788 152.897C144.788 152.897 145.184 149.839 144.788 147.944C144.479 146.472 144.327 146.143 143.407 144.342C142.487 142.541 140.186 139.839 138.806 138.488C137.426 137.137 136.002 135.95 133.745 135.336C131.667 134.771 130.144 134.377 128.223 135.336C127.409 135.743 126.383 136.751 126.383 136.751M144.788 152.897C144.788 152.897 144.34 154.683 143.407 155.149C142.607 155.549 141.959 155.427 141.107 155.149C139.726 154.699 138.363 152.868 136.965 151.096C135.685 149.473 135.381 148.291 134.205 146.593C133.196 145.138 132.589 144.346 131.444 142.991M144.788 152.897C144.788 152.897 145.98 154.501 146.628 155.599C147.231 156.621 151.163 160.79 151.163 160.79M131.444 142.991C129.467 140.554 126.383 136.751 126.383 136.751M131.444 142.991C130.366 143.694 129.649 143.947 128.683 144.792C127.344 145.965 126.828 146.876 125.922 148.395C124.661 150.51 123.622 154.248 123.622 154.248L122.702 156.95C122.702 156.95 123.997 154.684 125.002 153.348C125.984 152.042 126.571 151.322 127.763 150.196C129.807 148.265 131.409 147.726 133.745 146.143M123.192 166.407L127.763 174.061C127.763 174.061 130.694 178.295 132.824 180.816C134.688 183.022 135.676 184.343 137.886 186.219C140.333 188.297 151.163 198.365 151.163 198.365" stroke="#7EE3FF" stroke-width="2"/>
<line y1="-0.5" x2="11.0301" y2="-0.5" transform="matrix(-0.263118 0.964764 -0.964764 -0.263116 109.283 199.286)" stroke="#7EE3FF"/>
<line y1="-0.5" x2="12.9068" y2="-0.5" transform="matrix(0.22486 0.974391 -0.974391 0.224859 53.1738 197.351)" stroke="#7EE3FF"/>
<path d="M44.4683 203.156L43.5477 203.547L44.4683 203.156ZM42.5031 189.063C42.4663 189.614 42.8833 190.09 43.4343 190.127C43.9854 190.164 44.4619 189.747 44.4986 189.196L43.5009 189.129L42.5031 189.063ZM40.5986 196.385C39.77 196.944 39.7699 196.944 39.7699 196.944C39.7699 196.944 39.7699 196.944 39.77 196.944C39.77 196.944 39.7701 196.945 39.7702 196.945C39.7704 196.945 39.7708 196.946 39.7714 196.946C39.7725 196.948 39.7742 196.951 39.7766 196.954C39.7813 196.961 39.7886 196.972 39.7981 196.986C39.8173 197.015 39.8458 197.058 39.8828 197.113C39.9568 197.225 40.0642 197.388 40.1972 197.593C40.4632 198.003 40.8302 198.578 41.2336 199.24C42.0478 200.575 42.983 202.216 43.5477 203.547L44.4683 203.156L45.3889 202.766C44.7641 201.293 43.7645 199.548 42.9411 198.198C42.5259 197.517 42.1485 196.926 41.8748 196.504C41.7379 196.293 41.6267 196.124 41.5494 196.008C41.5108 195.95 41.4806 195.904 41.4599 195.873C41.4496 195.858 41.4416 195.846 41.4361 195.838C41.4334 195.834 41.4313 195.831 41.4298 195.829C41.429 195.827 41.4285 195.827 41.4281 195.826C41.4278 195.826 41.4277 195.825 41.4276 195.825C41.4275 195.825 41.4274 195.825 41.4274 195.825C41.4273 195.825 41.4273 195.825 40.5986 196.385ZM44.4683 203.156L43.5477 203.547C44.2356 205.169 44.8246 207.394 45.2457 209.254C45.4544 210.175 45.6185 210.992 45.7304 211.579C45.7864 211.872 45.8291 212.107 45.8578 212.268C45.8722 212.348 45.883 212.41 45.8902 212.451C45.8937 212.472 45.8964 212.488 45.8982 212.498C45.899 212.503 45.8997 212.507 45.9001 212.509C45.9003 212.511 45.9004 212.511 45.9005 212.512C45.9006 212.512 45.9006 212.512 45.9006 212.512C45.9006 212.512 45.9006 212.512 45.9006 212.512C45.9006 212.512 45.9006 212.512 46.8868 212.347C47.873 212.181 47.873 212.181 47.873 212.181C47.873 212.181 47.8729 212.181 47.8729 212.181C47.8729 212.18 47.8728 212.18 47.8727 212.18C47.8726 212.179 47.8724 212.178 47.8721 212.176C47.8716 212.173 47.8708 212.168 47.8698 212.162C47.8678 212.15 47.8648 212.133 47.861 212.111C47.8532 212.066 47.8418 212.001 47.8268 211.917C47.7968 211.748 47.7526 211.506 47.695 211.204C47.5799 210.601 47.4111 209.761 47.1964 208.812C46.7705 206.931 46.1502 204.561 45.3889 202.766L44.4683 203.156ZM43.5009 189.129L44.4986 189.196L44.9824 181.94L43.9846 181.874L42.9868 181.807L42.5031 189.063L43.5009 189.129Z" fill="#7EE3FF"/>
<path d="M26.0869 234.113L27.538 242.82C27.538 242.82 28.3142 247.852 29.9566 250.559C31.8284 253.644 33.2837 255.771 36.7284 256.847C37.8252 257.19 39.6307 257.331 39.6307 257.331L41.5655 252.977C41.5655 252.977 38.0324 249.82 36.7284 247.173C35.0402 243.746 35.2773 238.466 35.2773 238.466L41.5655 237.015L44.4677 240.885" stroke="#7EE3FF" stroke-width="2"/>
<path d="M32.8593 146.079C34.4433 143.179 37.2124 139.788 37.2124 138.336C37.2124 137.069 35.5589 137.105 34.3105 136.888C32.3675 136.55 31.1597 137.317 29.4734 138.34C27.8744 139.309 27.3129 139.83 26.0872 141.242C24.849 142.669 24.0808 143.929 23.185 145.592C21.6205 148.496 21.0279 150.523 21.2501 153.815C21.4232 156.378 23.185 160.103 23.185 160.103C23.185 160.103 25.0733 158.069 26.0872 156.717C27.5386 154.782 27.5389 154.302 28.9897 152.367C30.7633 150.001 31.4421 148.674 32.8593 146.079Z" stroke="#7EE3FF" stroke-width="2"/>
<path d="M32.3755 146.563C32.3755 146.563 35.1054 148.225 36.7288 149.465C38.7481 151.008 40.5985 153.335 40.5985 153.335C40.5985 153.335 37.3382 153.209 34.794 152.851C32.5494 152.535 28.5059 152.851 28.5059 152.851" stroke="#7EE3FF" stroke-width="2"/>
<path d="M184.05 155.063C182.988 157.372 182.183 158.562 180.987 160.805C180.094 162.063 179.403 162.877 178.449 163.736C178.098 164.053 177.711 164.375 177.265 164.728C175.171 166.386 173.828 167.329 171.229 167.947C168.669 168.555 167.072 168.338 164.493 167.818C161.089 167.131 159.701 165.954 156.892 163.886C155.042 162.523 153.349 160.405 152.398 158.313C151.539 156.421 151.533 156.206 150.825 154.253C150.643 153.754 150.515 153.296 150.418 152.856C150.138 151.576 150.135 150.453 149.919 148.921C149.567 146.411 150.041 144.93 150.668 142.475C151.297 140.012 152.531 137.682 153.111 136.443C154.123 134.279 155.528 132.432 157.907 132.645C159.377 132.776 160.176 133.459 161.171 134.548C162.444 135.943 162.706 137.21 162.82 139.095C162.928 140.874 162.219 141.811 161.867 143.558C161.648 144.637 161.327 146.326 161.327 146.326C161.327 146.326 162.682 145.646 163.436 145.047C164.831 143.938 165.58 143.839 166.579 142.363C167.256 141.361 168.031 140.595 168.647 139.554C168.759 139.365 168.865 139.188 168.967 139.018C169.676 137.838 170.181 137.043 170.84 135.671C171.709 133.861 172.249 131.044 172.249 131.044C172.249 131.044 173.078 127.656 173.657 126.416C174.234 125.182 174.548 124.292 175.726 123.608C176.719 123.031 177.481 122.914 178.619 123.073C179.677 123.221 180.296 123.525 181.098 124.232C182.1 125.115 182.383 125.954 182.707 127.25C182.997 128.409 183.022 128.805 182.912 129.233C182.712 130.009 182.498 130.927 182.498 130.927L180.992 134.146C181.414 133.348 182.063 132.331 182.827 131.837C183.621 131.324 183.654 131.28 184.192 131.342C184.611 131.391 184.862 131.546 185.431 131.921C186.081 132.35 186.501 132.729 187 133.41C187.298 133.817 187.787 134.832 187.99 136.139C188.066 136.626 188.386 139.314 188.11 140.726C187.571 143.494 187.413 146.022 186.203 149.651C185.982 150.313 185.783 150.885 185.586 151.418C185.143 152.621 184.709 153.631 184.05 155.063Z" fill="#030E21"/>
<path d="M152.398 158.313C152.398 158.313 148.371 164.334 146.764 168.59C145.32 172.412 144.277 178.754 144.277 178.754C144.155 180.363 144.021 181.286 144.232 182.886C144.553 185.321 144.949 186.799 146.377 188.797C146.473 188.933 146.578 189.066 146.69 189.198M152.398 158.313C151.539 156.421 151.533 156.206 150.825 154.253C150.643 153.754 150.515 153.296 150.418 152.856M152.398 158.313C153.349 160.405 155.042 162.523 156.892 163.886C159.701 165.954 161.089 167.131 164.493 167.818C167.072 168.338 168.669 168.555 171.229 167.947C173.828 167.329 175.171 166.386 177.265 164.728C177.711 164.375 178.098 164.053 178.449 163.736M146.69 189.198C148.599 191.443 152.613 193.224 152.613 193.224C152.613 193.224 155.168 194.957 158.645 195.667C162.123 196.377 164.534 196.711 167.985 195.88C169.178 195.593 169.969 195.571 171.123 195.152M146.69 189.198C146.69 189.198 147.121 193.343 148.231 195.328C149.224 197.104 150.125 197.927 151.7 199.216C153.667 200.825 154.941 201.823 157.442 202.278C159.942 202.733 163.103 202.282 163.103 202.282C165.32 201.807 166.707 201.361 168.395 199.848C170.036 198.376 170.912 197.347 171.123 195.152M180.987 160.805C181.308 163.904 181.746 165.625 181.808 168.74C181.865 171.617 181.389 176.096 181.389 176.096C181.389 176.096 181.199 180.07 180.64 182.542C179.99 185.42 179.74 187.214 178.073 189.648C176.783 191.531 175.903 192.649 173.896 193.736C172.816 194.321 172.326 194.909 171.123 195.152M180.987 160.805C182.183 158.562 182.988 157.372 184.05 155.063C184.709 153.631 185.143 152.621 185.586 151.418M180.987 160.805C180.094 162.063 179.403 162.877 178.449 163.736M180.992 134.146C181.414 133.348 182.063 132.331 182.827 131.837C183.621 131.324 183.654 131.28 184.192 131.342C184.611 131.391 184.862 131.546 185.431 131.921C186.081 132.35 186.501 132.729 187 133.41C187.298 133.817 187.787 134.832 187.99 136.139C188.066 136.626 188.386 139.314 188.11 140.726C187.571 143.494 187.413 146.022 186.203 149.651C185.982 150.313 185.783 150.885 185.586 151.418M180.992 134.146C180.661 134.773 180.469 135.265 180.469 135.265M180.992 134.146L180.469 135.265M180.992 134.146L182.498 130.927C182.498 130.927 182.712 130.009 182.912 129.233C183.022 128.805 182.997 128.409 182.707 127.25C182.383 125.954 182.1 125.115 181.098 124.232C180.296 123.525 179.677 123.221 178.619 123.073C177.481 122.914 176.719 123.031 175.726 123.608C174.548 124.292 174.234 125.182 173.657 126.416C173.078 127.656 172.249 131.044 172.249 131.044C172.249 131.044 171.709 133.861 170.84 135.671C170.181 137.043 169.676 137.838 168.967 139.018M180.469 135.265L179.102 138.371M180.469 135.265L179.31 137.744L179.102 138.371M179.102 138.371L177.612 142.991M179.102 138.371L178.111 141.352L177.612 142.991M177.612 142.991L177.284 143.677M161.327 146.326C161.327 146.326 162.682 145.646 163.436 145.047C164.831 143.938 165.58 143.839 166.579 142.363C167.256 141.361 168.031 140.595 168.647 139.554C168.759 139.365 168.865 139.188 168.967 139.018M161.327 146.326C161.327 146.326 161.648 144.637 161.867 143.558C162.219 141.811 162.928 140.874 162.82 139.095C162.706 137.21 162.444 135.943 161.171 134.548C160.176 133.459 159.377 132.776 157.907 132.645C155.528 132.432 154.123 134.279 153.111 136.443C152.531 137.682 151.297 140.012 150.668 142.475C150.041 144.93 149.567 146.411 149.919 148.921C150.135 150.453 150.138 151.576 150.418 152.856M161.327 146.326L159.548 148.515L156.696 150.579L150.418 152.856M161.327 146.326C161.327 146.326 162.95 146.279 163.958 146.487C165.506 146.806 166.692 147.273 168.103 147.984C169.627 148.751 170.173 149.207 171.451 150.274L171.532 150.342C172.77 151.377 174.215 153.485 174.215 153.485C174.215 153.485 175.282 155.283 175.825 156.503C176.362 157.711 176.529 158.443 176.98 159.686L178.449 163.736M185.586 151.418C185.586 151.418 184.646 149.84 183.889 148.946C183.07 147.979 182.505 147.529 181.535 146.713C180.493 145.836 178.727 144.645 178.727 144.645L177.284 143.677M168.967 139.018C168.967 139.018 172.956 140.861 175.326 142.363C176.104 142.855 177.284 143.677 177.284 143.677" stroke="#7EE3FF" stroke-width="2"/>
<path d="M179.325 117.301C179.325 117.301 182.504 114.02 190.89 116.323C199.101 118.578 200.506 125.305 200.215 124.737" stroke="#7EE3FF" stroke-opacity="0.5"/>
<path d="M182.69 120.324C182.69 120.324 185.002 118.596 190.004 120.874C194.901 123.104 195.103 127.442 194.978 127.059" stroke="#7EE3FF" stroke-opacity="0.5"/>
</svg>
