<svg width="169" height="328" viewBox="0 0 169 328" fill="none" xmlns="http://www.w3.org/2000/svg">
<path d="M29.4995 173.5C29.4995 173.5 28.9597 171.136 27.9995 170C27.0903 168.925 26.358 168.371 24.9995 168C23.8692 167.692 21.9995 168 21.9995 168" stroke="#7EE3FF" stroke-width="2"/>
<path d="M110.483 206.001C110.483 206.001 112.642 205.735 113.983 206.001C116.48 206.496 118.483 208.377 119.483 209.501M119.483 209.501C121.465 211.727 122.389 213.228 123.483 216.001C124.509 218.601 125.027 220.205 124.983 223.001C124.942 225.605 124.483 227.095 123.483 229.501C122.608 231.603 120.483 234.501 120.483 234.501M119.483 209.501C119.418 209.891 119.316 210.501 119.316 210.501M70.4829 239.501L82.9829 240.501L96.4829 239.501L98.139 238.898M70.4829 239.501L66.7329 238.251M70.4829 239.501C70.4829 239.501 71.6378 242.801 71.9829 245.001C72.467 248.087 72.4829 249.876 72.4829 253.001L71.9829 258.501M48.4829 209.501C48.8734 210.477 49.4829 212.001 49.4829 212.001C49.4829 212.001 50.5367 216.32 51.4829 219.001C52.6177 222.216 53.3878 223.986 54.9829 227.001C56.3769 229.635 56.9977 231.277 58.9829 233.501C60.3653 235.049 62.9829 237.001 62.9829 237.001L66.7329 238.251M48.4829 209.501C49.6544 208.719 50.2223 208.128 51.4829 207.501C53.8151 206.34 57.9829 206.001 57.9829 206.001M48.4829 209.501C47.0017 211.006 46.303 212.054 45.4829 214.001C44.3354 216.724 44.0195 218.546 43.9829 221.501C43.9537 223.852 44.3117 225.247 44.9829 227.501C45.7572 230.1 48.4829 233.501 48.4829 233.501M48.4829 233.501H50.4829M48.4829 233.501C48.4829 233.501 45.4904 237.518 44.4829 240.501C43.7207 242.757 43.3919 246.501 43.3919 246.501V251.001M50.4829 233.501L49.4829 230.001L48.9829 226.501V222.501L49.4829 212.501M50.4829 233.501C50.4829 233.501 52.33 235.998 53.9829 237.001C55.726 238.058 56.9708 238.173 58.9829 238.501C61.9716 238.987 66.7329 238.251 66.7329 238.251M71.9829 258.501C71.9829 258.501 73.4889 260.013 73.9829 261.001C74.9829 263.001 75.0084 265.052 75.4829 268.001C76.0137 271.3 76.1601 273.174 76.4829 276.501C77.1815 283.701 77.4565 295.001 77.4565 295.001M71.9829 258.501L67.7329 257.001L62.9829 255.501M75.4829 316.501C77.6649 315.625 78.8572 314.565 79.9829 312.501C81.028 310.584 80.9829 307.001 80.9829 307.001C80.9829 307.001 81.35 301.837 79.9829 299.001C79.2535 297.487 77.4829 295.501 77.4829 295.501L77.4565 295.001M75.4829 316.501C74.7018 315.719 74.1456 315.384 73.4829 314.501C72.0009 312.525 71.9888 310.918 71.4829 308.501C71.2 307.149 71.0975 306.376 70.9829 305.001C70.8207 303.055 70.9829 301.953 70.9829 300.001M75.4829 316.501C73.5302 318.063 72.4355 318.938 70.4829 320.501C68.5302 322.063 66.8788 322.441 64.4829 323.501C61.9955 324.6 60.6282 325.369 57.9829 326.001C54.3693 326.863 52.1979 326.482 48.4829 326.501C44.3778 326.521 41.9703 326.977 37.9829 326.001C35.3412 325.354 33.5723 325.242 31.4829 323.501C30.3112 322.524 29.5889 321.9 28.9829 320.501C28.1293 318.53 28.4829 314.501 28.4829 314.501L29.6704 309.501M70.9829 300.001C72.3497 299.61 73.2726 299.746 74.4829 299.001C76.1401 297.98 77.4565 295.001 77.4565 295.001M70.9829 300.001C70.3716 300.961 69.6181 301.413 68.4829 301.501C67.6801 301.562 67.2421 301.268 66.4829 301.001C64.491 300.298 61.9829 298.001 61.9829 298.001C61.9829 298.001 58.4268 296.187 55.9829 295.501C53.138 294.702 51.4322 294.681 48.4829 294.501C45.9492 294.345 44.4881 294.092 41.9829 294.501C39.9709 294.829 38.7001 294.902 36.9829 296.001C35.2344 297.119 34.431 298.154 33.4829 300.001C33.4407 300.083 33.3773 300.212 33.3773 300.212M29.6704 309.501C29.6704 309.501 29.7794 307.963 29.9829 307.001C30.5958 304.1 33.3773 300.212 33.3773 300.212M29.6704 309.501C29.1079 308.834 28.2018 306.865 27.9829 305.001C27.7766 303.244 28.3162 301.167 28.4829 300.501C28.4829 300.501 29.3607 297.279 30.4829 295.501C31.2966 294.211 32.9829 292.501 32.9829 292.501M32.9829 292.501L33.3773 300.212M32.9829 292.501L33.9829 280.501C33.9829 280.501 34.8051 271.167 36.4829 265.501C37.7494 261.223 40.4829 255.501 40.4829 255.501M40.4829 255.501C40.4829 255.501 39.4187 259.24 39.4829 262.001C39.5381 264.375 39.7421 265.744 40.4829 268.001C41.4647 270.992 42.0479 273.004 44.4829 275.001C46.4459 276.61 47.9594 277.225 50.4829 277.501C53.9225 277.876 56.2018 277.059 58.9829 275.001C61.9441 272.809 63.1554 270.591 63.9829 267.001C64.553 264.527 63.9829 260.501 63.9829 260.501L62.9829 255.501M40.4829 255.501L43.3919 251.001M62.9829 255.501C62.9829 255.501 61.9628 252.507 60.4829 251.001C58.6989 249.184 57.4617 248.081 54.9829 247.501C53.2718 247.1 52.2246 247.267 50.4829 247.501C48.0349 247.829 44.9829 249.501 44.9829 249.501L43.3919 251.001M120.483 234.501L117.983 232.501L117.483 232.001M120.483 234.501L122.983 239.501C122.983 239.501 124.478 242.771 124.983 245.001C125.588 247.673 125.483 252.001 125.483 252.001M117.483 232.001C117.483 232.001 118.81 229.958 119.316 228.501C119.71 227.367 119.808 226.723 119.983 225.501C120.121 224.534 120.386 223.684 120.483 222.501C120.579 221.333 120.483 219.501 120.483 219.501L119.316 210.501M117.483 232.001C117.483 232.001 116.525 234.053 115.483 235.001C114.64 235.766 112.983 236.501 112.983 236.501L109.483 238.001C109.483 238.001 108.579 238.338 107.983 238.501C104.897 239.342 99.795 238.296 99.795 238.296M119.316 210.501L117.983 215.501L113.483 227.001C113.483 227.001 110.945 233.161 107.483 235.501C104.836 237.289 99.795 238.296 99.795 238.296M99.795 238.296L98.139 238.898M125.483 252.001L128.483 256.001L129.273 257.878M125.483 252.001C125.483 252.001 123.665 249.453 121.983 248.501C119.748 247.235 118.049 246.886 115.483 247.001C113.494 247.09 112.249 247.581 110.483 248.501C109.13 249.204 108.485 249.851 107.483 251.001C106.162 252.516 104.983 255.501 104.983 255.501M97.4829 301.001V308.001C97.3162 309.167 96.7829 311.801 95.9829 313.001C95.1829 314.201 93.6495 315.501 92.9829 316.001L96.4829 319.001L100.483 321.501C100.483 321.501 103.433 323.249 105.483 324.001C108.287 325.029 109.522 325.608 112.483 326.001C115.2 326.36 119.483 326.501 119.483 326.501H125.483C125.483 326.501 130.65 325.834 131.483 325.501C132.316 325.167 134.383 324.801 135.983 324.001C137.583 323.201 138.316 321.667 138.483 321.001L138.983 316.001V311.501C138.983 311.501 137.724 305.771 135.983 302.501C135.448 301.496 134.637 300.629 134.483 299.501C134.43 299.114 134.483 299.001 134.483 299.001M97.4829 301.001C97.4829 301.001 99.6365 301.236 100.983 301.001C102.877 300.669 105.483 299.001 105.483 299.001C105.483 299.001 108.985 296.791 111.483 296.001C113.931 295.225 115.421 295.187 117.983 295.001C120.32 294.83 123.983 295.001 123.983 295.001C123.983 295.001 126.769 294.61 128.483 295.001C131.229 295.626 134.483 299.001 134.483 299.001M97.4829 301.001C97.4829 301.001 94.4264 300.271 92.9829 299.001C91.6001 297.783 90.4829 295.001 90.4829 295.001M134.483 299.001V298.001V292.001M90.4829 295.001C90.4829 295.001 89.0439 297.794 88.4829 300.001C88.0017 301.893 87.4829 303.501 87.4829 305.001C87.4829 307.184 87.6787 308.471 88.4829 310.501C89.5618 313.224 93.0726 316.09 93.0726 316.09M90.4829 295.001V289.501V283.501L91.4829 274.501L92.9829 266.001L94.4829 260.501L95.9829 258.501M138.983 310.501C138.983 310.501 139.765 308.155 139.983 306.501C140.214 304.748 139.983 302.001 139.983 302.001C139.983 302.001 139.618 299.185 138.983 297.501C138.521 296.275 138.28 295.54 137.483 294.501C136.555 293.29 134.483 292.001 134.483 292.001M134.483 292.001V288.501C134.483 287.834 134.383 284.401 133.983 276.001C133.583 267.601 131.983 265.001 131.983 265.001L129.273 257.878M95.9829 258.501L104.983 255.501M95.9829 258.501V251.501C95.9829 251.501 95.886 248.755 95.9829 247.001C96.0803 245.235 95.9917 244.199 96.4829 242.501C96.913 241.013 98.139 238.898 98.139 238.898M104.983 255.501C104.983 255.501 104.594 258.236 104.483 260.001C104.335 262.339 104.194 263.675 104.483 266.001C104.705 267.787 104.699 268.88 105.483 270.501C106.387 272.369 107.5 273.548 108.983 275.001C110.269 276.26 110.847 276.75 112.483 277.501C114.967 278.641 116.899 278.394 119.483 277.501C121.479 276.811 122.897 275.895 124.483 274.501C126.042 273.13 126.579 272.369 127.483 270.501C128.267 268.88 128.67 267.773 128.983 266.001C129.537 262.862 129.273 257.878 129.273 257.878" stroke="#7EE3FF" stroke-width="2"/>
<path d="M85.7852 4C110.061 4 124.828 13.035 133.542 23.5664C142.27 34.1147 144.985 46.2352 145 52.5078C143.495 65.1634 143.757 76.2321 143.753 85.627C143.749 95.0954 143.469 102.751 140.993 108.817C138.56 114.78 133.956 119.303 124.997 122.359C115.977 125.436 102.607 127 82.7744 127C70.476 127 60.2885 126.998 51.8877 126.057C43.4905 125.115 37.0081 123.246 32.0625 119.602C27.1406 115.974 23.6239 110.501 21.3359 102.109C19.042 93.6956 18.001 82.4105 18.001 67.2539C18.001 47.9718 22.8779 32.2026 33.6865 21.25C44.4925 10.3003 61.39 4.00007 85.7852 4Z" stroke="#7EE3FF" stroke-width="2"/>
<path d="M83.3281 39C104.341 39 117.334 41.0073 125.035 44.9004C128.821 46.8145 131.26 49.1523 132.779 51.8916C134.301 54.6353 134.99 57.9464 134.998 61.9629C134.409 68.1532 134.824 74.9353 134.774 81.0781C134.724 87.4163 134.195 93.2927 131.892 98.3584C127.438 108.151 115.749 116 83.3281 116C72.7777 116 64.1108 115.998 56.9785 115.29C49.8436 114.582 44.4965 113.184 40.4834 110.564C32.632 105.438 28.999 94.9836 28.999 71.9092C28.999 64.6703 29.8785 59.1046 31.7236 54.7979C33.5441 50.5488 36.3415 47.4365 40.3818 45.1289C44.4769 42.7901 49.9166 41.2408 57.0459 40.2891C64.166 39.3386 72.8399 39 83.3281 39Z" stroke="#7EE3FF" stroke-width="4"/>
<path d="M83.7349 2.5C92.4014 2.5 96.9459 2.71021 99.5972 3.08691C100.893 3.27111 101.647 3.48424 102.163 3.68945C102.221 3.71276 102.277 3.73943 102.333 3.76367C101.512 11.408 101.384 16.8114 101.309 20.5752C101.268 22.6192 101.244 24.0497 101.146 25.1221C101.098 25.6459 101.039 26.0058 100.976 26.2549C100.958 26.3255 100.94 26.3807 100.925 26.4238C100.898 26.4293 100.867 26.4382 100.829 26.4443C100.329 26.5248 99.5041 26.5208 98.0034 26.415C95.1321 26.2127 90.5561 25.7119 83.7349 25.7119C79.3124 25.7119 74.9599 26.1564 71.4536 26.3623C67.75 26.5798 65.0901 26.5209 63.2925 25.8584C62.4696 25.5551 61.9164 25.1526 61.5229 24.6436C61.1223 24.1251 60.7585 23.3284 60.5923 22.0371C60.2465 19.3495 60.8121 15.0206 62.9399 8.16797C63.4732 6.45078 63.9977 5.4487 64.5825 4.79102C65.1218 4.18468 65.8646 3.70048 67.186 3.33398C68.5717 2.94968 70.4778 2.7258 73.2368 2.6123C75.9781 2.49954 79.3874 2.5 83.7349 2.5Z" fill="#030E21" stroke="#7EE3FF" stroke-width="5"/>
<path d="M10.7155 73.4819C10.7179 58.2673 13.7141 50.9778 16.5621 47.4989C17.638 46.1848 18.7 45.4058 19.5889 44.9418C19.2515 46.0586 18.9391 47.7186 18.6996 50.1755C18.4126 53.1187 18.2236 57.2461 18.2232 63.0221C18.222 78.2943 19.1045 87.4451 19.8026 92.9728C20.1553 95.7657 20.4487 97.5511 20.5677 98.7907C20.6265 99.4036 20.6344 99.8114 20.5985 100.092C20.5644 100.358 20.4996 100.438 20.4681 100.47C19.9058 101.033 19.4249 101.243 19.0303 101.272C18.6415 101.301 18.2055 101.163 17.7087 100.763C16.6762 99.9319 15.607 98.1434 14.6195 95.5011C12.6664 90.275 11.2059 82.2018 10.7155 73.4819Z" stroke="#7EE3FF" stroke-width="1.5"/>
<path d="M154.686 69.053C154.683 53.8407 151.577 46.6701 148.633 43.303C147.167 41.6253 145.724 40.8708 144.678 40.5296C144.442 40.4527 144.225 40.3985 144.031 40.3574C144.09 40.7208 144.15 41.1864 144.207 41.7855C144.461 44.4425 144.711 49.9732 144.712 61.4998C144.713 76.7552 144.3 85.6418 143.967 90.9711C143.8 93.6536 143.656 95.386 143.592 96.6153C143.557 97.2872 143.553 97.7585 143.572 98.1057C143.813 97.8883 144.115 97.575 144.468 97.1534C145.548 95.8628 146.967 93.7512 148.407 91.0145C151.284 85.5475 154.198 77.6799 154.686 69.053Z" stroke="#7EE3FF" stroke-width="1.5"/>
<path d="M81.3634 132.544C92.672 132.202 97.5626 130.443 99.6289 128.871C100.644 128.099 100.96 127.386 101.051 126.915C101.084 126.739 101.088 126.588 101.08 126.469C100.885 126.452 100.609 126.429 100.248 126.404C99.4309 126.349 98.1812 126.282 96.4601 126.238C93.0177 126.149 87.6899 126.149 80.1642 126.505C75.1295 126.743 71.3409 126.739 68.8757 126.739C67.7715 126.739 66.9485 126.743 66.395 126.766C66.9199 127.39 67.3774 128.002 67.8094 128.513C68.4019 129.213 69.0312 129.835 69.9482 130.376C71.7967 131.467 74.8944 132.279 81.3634 132.544Z" stroke="#7EE3FF"/>
<path d="M113.463 195.5C113.463 195.5 93.6599 200.525 80.8872 199.49C70.007 198.609 59.4721 196.001 54.9626 193" stroke="#7EE3FF" stroke-linecap="round"/>
<path d="M111.461 202.499C111.461 202.499 92.9634 207.236 81.3722 206.296C70.5148 205.416 61.9617 203.499 57.4621 200.499" stroke="#7EE3FF" stroke-linecap="round"/>
<path d="M110.464 206.001C110.464 206.001 93.0545 212.94 81.4634 212C70.606 211.12 62.9626 208.501 58.463 205.501" stroke="#7EE3FF"/>
<path d="M2.1301 73.96C2.28176 63.5531 5.6146 57.3726 8.84196 53.801C10.463 52.0071 12.0707 50.8565 13.2652 50.1572C13.4252 50.0635 13.5781 49.9787 13.7222 49.9008C13.6991 49.9737 13.6739 50.0488 13.6497 50.1259C13.287 51.2817 12.8048 52.896 12.3251 54.7297C11.3713 58.3765 10.4076 62.9689 10.4593 66.5547C10.6153 77.3599 12.22 84.4181 13.3963 88.7728C13.686 89.845 13.9579 90.7842 14.1607 91.5215C14.37 92.2826 14.5103 92.8471 14.5704 93.266C14.608 93.5282 14.6029 93.6727 14.5953 93.7438C14.5662 93.7469 14.5263 93.7501 14.4723 93.7497C11.658 93.7291 8.75582 91.8504 6.43438 88.356C4.12694 84.8827 2.4674 79.9072 2.1301 73.96Z" stroke="#7EE3FF" stroke-width="1.5"/>
<path d="M163.271 69.5264C163.119 59.1196 159.786 52.939 156.559 49.3674C154.938 47.5736 153.33 46.4229 152.136 45.7236C151.976 45.63 151.823 45.5451 151.679 45.4672C151.702 45.5402 151.727 45.6152 151.751 45.6923C152.114 46.8482 152.596 48.4623 153.076 50.2961C154.03 53.9429 154.993 58.5353 154.941 62.1211C154.785 72.9444 152.807 80.0045 151.251 84.3626C150.864 85.448 150.503 86.3636 150.209 87.1162C149.91 87.8808 149.69 88.4492 149.565 88.8789C149.52 89.034 149.495 89.1561 149.48 89.2497C152.317 89.2185 155.583 87.3249 158.261 83.8467C160.925 80.3857 162.934 75.4388 163.271 69.5264Z" stroke="#7EE3FF" stroke-width="1.5"/>
<path d="M53.9048 66C54.5522 66 55.1564 66.0387 55.7202 66.1133C51.0168 66.9693 47.4068 71.9781 47.4067 78.0283C47.4067 83.9106 50.8196 88.8062 55.3315 89.8604C55.1685 89.8784 55.0023 89.8993 54.8325 89.915C49.4501 89.9149 42.9985 85.3829 42.9985 78.7314C42.9988 72.0801 48.5224 66 53.9048 66Z" fill="#7EE3FF"/>
<path d="M103.819 67C103.17 67 102.564 67.0364 101.998 67.1055C106.704 67.8903 110.317 72.4975 110.317 78.0654C110.317 83.4792 106.901 87.9824 102.386 88.9492C102.551 88.9661 102.719 88.9853 102.892 89C108.274 88.9998 114.726 84.8307 114.726 78.7119C114.725 72.5932 109.202 67 103.819 67Z" fill="#7EE3FF"/>
<ellipse cx="3.5" cy="4.5" rx="3.5" ry="4.5" transform="matrix(-1 0 0 1 103.999 76)" fill="url(#paint0_linear_3499_19843)"/>
<ellipse cx="58.1396" cy="80.5" rx="3.5" ry="4.5" fill="url(#paint1_linear_3499_19843)"/>
<path d="M102.64 79.5001C102.758 80.5983 102.485 81.0167 102.64 81C102.795 80.9833 103.202 80 103.146 79.4857C103.084 78.9064 102.64 78 102.14 77.9999C101.978 77.9999 102.521 78.4019 102.64 79.5001Z" fill="white"/>
<path d="M55.9996 79.5001C55.8809 80.5983 56.1539 81.0167 55.999 81C55.8442 80.9833 55.4373 80 55.4928 79.4857C55.5554 78.9064 55.999 78 56.499 77.9999C56.6611 77.9999 56.1182 78.4019 55.9996 79.5001Z" fill="white"/>
<path d="M100.573 83.2573C100.173 83.262 99.6625 82.8246 99.6677 83.268C99.6729 83.7114 100.182 84.0649 100.582 84.0602C100.982 84.0555 101.483 83.6901 101.477 83.2467C101.472 82.8033 100.972 83.2526 100.573 83.2573Z" fill="white"/>
<path d="M58.0656 83.2576C58.4654 83.2623 58.9757 82.8248 58.9705 83.2682C58.9653 83.7116 58.456 84.0651 58.0562 84.0604C57.6564 84.0557 57.1556 83.6904 57.1608 83.2469C57.166 82.8035 57.6659 83.2529 58.0656 83.2576Z" fill="white"/>
<path d="M92.5527 102C90.3784 105.171 85.9227 107.381 80.748 107.45C75.7196 107.517 71.3157 105.544 68.999 102.577C72.0216 104.213 76.1032 105.191 80.585 105.132C85.2985 105.069 89.5398 103.872 92.5527 102Z" fill="#7EE3FF"/>
<path d="M58.4987 127C58.4987 127 50.9636 125 47.4636 128.5C43.5364 132.427 44.145 141.488 43.4637 147C42.6957 153.213 43.2466 156.743 43.464 163C43.7038 169.899 44.3787 173.919 46.4639 180.5C48.021 185.414 50.4638 191.009 53.4638 192.505C56.4638 194 70.4855 191.826 82.9638 192.505C95.5166 193.187 112.464 196.667 113.964 195C118.464 190 121.899 187.346 124.464 180.5C127.286 172.967 126.913 168.031 126.464 160C126.064 152.85 125.614 149.631 124.964 142.5C124.379 136.083 126.464 129.505 123.964 125.505C121.965 122.307 109.997 125.504 109.997 125.504" stroke="#7EE3FF" stroke-width="2"/>
<path d="M45.5786 132.145L40.5786 128.217M20.5787 146.145C20.5787 146.145 20.1474 142.749 20.5787 140.645C20.9136 139.011 21.0787 138.645 22.0787 136.645C23.0787 134.645 25.5786 131.645 27.0786 130.145C28.5786 128.645 30.1258 127.327 32.5786 126.645C34.8361 126.017 36.4917 125.58 38.5786 126.645C39.4633 127.097 40.5786 128.217 40.5786 128.217M20.5787 146.145C20.5787 146.145 21.0645 148.128 22.0787 148.645C22.9483 149.089 23.6525 148.954 24.5786 148.645C26.0786 148.145 27.5597 146.112 29.0786 144.145C30.4703 142.343 30.8005 141.03 32.0786 139.145C33.1746 137.529 33.8341 136.65 35.0786 135.145M20.5787 146.145C20.5787 146.145 21.5435 147.645 21.5435 149.146C21.5435 150.455 20.0308 160.646 20.0308 160.646C20.0308 160.646 19.677 164.161 17.9985 165M35.0786 135.145C37.2265 132.439 40.5786 128.217 40.5786 128.217M35.0786 135.145C36.2502 135.926 37.0293 136.206 38.0786 137.145C39.5338 138.447 40.0946 139.459 41.0786 141.145C42.4492 143.494 43.5786 147.645 43.5786 147.645L44.5786 150.645C44.5786 150.645 43.1705 148.129 42.0786 146.645C41.0115 145.195 40.3737 144.396 39.0786 143.145C36.8575 141.001 35.117 140.403 32.5786 138.645M40.9985 187C41.4985 184.5 41.9985 178.5 42.4985 175.5C42.9985 172.5 43.2315 168 43.5786 167.5C43.5786 167.5 39.8398 164.485 36.9985 163.5C34.572 162.659 33.0653 162.588 30.4985 162.5C27.1892 162.386 25.2672 162.607 22.0787 163.5C20.4439 163.958 17.9985 165 17.9985 165M17.9985 165C16.9985 165.5 15.1037 165.947 13.9985 166.5C11.9995 167.5 11.5562 167.746 9.49854 169.146C7.99854 170.166 4.57959 176.645 3.99951 179.645C3.59182 181.754 2.99935 185.498 2.9985 187.646C2.99656 192.527 2.62218 192.962 3.99951 197.645C4.86178 200.577 5.8233 202.088 7.49756 204.645C8.86779 206.737 9.64875 207.323 11.4985 208.5C12.84 209.354 13.0677 209.297 15.4985 210.5C18.3368 211.904 22.4985 211.856 25.4985 211.5C29.3487 211.043 31.471 210.922 34.4985 208.5C36.9985 206.5 38.4985 200.5 38.4985 200.5" stroke="#7EE3FF" stroke-width="2"/>
<path d="M124.651 129.145L129.651 125.217M149.651 143.145C149.651 143.145 150.083 139.749 149.651 137.645C149.316 136.011 149.151 135.645 148.151 133.645C147.151 131.645 144.651 128.645 143.151 127.145C141.651 125.645 140.104 124.327 137.651 123.645C135.394 123.017 133.738 122.58 131.651 123.645C130.767 124.097 129.651 125.217 129.651 125.217M149.651 143.145C149.651 143.145 149.166 145.128 148.151 145.645C147.282 146.089 146.578 145.954 145.651 145.645C144.151 145.145 142.67 143.112 141.151 141.145C139.76 139.343 139.429 138.03 138.151 136.145C137.055 134.529 136.396 133.65 135.151 132.145M149.651 143.145C149.651 143.145 148.686 144.645 148.686 146.146C148.686 147.455 150.199 157.646 150.199 157.646C150.199 157.646 150.553 161.161 152.231 162M135.151 132.145C133.003 129.439 129.651 125.217 129.651 125.217M135.151 132.145C133.98 132.926 133.201 133.206 132.151 134.145C130.696 135.447 130.135 136.459 129.151 138.145C127.781 140.494 126.651 144.645 126.651 144.645L125.651 147.645C125.651 147.645 127.059 145.129 128.151 143.645C129.218 142.195 129.856 141.396 131.151 140.145C133.372 138.001 135.113 137.403 137.651 135.645M129.231 184C128.731 181.5 128.231 175.5 127.731 172.5C127.231 169.5 126.998 165 126.651 164.5C126.651 164.5 130.39 161.485 133.231 160.5C135.658 159.659 137.165 159.588 139.731 159.5C143.041 159.386 144.963 159.607 148.151 160.5C149.786 160.958 152.231 162 152.231 162M152.231 162C153.231 162.5 155.126 162.947 156.231 163.5C158.23 164.5 158.674 164.746 160.731 166.146C162.231 167.166 165.65 173.645 166.23 176.645C166.638 178.754 167.231 182.498 167.231 184.646C167.233 189.527 167.608 189.962 166.23 194.645C165.368 197.577 164.407 199.088 162.732 201.645C161.362 203.737 160.581 204.323 158.731 205.5C157.39 206.354 157.162 206.297 154.731 207.5C151.893 208.904 147.731 208.856 144.731 208.5C140.881 208.043 138.759 207.922 135.731 205.5C133.231 203.5 131.731 197.5 131.731 197.5" stroke="#7EE3FF" stroke-width="2"/>
<path d="M14.6396 90L155.64 86.5L130.64 215H42.1396L14.6396 90Z" fill="url(#paint2_linear_3499_19843)" fill-opacity="0.5"/>
<path opacity="0.6" d="M21.499 121H148.999L135.499 228H34.499L21.499 121Z" fill="#7EE3FF"/>
<path d="M24.6396 122H152.14L138.64 229H37.6396L24.6396 122Z" fill="white" fill-opacity="0.5"/>
<path d="M19.2303 173.415L16.9991 173.415C16.3736 173.415 15.6095 173.757 14.8886 174.245C13.9749 174.862 13.1306 175.713 12.7263 176.395C11.8834 177.817 11.6373 179.003 12.12 180.584C12.4968 181.818 12.081 181.828 12.081 181.828C12.081 181.828 11.0639 183.121 10.644 184.074C10.1797 185.127 9.9302 186.934 9.9302 186.934C9.9302 186.934 9.57117 188.898 10.0417 190C10.2248 190.429 10.6597 191.022 10.6597 191.022L11.1038 192.25C11.1038 192.25 10.6597 194.695 10.9991 196C11.1647 196.637 11.3707 197.765 12.081 198.5C12.9571 199.407 13.9985 200.5 13.9985 200.5C13.9985 200.5 15.8959 202.479 16.9985 203.5C18.0316 204.457 18.6261 205.185 19.9985 205.5C21.3761 205.816 23.583 205 23.583 205L29.4985 205L33.9988 204.5C35.3122 203.18 39.0208 201.371 39.1082 199.507C39.1965 197.625 38.706 195.419 38.706 195.419C38.706 195.419 40.1793 195.126 40.9989 193.477C41.6013 192.264 41.6612 192.217 41.9989 191C42.3366 189.783 42.1231 188.14 41.4989 187C40.7672 185.663 40.2541 184.596 39.1085 184.31C39.5842 183.643 39.7236 182.947 39.7998 182.021C39.9151 180.621 39.7886 179.792 39.3817 178.444C39.0096 177.212 38.9596 176.265 37.9329 175.479C37.0135 174.774 35.0518 174.76 35.0518 174.76L27.7708 174.245L19.2303 173.415Z" fill="#060B1B"/>
<path d="M12.081 181.828C12.081 181.828 12.4968 181.818 12.12 180.584C11.6373 179.003 11.8834 177.817 12.7263 176.395C13.1306 175.713 13.9749 174.862 14.8886 174.245M12.081 181.828L20.6987 186.831L23.583 187.55L25.3322 187.553M12.081 181.828C12.081 181.828 11.0639 183.121 10.644 184.074C10.1797 185.127 9.9302 186.934 9.9302 186.934C9.9302 186.934 9.57117 188.898 10.0417 190C10.2248 190.429 10.6597 191.022 10.6597 191.022L11.1774 192.454L21.0337 197.765L24.5345 199.507M24.5345 199.507L23.8066 202.5L23.583 205M24.5345 199.507L23.8066 195.419L23.2833 192.25L24.0991 188.981L25.3322 187.553M24.5345 199.507L38.706 195.419M11.1038 192.25C11.1038 192.25 10.6597 194.695 10.9991 196C11.1647 196.637 11.3707 197.765 12.081 198.5C12.9571 199.407 13.9985 200.5 13.9985 200.5C13.9985 200.5 15.8959 202.479 16.9985 203.5C18.0316 204.457 18.6261 205.185 19.9985 205.5C21.3761 205.816 23.583 205 23.583 205M23.583 205L29.4985 205L33.9988 204.5C35.3122 203.18 39.0208 201.371 39.1082 199.507C39.1965 197.625 38.706 195.419 38.706 195.419M25.3322 187.553L23.9869 184.179L23.2574 180.091L24.8968 177.027L27.7708 174.245M25.3322 187.553L25.7713 187.546M27.7708 174.245L19.2303 173.415C19.2303 173.415 17.9991 173.415 16.9991 173.415C16.3736 173.415 15.6095 173.757 14.8886 174.245M27.7708 174.245L35.0518 174.76C35.0518 174.76 37.0135 174.774 37.9329 175.479C38.9596 176.265 39.0096 177.212 39.3817 178.444C39.7886 179.792 39.9151 180.621 39.7998 182.021C39.7053 183.169 39.5139 183.963 38.706 184.787C38.2982 185.202 37.4989 186 37.4989 186M35.7291 187.226C33.7125 187.291 33.5625 187.118 31.7264 187.355C29.3576 187.66 25.7713 187.546 25.7713 187.546M35.7291 187.226C36.3142 187.207 37.4989 186 37.4989 186M35.7291 187.226L25.7713 187.546M35.7291 187.226L37.4989 186M37.4989 186L39.1085 184.31C40.2541 184.596 40.7672 185.663 41.4989 187C42.1231 188.14 42.3366 189.783 41.9989 191C41.6612 192.217 41.6013 192.264 40.9989 193.477C40.1793 195.126 38.706 195.419 38.706 195.419M14.8886 174.245L16.9991 171L21.9991 168" stroke="#7EE3FF" stroke-width="2"/>
<path d="M157.504 173.395C158.347 174.817 158.593 176.003 158.11 177.584C157.733 178.818 158.149 178.828 158.149 178.828C158.149 178.828 159.166 180.121 159.586 181.074C160.051 182.127 160.3 183.934 160.3 183.934C160.3 183.934 160.659 185.898 160.189 187C160.005 187.429 159.57 188.022 159.57 188.022L159.126 189.25C159.126 189.25 159.57 191.695 159.231 193C159.066 193.637 158.86 194.765 158.149 195.5C157.273 196.407 156.232 197.5 156.232 197.5C156.232 197.5 154.334 199.479 153.232 200.5C152.199 201.457 151.604 202.185 150.232 202.5C148.854 202.816 146.647 202 146.647 202L140.732 202L136.231 201.5C134.918 200.18 131.209 198.371 131.122 196.507C131.034 194.625 131.524 192.419 131.524 192.419C131.524 192.419 130.051 192.126 129.231 190.477C128.629 189.264 128.569 189.217 128.231 188C127.894 186.783 128.107 185.14 128.731 184C129.463 182.663 129.976 181.596 131.122 181.31C130.646 180.643 130.507 179.947 130.43 179.021C130.315 177.62 130.442 176.792 130.848 175.444C131.221 174.212 131.271 173.265 132.297 172.479C133.217 171.774 135.178 171.759 135.178 171.759L140.732 171.367C140.732 171.367 141.916 166.451 144.459 165.5C145.919 164.954 146.931 165.168 148.443 165.488L148.5 165.5C150.544 165.932 153.231 168 153.231 168L155.342 171.245C156.255 171.862 157.1 172.713 157.504 173.395Z" fill="#060B1B"/>
<path d="M158.149 178.828C158.149 178.828 157.733 178.818 158.11 177.584C158.593 176.003 158.347 174.817 157.504 173.395C157.1 172.713 156.255 171.862 155.342 171.245M158.149 178.828L149.532 183.831L146.647 184.55L144.898 184.553M158.149 178.828C158.149 178.828 159.166 180.121 159.586 181.074C160.051 182.127 160.3 183.934 160.3 183.934C160.3 183.934 160.659 185.898 160.189 187C160.005 187.429 159.57 188.022 159.57 188.022L159.053 189.453L149.196 194.765L145.696 196.507M145.696 196.507L146.424 199.5L146.647 202M145.696 196.507L146.424 192.419L146.947 189.25L146.131 185.981L144.898 184.553M145.696 196.507L131.524 192.419M159.126 189.25C159.126 189.25 159.57 191.695 159.231 193C159.066 193.637 158.86 194.765 158.149 195.5C157.273 196.407 156.232 197.5 156.232 197.5C156.232 197.5 154.334 199.479 153.232 200.5C152.199 201.457 151.604 202.185 150.232 202.5C148.854 202.816 146.647 202 146.647 202M146.647 202L140.732 202L136.231 201.5C134.918 200.18 131.209 198.371 131.122 196.507C131.034 194.625 131.524 192.419 131.524 192.419M144.898 184.553L146.243 181.179L146.973 177.09L145.333 174.027L142.459 171.245M144.898 184.553L144.459 184.546M142.459 171.245L151 170.415C151 170.415 152.231 170.415 153.231 170.415C153.857 170.415 154.621 170.757 155.342 171.245M142.459 171.245L135.178 171.759C135.178 171.759 133.217 171.774 132.297 172.479C131.271 173.265 131.221 174.212 130.848 175.444C130.442 176.792 130.315 177.62 130.43 179.021C130.525 180.168 130.716 180.963 131.524 181.786C131.932 182.202 132.731 183 132.731 183M134.501 184.226C136.518 184.291 136.668 184.118 138.504 184.354C140.873 184.66 144.459 184.546 144.459 184.546M134.501 184.226C133.916 184.207 132.731 183 132.731 183M134.501 184.226L144.459 184.546M134.501 184.226L132.731 183M132.731 183L131.122 181.31C129.976 181.596 129.463 182.663 128.731 184C128.107 185.14 127.894 186.783 128.231 188C128.569 189.217 128.629 189.264 129.231 190.477C130.051 192.126 131.524 192.419 131.524 192.419M155.342 171.245L153.231 168C153.231 168 150.544 165.932 148.5 165.5C146.956 165.173 145.937 164.947 144.459 165.5C141.916 166.451 140.732 171.367 140.732 171.367" stroke="#7EE3FF" stroke-width="2"/>
<line x1="39.0044" y1="202.5" x2="132.004" y2="203.5" stroke="white"/>
<line x1="42.4973" y1="127.965" x2="49.4973" y2="227.965" stroke="white"/>
<line x1="33.0085" y1="131.5" x2="133.009" y2="133.5" stroke="white"/>
<line x1="32.009" y1="143.5" x2="132.009" y2="145.5" stroke="white"/>
<line x1="32.009" y1="158.5" x2="132.009" y2="160.5" stroke="white"/>
<line x1="40.0098" y1="174.5" x2="129.01" y2="176.5" stroke="white"/>
<line x1="44.0103" y1="189.5" x2="129.01" y2="191.5" stroke="white"/>
<line x1="40.9985" y1="214.5" x2="131.999" y2="214.49" stroke="white"/>
<line x1="68.4989" y1="127.99" x2="70.4989" y2="226.99" stroke="white"/>
<line x1="97.4989" y1="128.01" x2="95.4989" y2="227.01" stroke="white"/>
<line x1="125.498" y1="127.035" x2="118.498" y2="227.035" stroke="white"/>
<defs>
<linearGradient id="paint0_linear_3499_19843" x1="3.5" y1="0" x2="3.5" y2="9" gradientUnits="userSpaceOnUse">
<stop offset="0.335946" stop-color="#7EE3FF"/>
<stop offset="1" stop-color="#F4FDFF"/>
</linearGradient>
<linearGradient id="paint1_linear_3499_19843" x1="58.1396" y1="76" x2="58.1396" y2="85" gradientUnits="userSpaceOnUse">
<stop offset="0.335946" stop-color="#7EE3FF"/>
<stop offset="1" stop-color="#F4FDFF"/>
</linearGradient>
<linearGradient id="paint2_linear_3499_19843" x1="85.1396" y1="90" x2="85.1396" y2="146.5" gradientUnits="userSpaceOnUse">
<stop stop-color="#D9D9D9" stop-opacity="0.05"/>
<stop offset="1" stop-color="#D7D7D7"/>
</linearGradient>
</defs>
</svg>
