<svg width="187" height="335" viewBox="0 0 187 335" fill="none" xmlns="http://www.w3.org/2000/svg">
<path d="M119.532 213.001C119.532 213.001 121.691 212.735 123.032 213.001C125.529 213.496 127.532 215.378 128.532 216.501M128.532 216.501C130.514 218.727 131.438 220.229 132.532 223.001C133.558 225.602 134.076 227.206 134.032 230.001C133.991 232.606 133.532 234.096 132.532 236.501C131.657 238.603 129.532 241.501 129.532 241.501M128.532 216.501C128.467 216.892 128.365 217.501 128.365 217.501M79.5317 246.501L92.0317 247.501L105.532 246.501L107.188 245.899M79.5317 246.501L75.7817 245.251M79.5317 246.501C79.5317 246.501 80.6867 249.802 81.0317 252.001C81.5158 255.087 81.5317 256.877 81.5317 260.001L81.0317 265.501M57.5317 216.501C57.9222 217.477 58.5317 219.001 58.5317 219.001C58.5317 219.001 59.5855 223.32 60.5317 226.001C61.6665 229.217 62.4367 230.987 64.0317 234.001C65.4258 236.635 66.0465 238.278 68.0317 240.501C69.4141 242.049 72.0317 244.001 72.0317 244.001L75.7817 245.251M57.5317 216.501C58.7033 215.72 59.2711 215.128 60.5317 214.501C62.8639 213.34 67.0317 213.001 67.0317 213.001M57.5317 216.501C56.0505 218.007 55.3518 219.055 54.5317 221.001C53.3843 223.724 53.0683 225.546 53.0317 228.501C53.0025 230.852 53.3605 232.248 54.0317 234.501C54.806 237.101 57.5317 240.501 57.5317 240.501M57.5317 240.501H59.5317M57.5317 240.501C57.5317 240.501 54.5393 244.518 53.5317 247.501C52.7695 249.757 52.4408 253.501 52.4408 253.501V258.001M59.5317 240.501L58.5317 237.001L58.0317 233.501V229.501L58.5317 219.501M59.5317 240.501C59.5317 240.501 61.3789 242.999 63.0317 244.001C64.7748 245.058 66.0196 245.173 68.0317 245.501C71.0204 245.988 75.7817 245.251 75.7817 245.251M81.0317 265.501C81.0317 265.501 82.5377 267.013 83.0317 268.001C84.0317 270.001 84.0573 272.052 84.5317 275.001C85.0626 278.301 85.2089 280.174 85.5317 283.501C86.2303 290.702 86.5054 302.001 86.5054 302.001M81.0317 265.501L76.7817 264.001L72.0317 262.501M84.5317 323.501C86.7137 322.625 87.9061 321.565 89.0317 319.501C90.0768 317.584 90.0317 314.001 90.0317 314.001C90.0317 314.001 90.3988 308.837 89.0317 306.001C88.3023 304.488 86.5317 302.501 86.5317 302.501L86.5054 302.001M84.5317 323.501C83.7506 322.72 83.1944 322.385 82.5317 321.501C81.0497 319.525 81.0377 317.919 80.5317 315.501C80.2488 314.15 80.1463 313.377 80.0317 312.001C79.8695 310.055 80.0317 308.954 80.0317 307.001M84.5317 323.501C82.5791 325.063 81.4843 325.939 79.5317 327.501C77.5791 329.063 75.9276 329.442 73.5317 330.501C71.0443 331.601 69.677 332.369 67.0317 333.001C63.4182 333.864 61.2467 333.482 57.5317 333.501C53.4266 333.522 51.0191 333.977 47.0317 333.001C44.39 332.354 42.6211 332.242 40.5317 330.501C39.3601 329.525 38.6377 328.9 38.0317 327.501C37.1781 325.53 37.5317 321.501 37.5317 321.501L38.7192 316.501M80.0317 307.001C81.3985 306.611 82.3214 306.747 83.5317 306.001C85.1889 304.98 86.5054 302.001 86.5054 302.001M80.0317 307.001C79.4204 307.962 78.6669 308.414 77.5317 308.501C76.729 308.563 76.2909 308.269 75.5317 308.001C73.5398 307.299 71.0317 305.001 71.0317 305.001C71.0317 305.001 67.4756 303.187 65.0317 302.501C62.1868 301.702 60.481 301.682 57.5317 301.501C54.998 301.346 53.537 301.092 51.0317 301.501C49.0197 301.829 47.7489 301.902 46.0317 303.001C44.2832 304.12 43.4799 305.155 42.5317 307.001C42.4896 307.083 42.4261 307.212 42.4261 307.212M38.7192 316.501C38.7192 316.501 38.8282 314.964 39.0317 314.001C39.6446 311.101 42.4261 307.212 42.4261 307.212M38.7192 316.501C38.1567 315.834 37.2506 313.865 37.0317 312.001C36.8254 310.245 37.365 308.168 37.5317 307.501C37.5317 307.501 38.4095 304.28 39.5317 302.501C40.3455 301.211 42.0317 299.501 42.0317 299.501M42.0317 299.501L42.4261 307.212M42.0317 299.501L43.0317 287.501C43.0317 287.501 43.8539 278.168 45.5317 272.501C46.7982 268.223 49.5317 262.501 49.5317 262.501M49.5317 262.501C49.5317 262.501 48.4675 266.24 48.5317 269.001C48.5869 271.376 48.7909 272.744 49.5317 275.001C50.5135 277.993 51.0968 280.005 53.5317 282.001C55.4948 283.61 57.0083 284.226 59.5317 284.501C62.9713 284.877 65.2506 284.06 68.0317 282.001C70.9929 279.809 72.2042 277.591 73.0317 274.001C73.6018 271.527 73.0317 267.501 73.0317 267.501L72.0317 262.501M49.5317 262.501L52.4408 258.001M72.0317 262.501C72.0317 262.501 71.0116 259.508 69.5317 258.001C67.7478 256.185 66.5105 255.082 64.0317 254.501C62.3206 254.1 61.2734 254.267 59.5317 254.501C57.0838 254.83 54.0317 256.501 54.0317 256.501L52.4408 258.001M129.532 241.501L127.032 239.501L126.532 239.001M129.532 241.501L132.032 246.501C132.032 246.501 133.527 249.772 134.032 252.001C134.637 254.674 134.532 259.001 134.532 259.001M126.532 239.001C126.532 239.001 127.859 236.959 128.365 235.501C128.758 234.367 128.857 233.724 129.032 232.501C129.17 231.535 129.434 230.685 129.532 229.501C129.628 228.333 129.532 226.501 129.532 226.501L128.365 217.501M126.532 239.001C126.532 239.001 125.574 241.054 124.532 242.001C123.689 242.767 122.032 243.501 122.032 243.501L118.532 245.001C118.532 245.001 117.627 245.339 117.032 245.501C113.946 246.343 108.844 245.297 108.844 245.297M128.365 217.501L127.032 222.501L122.532 234.001C122.532 234.001 119.994 240.161 116.532 242.501C113.885 244.29 108.844 245.297 108.844 245.297M108.844 245.297L107.188 245.899M134.532 259.001L137.532 263.001L138.322 264.878M134.532 259.001C134.532 259.001 132.714 256.453 131.032 255.501C128.797 254.236 127.097 253.886 124.532 254.001C122.542 254.09 121.298 254.582 119.532 255.501C118.179 256.205 117.534 256.852 116.532 258.001C115.21 259.516 114.032 262.501 114.032 262.501M106.532 308.001V315.001C106.365 316.168 105.832 318.801 105.032 320.001C104.232 321.201 102.698 322.501 102.032 323.001L105.532 326.001L109.532 328.501C109.532 328.501 112.482 330.25 114.532 331.001C117.336 332.029 118.571 332.609 121.532 333.001C124.249 333.361 128.532 333.501 128.532 333.501H134.532C134.532 333.501 139.698 332.834 140.532 332.501C141.365 332.168 143.432 331.801 145.032 331.001C146.632 330.201 147.365 328.668 147.532 328.001L148.032 323.001V318.501C148.032 318.501 146.773 312.771 145.032 309.501C144.497 308.496 143.686 307.629 143.532 306.501C143.479 306.114 143.532 306.001 143.532 306.001M106.532 308.001C106.532 308.001 108.685 308.237 110.032 308.001C111.926 307.67 114.532 306.001 114.532 306.001C114.532 306.001 118.034 303.792 120.532 303.001C122.98 302.226 124.47 302.188 127.032 302.001C129.369 301.831 133.032 302.001 133.032 302.001C133.032 302.001 135.818 301.611 137.532 302.001C140.277 302.627 143.532 306.001 143.532 306.001M106.532 308.001C106.532 308.001 103.475 307.272 102.032 306.001C100.649 304.784 99.5317 302.001 99.5317 302.001M143.532 306.001V305.001V299.001M99.5317 302.001C99.5317 302.001 98.0928 304.794 97.5317 307.001C97.0506 308.893 96.5317 310.501 96.5317 312.001C96.5317 314.184 96.7275 315.471 97.5317 317.501C98.6106 320.224 102.121 323.091 102.121 323.091M99.5317 302.001V296.501V290.501L100.532 281.501L102.032 273.001L103.532 267.501L105.032 265.501M148.032 317.501C148.032 317.501 148.814 315.155 149.032 313.501C149.263 311.748 149.032 309.001 149.032 309.001C149.032 309.001 148.667 306.185 148.032 304.501C147.57 303.275 147.329 302.541 146.532 301.501C145.604 300.291 143.532 299.001 143.532 299.001M143.532 299.001V295.501C143.532 294.834 143.432 291.401 143.032 283.001C142.632 274.601 141.032 272.001 141.032 272.001L138.322 264.878M105.032 265.501L114.032 262.501M105.032 265.501V258.501C105.032 258.501 104.935 255.756 105.032 254.001C105.129 252.236 105.04 251.2 105.532 249.501C105.962 248.014 107.188 245.899 107.188 245.899M114.032 262.501C114.032 262.501 113.643 265.236 113.532 267.001C113.384 269.34 113.243 270.676 113.532 273.001C113.754 274.787 113.748 275.88 114.532 277.501C115.436 279.37 116.549 280.548 118.032 282.001C119.318 283.261 119.896 283.75 121.532 284.501C124.016 285.641 125.948 285.394 128.532 284.501C130.528 283.811 131.945 282.896 133.532 281.501C135.091 280.131 135.628 279.37 136.532 277.501C137.316 275.88 137.719 274.774 138.032 273.001C138.586 269.862 138.322 264.878 138.322 264.878" stroke="#7EE3FF" stroke-width="2"/>
<path d="M96.7842 4C121.052 4 135.816 13.248 144.533 24.0361C153.267 34.845 155.985 47.2684 155.999 53.7012C154.494 66.6573 154.756 77.9887 154.752 87.6104C154.748 97.3049 154.469 105.153 151.989 111.374C149.551 117.491 144.943 122.121 135.989 125.249C126.973 128.399 113.606 130 93.7734 130C81.4746 130 71.2889 129.998 62.8896 129.034C54.4951 128.071 48.015 126.158 43.0703 122.427C38.1469 118.711 34.627 113.102 32.3369 104.501C30.0414 95.8795 29 84.318 29 68.7959C29.0001 49.0416 33.8797 32.8839 44.6934 21.6631C55.5004 10.4492 72.3952 4.00007 96.7842 4Z" stroke="#7EE3FF" stroke-width="2"/>
<path d="M92.3291 38C113.342 38 126.335 40.0073 134.036 43.9004C137.822 45.8145 140.261 48.1523 141.78 50.8916C143.302 53.6353 143.991 56.9464 143.999 60.9629C143.41 67.1532 143.825 73.9353 143.775 80.0781C143.725 86.4163 143.196 92.2927 140.893 97.3584C136.439 107.151 124.75 115 92.3291 115C81.7786 115 73.1118 114.998 65.9795 114.29C58.8446 113.582 53.4975 112.184 49.4844 109.564C41.633 104.438 38 93.9836 38 70.9092C38 63.6703 38.8794 58.1046 40.7246 53.7979C42.5451 49.5488 45.3425 46.4365 49.3828 44.1289C53.4779 41.7901 58.9176 40.2408 66.0469 39.2891C73.167 38.3386 81.8409 38 92.3291 38Z" stroke="#7EE3FF" stroke-width="4"/>
<path d="M94.7354 2.5C103.402 2.5 107.946 2.71021 110.598 3.08691C111.894 3.27111 112.647 3.48424 113.163 3.68945C113.222 3.71276 113.277 3.73943 113.333 3.76367C112.513 11.408 112.385 16.8114 112.31 20.5752C112.269 22.6192 112.244 24.0497 112.146 25.1221C112.099 25.6459 112.039 26.0058 111.977 26.2549C111.959 26.3255 111.94 26.3807 111.926 26.4238C111.899 26.4293 111.867 26.4382 111.829 26.4443C111.33 26.5248 110.505 26.5208 109.004 26.415C106.133 26.2127 101.557 25.7119 94.7354 25.7119C90.3129 25.7119 85.9604 26.1564 82.4541 26.3623C78.7505 26.5798 76.0906 26.5209 74.293 25.8584C73.4701 25.5551 72.9169 25.1526 72.5234 24.6436C72.1227 24.1251 71.759 23.3284 71.5928 22.0371C71.247 19.3495 71.8126 15.0206 73.9404 8.16797C74.4736 6.45078 74.9982 5.4487 75.583 4.79102C76.1222 4.18468 76.8651 3.70048 78.1865 3.33398C79.5722 2.94968 81.4783 2.7258 84.2373 2.6123C86.9786 2.49954 90.3879 2.5 94.7354 2.5Z" fill="#030E21" stroke="#7EE3FF" stroke-width="5"/>
<path d="M21.7155 73.4819C21.7179 58.2673 24.7141 50.9778 27.5621 47.4989C28.638 46.1848 29.7 45.4058 30.5889 44.9418C30.2515 46.0586 29.9391 47.7186 29.6996 50.1755C29.4126 53.1187 29.2236 57.2461 29.2232 63.0221C29.222 78.2943 30.1045 87.4451 30.8026 92.9728C31.1553 95.7657 31.4487 97.5511 31.5677 98.7907C31.6265 99.4036 31.6344 99.8114 31.5985 100.092C31.5644 100.358 31.4996 100.438 31.4681 100.47C30.9058 101.033 30.4249 101.243 30.0303 101.272C29.6415 101.301 29.2055 101.163 28.7087 100.763C27.6762 99.9319 26.607 98.1434 25.6195 95.5011C23.6664 90.275 22.2059 82.2018 21.7155 73.4819Z" stroke="#7EE3FF" stroke-width="1.5"/>
<path d="M165.689 69.053C165.686 53.8407 162.58 46.6701 159.636 43.303C158.169 41.6253 156.727 40.8708 155.681 40.5296C155.445 40.4527 155.228 40.3985 155.034 40.3574C155.093 40.7208 155.153 41.1864 155.21 41.7855C155.464 44.4425 155.714 49.9732 155.715 61.4998C155.716 76.7552 155.303 85.6418 154.97 90.9711C154.803 93.6536 154.659 95.386 154.595 96.6153C154.56 97.2872 154.556 97.7585 154.575 98.1057C154.816 97.8883 155.118 97.575 155.471 97.1534C156.551 95.8628 157.97 93.7512 159.41 91.0145C162.287 85.5475 165.201 77.6799 165.689 69.053Z" stroke="#7EE3FF" stroke-width="1.5"/>
<path d="M92.1378 136.081C103.446 135.739 108.337 133.98 110.403 132.408C111.418 131.636 111.734 130.923 111.825 130.452C111.859 130.276 111.862 130.125 111.855 130.006C111.659 129.989 111.383 129.965 111.023 129.941C110.205 129.886 108.956 129.819 107.235 129.775C103.792 129.686 98.4643 129.685 90.9386 130.041C85.904 130.28 82.1153 130.276 79.6502 130.276C78.5459 130.276 77.7229 130.28 77.1695 130.303C77.6943 130.927 78.1518 131.538 78.5838 132.049C79.1763 132.75 79.8056 133.371 80.7226 133.912C82.5711 135.004 85.6688 135.815 92.1378 136.081Z" stroke="#7EE3FF"/>
<path d="M122.513 202.5C122.513 202.5 102.709 207.525 89.9365 206.49C79.0563 205.609 68.5214 203.001 64.0119 200" stroke="#7EE3FF" stroke-linecap="round"/>
<path d="M120.511 209.499C120.511 209.499 102.013 214.236 90.4215 213.296C79.5641 212.416 71.011 210.499 66.5115 207.499" stroke="#7EE3FF" stroke-linecap="round"/>
<path d="M119.514 213.001C119.514 213.001 102.104 219.94 90.5127 219C79.6553 218.12 72.0119 215.501 67.5123 212.501" stroke="#7EE3FF"/>
<path d="M13.1301 73.96C13.2818 63.5531 16.6146 57.3726 19.842 53.801C21.463 52.0071 23.0707 50.8565 24.2652 50.1572C24.4252 50.0635 24.5781 49.9787 24.7222 49.9008C24.6991 49.9737 24.6739 50.0488 24.6497 50.1259C24.287 51.2817 23.8048 52.896 23.3251 54.7297C22.3713 58.3765 21.4076 62.9689 21.4593 66.5547C21.6153 77.3599 23.22 84.4181 24.3963 88.7728C24.686 89.845 24.9579 90.7842 25.1607 91.5215C25.37 92.2826 25.5103 92.8471 25.5704 93.266C25.608 93.5282 25.6029 93.6727 25.5953 93.7438C25.5662 93.7469 25.5263 93.7501 25.4723 93.7497C22.658 93.7291 19.7558 91.8504 17.4344 88.356C15.1269 84.8827 13.4674 79.9072 13.1301 73.96Z" stroke="#7EE3FF" stroke-width="1.5"/>
<path d="M174.274 69.5264C174.122 59.1196 170.789 52.939 167.562 49.3674C165.941 47.5736 164.333 46.4229 163.139 45.7236C162.979 45.63 162.826 45.5451 162.681 45.4672C162.705 45.5402 162.73 45.6152 162.754 45.6923C163.117 46.8482 163.599 48.4623 164.079 50.2961C165.032 53.9429 165.996 58.5353 165.944 62.1211C165.788 72.9444 163.809 80.0045 162.254 84.3626C161.866 85.448 161.506 86.3636 161.212 87.1162C160.913 87.8808 160.693 88.4492 160.568 88.8789C160.523 89.034 160.498 89.1561 160.483 89.2497C163.32 89.2185 166.586 87.3249 169.263 83.8467C171.928 80.3857 173.937 75.4388 174.274 69.5264Z" stroke="#7EE3FF" stroke-width="1.5"/>
<path d="M75.4889 71.8581C75.5498 72.5044 75.572 73.111 75.5577 73.68C74.3494 69.0676 69.5142 65.8956 64.082 66.408C58.8007 66.9061 54.7272 70.7202 54.2066 75.3032C54.1748 75.1412 54.1411 74.9762 54.1108 74.8071C53.6054 69.4484 57.0668 62.641 63.037 62.0778C69.0073 61.5147 74.9834 66.4994 75.4889 71.8581Z" fill="#7EE3FF"/>
<path d="M106.126 71.8801C106.081 72.5282 106.075 73.1354 106.105 73.7043C107.214 69.0638 112.06 65.7783 117.614 66.1639C123.015 66.5387 127.271 70.2589 127.923 74.8301C127.951 74.6665 127.982 74.4997 128.009 74.329C128.381 68.9595 124.669 62.2347 118.565 61.811C112.461 61.3876 106.498 66.5106 106.126 71.8801Z" fill="#7EE3FF"/>
<path d="M70.5 130C70.5 130 60.0129 132 56.5129 135.5C52.5858 139.427 53.1944 148.488 52.513 154C51.745 160.213 52.296 163.743 52.5134 170C52.7531 176.899 53.428 180.919 55.5132 187.5C57.0703 192.414 59.5132 198.01 62.5132 199.505C65.5132 201 79.5348 198.827 92.0132 199.505C104.566 200.187 121.513 203.667 123.013 202C127.513 197 129.435 194.347 132 187.5C134.822 179.968 134.449 175.531 134 167.5C133.6 160.35 134.164 158.129 133.513 150.998C132.928 144.581 133.5 137 131 133C129.001 129.802 118 129 118 129" stroke="#7EE3FF" stroke-width="2"/>
<path d="M132.003 136.499L138.503 130.999M158.704 150.145C158.704 150.145 159.135 146.749 158.704 144.645C158.369 143.011 156.003 144.499 156.003 141.999C156.003 139.499 154.128 135 153.003 133.5C151.879 132 151.003 130.5 149.003 129C147.129 127.594 144.59 127.434 142.503 128.5C141.619 128.951 138.503 130.999 138.503 130.999M158.704 150.145C158.704 150.145 158.218 152.128 157.204 152.645C156.334 153.089 155.63 152.954 154.704 152.645C153.204 152.145 151.723 150.112 150.204 148.145C148.812 146.343 148.482 145.03 147.204 143.145C146.108 141.529 145.448 140.65 144.204 139.145M158.704 150.145C158.704 150.145 157.739 151.645 157.739 153.145M144.204 139.145C142.056 136.439 138.503 130.999 138.503 130.999M144.204 139.145C143.032 139.926 142.253 140.206 141.204 141.145C139.748 142.447 139.188 143.458 138.204 145.145C136.833 147.494 135.503 150.999 135.503 150.999L133.503 155.499C133.503 155.499 136.112 152.129 137.204 150.645C138.271 149.195 138.908 148.395 140.204 147.145C142.425 145.001 144.165 144.402 146.704 142.645M170.743 185.196C169.407 186.173 168.004 187.803 166.503 188.5C164.697 189.339 163.495 189.5 161.503 189.5C159.512 189.5 158.316 189.325 156.503 188.5C154.975 187.804 154.121 187.254 153.003 186C151.956 184.825 151.606 183.955 151.003 182.5C150.46 181.187 150.218 180.405 150.003 179C149.709 177.069 150.122 174 150.122 174M150.122 174C149.461 172.26 149.19 170.721 149.003 168.5C148.63 164.069 151.003 160.645 151.003 157.29C151.003 157.29 152.162 152.63 155.003 151.645C157.43 150.804 158.937 150.733 161.503 150.645C164.813 150.531 166.735 150.752 169.923 151.645C171.558 152.103 174.003 153.145 174.003 153.145C175.003 153.645 176.898 154.092 178.003 154.645C180.002 155.645 180.446 155.891 182.503 157.29C184.003 158.311 184.682 161.538 185.001 164.5C185.428 168.46 184.646 170.872 183.003 174.5C181.505 177.808 180.369 179.768 177.503 182C175.437 183.61 174.022 184.28 171.503 185C167.748 186.073 163.584 185.693 161.503 185C160.003 184.5 157.213 183.709 155.003 181.5C153.503 180 152.175 178.383 151.003 176C150.649 175.28 150.36 174.627 150.122 174ZM152.003 185C152.003 185 149.827 183.534 148.503 182.5C147.084 181.392 146.286 180.764 145.003 179.5C143.027 177.552 142.216 176.184 140.503 174C138.696 171.696 137.839 170.283 136.003 168C135.048 166.811 133.503 165 133.503 165" stroke="#7EE3FF" stroke-width="2"/>
<path d="M173.117 140.628L173.954 140.628C172.461 140.292 170.957 139.983 170.5 139.988L159 141.851C157.488 141.863 158.6 128.601 161.498 125.528C163.051 123.881 168.503 124 168.766 125.5C169.029 126.999 169.503 140 170.5 139.988C170.957 139.983 172.461 140.292 173.954 140.628L175.349 140.628C175.974 140.628 176.738 140.97 177.459 141.457C178.373 142.075 179.217 142.925 179.621 143.608C180.464 145.029 180.71 146.216 180.228 147.797C179.851 149.031 180.267 149.041 180.267 149.041C180.267 149.041 181.284 150.334 181.704 151.286C182.168 152.34 182.418 154.147 182.418 154.147C182.418 154.147 182.777 156.111 182.306 157.213C182.123 157.642 181.688 158.235 181.688 158.235L181.244 159.463C181.244 159.463 181.688 161.908 181.349 163.213C181.183 163.85 180.977 164.978 180.267 165.713C179.391 166.62 178.349 167.713 178.349 167.713C178.349 167.713 176.452 169.692 175.349 170.713C174.316 171.669 173.722 172.398 172.349 172.713C170.972 173.029 168.765 172.213 168.765 172.213L162.849 172.213L158.349 171.713C157.036 170.393 153.327 168.583 153.24 166.72C153.151 164.838 153.642 162.631 153.642 162.631C153.642 162.631 152.169 162.339 151.349 160.689C150.746 159.477 150.687 159.43 150.349 158.213C150.011 156.995 150.225 155.353 150.849 154.213C151.581 152.876 152.094 151.809 153.239 151.523C152.764 150.856 152.624 150.16 152.548 149.234C152.433 147.833 152.559 147.005 152.966 145.657C153.338 144.424 153.388 143.478 154.415 142.691C155.334 141.987 157.296 141.972 157.296 141.972L164.577 141.457L173.117 140.628Z" fill="#060B1B"/>
<path d="M180.267 149.041C180.267 149.041 179.851 149.031 180.228 147.797C180.71 146.216 180.464 145.029 179.621 143.608C179.217 142.925 178.373 142.075 177.459 141.457M180.267 149.041L171.649 154.043L168.765 154.763L167.016 154.766M180.267 149.041C180.267 149.041 181.284 150.334 181.704 151.286C182.168 152.34 182.418 154.147 182.418 154.147C182.418 154.147 182.777 156.111 182.306 157.213C182.123 157.642 181.688 158.235 181.688 158.235L181.17 159.666L171.314 164.978L167.813 166.72M167.813 166.72L168.541 169.713L168.765 172.213M167.813 166.72L168.541 162.631L169.064 159.463L168.249 156.194L167.016 154.766M167.813 166.72L153.642 162.631M181.244 159.463C181.244 159.463 181.688 161.908 181.349 163.213C181.183 163.85 180.977 164.978 180.267 165.713C179.391 166.62 178.349 167.713 178.349 167.713C178.349 167.713 176.452 169.692 175.349 170.713C174.316 171.669 173.722 172.398 172.349 172.713C170.972 173.029 168.765 172.213 168.765 172.213M168.765 172.213L162.849 172.213L158.349 171.713C157.036 170.393 153.327 168.583 153.24 166.72C153.151 164.838 153.642 162.631 153.642 162.631M167.016 154.766L168.361 151.392L169.09 147.303L167.451 144.24L164.577 141.457M167.016 154.766L166.576 154.759M164.577 141.457L173.117 140.628C173.117 140.628 174.349 140.628 175.349 140.628C175.974 140.628 176.738 140.97 177.459 141.457M164.577 141.457L157.296 141.972C157.296 141.972 155.334 141.987 154.415 142.691C153.388 143.478 153.338 144.424 152.966 145.657C152.559 147.005 152.433 147.833 152.548 149.234C152.642 150.381 152.834 151.176 153.642 151.999C154.05 152.415 154.849 153.213 154.849 153.213M156.619 154.438C158.635 154.503 158.785 154.33 160.621 154.567C162.99 154.873 166.576 154.759 166.576 154.759M156.619 154.438C156.034 154.42 154.849 153.213 154.849 153.213M156.619 154.438L166.576 154.759M156.619 154.438L154.849 153.213M154.849 153.213L153.239 151.523C152.094 151.809 151.581 152.876 150.849 154.213C150.225 155.353 150.011 156.995 150.349 158.213C150.687 159.43 150.746 159.477 151.349 160.689C152.169 162.339 153.642 162.631 153.642 162.631M177.459 141.457C177.459 141.457 171.496 139.977 170.5 139.988M170.5 139.988C169.503 140 169.029 126.999 168.766 125.5C168.503 124 163.051 123.881 161.498 125.528C158.6 128.601 157.488 141.863 159 141.851L170.5 139.988Z" stroke="#7EE3FF" stroke-width="2"/>
<path d="M54.3203 136.688L47.8203 131.188M27.6202 150.333C27.6202 150.333 27.1889 146.938 27.6202 144.833C27.9551 143.199 30.3203 144.688 30.3203 142.188C30.3203 139.688 32.1956 135.188 33.3203 133.688C34.4451 132.188 35.3203 130.688 37.3203 129.188C39.195 127.783 41.7334 127.623 43.8203 128.688C44.705 129.14 47.8203 131.188 47.8203 131.188M27.6202 150.333C27.6202 150.333 28.106 152.316 29.1202 152.833C29.9898 153.277 30.694 153.142 31.6201 152.833C33.1201 152.333 34.6012 150.301 36.1201 148.333C37.5118 146.531 37.842 145.218 39.1201 143.333C40.2161 141.717 40.8756 140.838 42.1201 139.333M27.6202 150.333C27.6202 150.333 28.585 151.833 28.585 153.334M42.1201 139.333C44.268 136.628 47.8203 131.188 47.8203 131.188M42.1201 139.333C43.2917 140.115 44.0708 140.395 45.1201 141.333C46.5753 142.635 47.1361 143.647 48.1201 145.333C49.4907 147.683 50.8203 151.188 50.8203 151.188L52.8203 155.688C52.8203 155.688 50.212 152.317 49.1201 150.833C48.053 149.384 47.4153 148.584 46.1201 147.333C43.899 145.189 42.1585 144.591 39.6201 142.833M15.581 185.385C16.9165 186.361 18.3198 187.992 19.8203 188.688C21.6264 189.527 22.829 189.688 24.8204 189.688C26.8116 189.688 28.0079 189.513 29.8203 188.688C31.3492 187.993 32.203 187.443 33.3203 186.188C34.3675 185.013 34.7181 184.143 35.3204 182.688C35.8642 181.375 36.1061 180.594 36.3203 179.188C36.6146 177.258 36.2017 174.188 36.2017 174.188M36.2017 174.188C36.8632 172.448 37.1332 170.909 37.3203 168.688C37.6935 164.257 35.3204 160.834 35.3204 157.479C35.3204 157.479 34.1617 152.819 31.3204 151.833C28.8938 150.992 27.3871 150.922 24.8204 150.833C21.511 150.719 19.589 150.94 16.4005 151.833C14.7657 152.291 12.3204 153.333 12.3204 153.333C11.3204 153.833 9.42552 154.281 8.32035 154.833C6.32133 155.833 5.87805 156.079 3.82035 157.479C2.32035 158.499 1.64131 161.726 1.32227 164.689C0.895891 168.648 1.67778 171.061 3.32031 174.688C4.81842 177.997 5.95483 179.956 8.82031 182.188C10.8871 183.798 12.3014 184.469 14.8203 185.188C18.5753 186.261 22.7402 185.882 24.8204 185.188C26.3203 184.688 29.1105 183.898 31.3203 181.688C32.8203 180.188 34.1485 178.572 35.3204 176.188C35.6745 175.468 35.9634 174.815 36.2017 174.188ZM34.3203 185.188C34.3203 185.188 36.4964 183.722 37.8203 182.688C39.2393 181.581 40.038 180.952 41.3203 179.688C43.2971 177.741 44.1074 176.372 45.8203 174.188C47.6281 171.884 48.485 170.471 50.3203 168.188C51.2759 167 52.8203 165.188 52.8203 165.188" stroke="#7EE3FF" stroke-width="2"/>
<path d="M13.2063 140.816L12.3697 140.816C13.8631 140.48 15.3669 140.171 15.8242 140.177L27.324 142.039C28.8353 142.052 27.7237 128.79 24.8259 125.717C23.2726 124.069 17.8203 124.188 17.5576 125.688C17.2948 127.188 16.8203 140.188 15.8242 140.177C15.3669 140.171 13.8631 140.48 12.3697 140.816L10.9751 140.816C10.3495 140.816 9.58542 141.159 8.86458 141.646C7.95081 142.263 7.10657 143.114 6.70224 143.796C5.85939 145.218 5.61328 146.404 6.09597 147.985C6.47279 149.219 6.05699 149.229 6.05699 149.229C6.05699 149.229 5.03986 150.522 4.61994 151.475C4.15564 152.528 3.90616 154.335 3.90616 154.335C3.90616 154.335 3.54713 156.299 4.01761 157.401C4.2008 157.83 4.63568 158.423 4.63568 158.423L5.07979 159.651C5.07979 159.651 4.63568 162.096 4.97508 163.402C5.14063 164.038 5.3466 165.166 6.05698 165.902C6.93302 166.808 7.97449 167.901 7.97449 167.901C7.97449 167.901 9.8719 169.88 10.9745 170.901C12.0076 171.858 12.6021 172.586 13.9745 172.901C15.3521 173.217 17.5589 172.401 17.5589 172.401L23.4745 172.401L27.9748 171.902C29.2881 170.581 32.9967 168.772 33.0842 166.908C33.1725 165.026 32.682 162.82 32.682 162.82C32.682 162.82 34.1552 162.527 34.9748 160.878C35.5773 159.666 35.6371 159.619 35.9748 158.401C36.3125 157.184 36.099 155.541 35.4748 154.401C34.7432 153.065 34.2301 151.997 33.0845 151.712C33.5601 151.044 33.6995 150.348 33.7757 149.422C33.891 148.022 33.7645 147.193 33.3577 145.846C32.9856 144.613 32.9355 143.666 31.9088 142.88C30.9894 142.175 29.0278 142.161 29.0278 142.161L21.7468 141.646L13.2063 140.816Z" fill="#060B1B"/>
<path d="M6.05699 149.229C6.05699 149.229 6.47279 149.219 6.09597 147.985C5.61328 146.404 5.85939 145.218 6.70224 143.796C7.10657 143.114 7.95081 142.263 8.86458 141.646M6.05699 149.229L14.6746 154.232L17.5589 154.952L19.3081 154.954M6.05699 149.229C6.05699 149.229 5.03986 150.522 4.61994 151.475C4.15564 152.528 3.90616 154.335 3.90616 154.335C3.90616 154.335 3.54713 156.299 4.01761 157.401C4.2008 157.83 4.63568 158.423 4.63568 158.423L5.15339 159.855L15.0097 165.166L18.5104 166.908M18.5104 166.908L17.7826 169.901L17.5589 172.401M18.5104 166.908L17.7826 162.82L17.2593 159.651L18.0751 156.382L19.3081 154.954M18.5104 166.908L32.682 162.82M5.07979 159.651C5.07979 159.651 4.63568 162.096 4.97508 163.402C5.14063 164.038 5.34661 165.166 6.05698 165.902C6.93302 166.808 7.97449 167.901 7.97449 167.901C7.97449 167.901 9.8719 169.88 10.9745 170.901C12.0076 171.858 12.6021 172.586 13.9745 172.901C15.3521 173.217 17.5589 172.401 17.5589 172.401M17.5589 172.401L23.4745 172.401L27.9748 171.902C29.2881 170.581 32.9967 168.772 33.0842 166.908C33.1725 165.026 32.682 162.82 32.682 162.82M19.3081 154.954L17.9629 151.58L17.2333 147.492L18.8727 144.429L21.7468 141.646M19.3081 154.954L19.7473 154.947M21.7468 141.646L13.2063 140.816C13.2063 140.816 11.9751 140.816 10.9751 140.816C10.3495 140.816 9.58542 141.159 8.86458 141.646M21.7468 141.646L29.0278 142.161C29.0278 142.161 30.9894 142.175 31.9088 142.88C32.9355 143.666 32.9856 144.613 33.3577 145.846C33.7645 147.193 33.891 148.022 33.7757 149.422C33.6813 150.57 33.4898 151.364 32.682 152.188C32.2741 152.603 31.4748 153.401 31.4748 153.401M29.705 154.627C27.6885 154.692 27.5384 154.519 25.7024 154.756C23.3335 155.061 19.7473 154.947 19.7473 154.947M29.705 154.627C30.2902 154.608 31.4748 153.401 31.4748 153.401M29.705 154.627L19.7473 154.947M29.705 154.627L31.4748 153.401M31.4748 153.401L33.0845 151.712C34.2301 151.997 34.7432 153.065 35.4748 154.401C36.099 155.541 36.3125 157.184 35.9748 158.401C35.6371 159.619 35.5773 159.666 34.9748 160.878C34.1552 162.527 32.682 162.82 32.682 162.82M8.86458 141.646C8.86458 141.646 14.8281 140.165 15.8242 140.177M15.8242 140.177C16.8203 140.188 17.2948 127.188 17.5576 125.688C17.8203 124.188 23.2726 124.069 24.8259 125.717C27.7237 128.79 28.8353 142.052 27.324 142.039L15.8242 140.177Z" stroke="#7EE3FF" stroke-width="2"/>
<path d="M90 88.9999C87.8521 88.9999 87.1479 88.9999 85 89M90 88.9999C92.5384 88.9999 94.4948 88.9088 97 88.5C97 88.5 100.639 87.8978 102.003 87.4999C103.368 87.102 104.09 86.3458 105.503 86.4999M90 88.9999C90 88.9999 86.9526 89 85 89M85 89C83.9039 88.8875 82.5558 88.6196 81.5 88.3044M85 89C83.6332 88.7283 81.5 88.3044 81.5 88.3044M105.503 86.4999C106.805 86.6418 107.649 87.0071 108.503 87.9999C109.431 89.0773 109.385 90.0831 109.5 91.5C109.661 93.4848 109.255 94.6558 108.503 96.4999C107.706 98.4559 106.829 99.3558 105.503 101C103.943 102.934 102.619 104.201 100.5 105.5C98.2361 106.889 97.1309 107.114 94.5032 107.5C91.9917 107.869 90.4989 107.963 88.0032 107.5C85.7561 107.083 84.4783 106.65 82.5032 105.5C80.233 104.178 78.616 103.071 77 101C75.4949 99.071 75.1266 98.6718 74 96.5C73.1958 94.9497 72.4063 93.2437 72.5032 91.4999C72.5905 89.9281 73.0795 88.6717 74.5032 87.9999C75.5627 87.4999 76.3293 87.4559 77.5 87.4999C79.5 87.5751 80.278 87.9395 81.5 88.3044M105.503 86.4999C105.503 86.4999 104.084 90.5331 102.003 92C100.028 93.3923 97 93.5 97 93.5C97 93.5 93.2678 93.9646 91.5 94C89.3437 94.0431 88.1456 94.2189 86 94C84.241 93.8206 83.2038 93.9726 81.5 93.5C80.067 93.1025 79.058 92.545 78 91.5C77.0681 90.5795 76.5 88.5 76.5 88.5L76 87.4999" stroke="#7EE3FF" stroke-width="2"/>
</svg>
