<svg width="161" height="328" viewBox="0 0 161 328" fill="none" xmlns="http://www.w3.org/2000/svg">
<path d="M106.883 209.927C106.883 209.927 108.972 209.67 110.269 209.927C112.685 210.407 114.622 212.227 115.59 213.313M115.59 213.313C117.507 215.467 118.401 216.919 119.459 219.601C120.452 222.117 120.953 223.669 120.91 226.373C120.871 228.893 120.427 230.335 119.459 232.661C118.613 234.695 116.557 237.498 116.557 237.498M115.59 213.313C115.527 213.691 115.428 214.281 115.428 214.281M68.1866 242.335L80.2792 243.303L93.3392 242.335L94.9414 241.753M68.1866 242.335L64.5588 241.126M68.1866 242.335C68.1866 242.335 69.3039 245.528 69.6377 247.656C70.1061 250.642 70.1214 252.373 70.1214 255.395L69.6377 260.716M46.9036 213.313C47.2814 214.258 47.871 215.732 47.871 215.732C47.871 215.732 48.8905 219.91 49.8058 222.504C50.9037 225.615 51.6487 227.327 53.1917 230.243C54.5404 232.791 55.1409 234.38 57.0614 236.531C58.3988 238.029 60.931 239.917 60.931 239.917L64.5588 241.126M46.9036 213.313C48.037 212.558 48.5863 211.985 49.8058 211.378C52.062 210.256 56.094 209.927 56.094 209.927M46.9036 213.313C45.4707 214.77 44.7948 215.784 44.0013 217.667C42.8913 220.301 42.5856 222.064 42.5502 224.922C42.522 227.197 42.8684 228.547 43.5176 230.727C44.2667 233.242 46.9036 236.531 46.9036 236.531M46.9036 236.531H48.8384M46.9036 236.531C46.9036 236.531 44.0087 240.417 43.0339 243.303C42.2966 245.486 41.9786 249.107 41.9786 249.107V253.461M48.8384 236.531L47.871 233.145L47.3873 229.759V225.89L47.871 216.215M48.8384 236.531C48.8384 236.531 50.6254 238.947 52.2243 239.917C53.9106 240.94 55.1149 241.051 57.0614 241.368C59.9527 241.839 64.5588 241.126 64.5588 241.126M69.6377 260.716C69.6377 260.716 71.0946 262.179 71.5725 263.135C72.5399 265.07 72.5647 267.054 73.0236 269.907C73.5372 273.099 73.6788 274.911 73.991 278.13C74.6669 285.096 74.933 296.027 74.933 296.027M69.6377 260.716L65.5262 259.265L60.931 257.814M73.0236 316.826C75.1346 315.978 76.288 314.953 77.377 312.956C78.388 311.102 78.3444 307.635 78.3444 307.635C78.3444 307.635 78.6995 302.64 77.377 299.896C76.6714 298.432 74.9585 296.51 74.9585 296.51L74.933 296.027M73.0236 316.826C72.268 316.07 71.73 315.746 71.0888 314.891C69.6552 312.979 69.6435 311.425 69.154 309.087C68.8804 307.779 68.7812 307.032 68.6703 305.701C68.5134 303.818 68.6703 302.753 68.6703 300.864M73.0236 316.826C71.1347 318.337 70.0756 319.184 68.1866 320.695C66.2976 322.207 64.7 322.573 62.3821 323.598C59.9758 324.662 58.6531 325.405 56.094 326.016C52.5982 326.851 50.4976 326.482 46.9036 326.5C42.9323 326.52 40.6032 326.96 36.7458 326.016C34.1902 325.39 32.4789 325.282 30.4576 323.598C29.3242 322.653 28.6254 322.049 28.0391 320.695C27.2133 318.789 27.5554 314.891 27.5554 314.891L28.7042 310.054M68.6703 300.864C69.9926 300.486 70.8854 300.617 72.0562 299.896C73.6594 298.908 74.933 296.027 74.933 296.027M68.6703 300.864C68.0789 301.793 67.35 302.23 66.2518 302.315C65.4752 302.374 65.0515 302.09 64.317 301.831C62.39 301.151 59.9636 298.929 59.9636 298.929C59.9636 298.929 56.5234 297.174 54.1592 296.51C51.407 295.738 49.7568 295.718 46.9036 295.543C44.4525 295.393 43.039 295.147 40.6154 295.543C38.669 295.86 37.4397 295.931 35.7784 296.994C34.0869 298.076 33.3097 299.077 32.3924 300.864C32.3517 300.943 32.2903 301.068 32.2903 301.068M28.7042 310.054C28.7042 310.054 28.8097 308.567 29.0065 307.635C29.5995 304.83 32.2903 301.068 32.2903 301.068M28.7042 310.054C28.16 309.409 27.2835 307.504 27.0717 305.701C26.8721 304.002 27.3941 301.992 27.5554 301.347C27.5554 301.347 28.4046 298.231 29.4902 296.51C30.2774 295.262 31.9087 293.608 31.9087 293.608M31.9087 293.608L32.2903 301.068M31.9087 293.608L32.8761 281.999C32.8761 281.999 33.6716 272.97 35.2947 267.488C36.5199 263.35 39.1643 257.814 39.1643 257.814M39.1643 257.814C39.1643 257.814 38.1348 261.431 38.1969 264.102C38.2503 266.4 38.4477 267.723 39.1643 269.907C40.1141 272.801 40.6784 274.747 43.0339 276.678C44.933 278.235 46.3972 278.83 48.8384 279.097C52.1659 279.46 54.371 278.67 57.0614 276.678C59.9261 274.558 61.0979 272.412 61.8984 268.939C62.45 266.546 61.8984 262.651 61.8984 262.651L60.931 257.814M39.1643 257.814L41.9786 253.461M60.931 257.814C60.931 257.814 59.9442 254.918 58.5125 253.461C56.7867 251.703 55.5898 250.636 53.1917 250.075C51.5364 249.687 50.5233 249.848 48.8384 250.075C46.4703 250.393 43.5176 252.01 43.5176 252.01L41.9786 253.461M116.557 237.498L114.139 235.564L113.655 235.08M116.557 237.498L118.976 242.335C118.976 242.335 120.422 245.5 120.91 247.656C121.496 250.242 121.394 254.428 121.394 254.428M113.655 235.08C113.655 235.08 114.939 233.104 115.428 231.694C115.809 230.597 115.904 229.974 116.073 228.792C116.207 227.857 116.463 227.035 116.557 225.89C116.65 224.76 116.557 222.987 116.557 222.987L115.428 214.281M113.655 235.08C113.655 235.08 112.728 237.066 111.72 237.982C110.905 238.723 109.301 239.433 109.301 239.433L105.916 240.884C105.916 240.884 105.041 241.211 104.464 241.368C101.479 242.182 96.5435 241.17 96.5435 241.17M115.428 214.281L114.139 219.118L109.785 230.243C109.785 230.243 107.33 236.202 103.981 238.466C101.42 240.196 96.5435 241.17 96.5435 241.17M96.5435 241.17L94.9414 241.753M121.394 254.428L124.296 258.298L125.061 260.114M121.394 254.428C121.394 254.428 119.635 251.963 118.008 251.042C115.846 249.818 114.202 249.48 111.72 249.591C109.796 249.677 108.592 250.153 106.883 251.042C105.574 251.723 104.95 252.349 103.981 253.461C102.702 254.926 101.562 257.814 101.562 257.814M94.3066 301.831V308.603C94.1454 309.731 93.6295 312.279 92.8555 313.44C92.0816 314.601 90.5982 315.858 89.9533 316.342L93.3392 319.244L97.2089 321.663C97.2089 321.663 100.063 323.354 102.046 324.081C104.759 325.076 105.953 325.637 108.818 326.016C111.446 326.364 115.59 326.5 115.59 326.5H121.394C121.394 326.5 126.392 325.855 127.199 325.532C128.005 325.21 130.004 324.855 131.552 324.081C133.1 323.307 133.809 321.824 133.97 321.179L134.454 316.342V311.989C134.454 311.989 133.236 306.446 131.552 303.282C131.034 302.31 130.25 301.471 130.101 300.38C130.05 300.006 130.101 299.896 130.101 299.896M94.3066 301.831C94.3066 301.831 96.3901 302.059 97.6926 301.831C99.5252 301.51 102.046 299.896 102.046 299.896C102.046 299.896 105.434 297.759 107.85 296.994C110.219 296.244 111.661 296.207 114.139 296.027C116.399 295.862 119.943 296.027 119.943 296.027C119.943 296.027 122.639 295.649 124.296 296.027C126.953 296.632 130.101 299.896 130.101 299.896M94.3066 301.831C94.3066 301.831 91.3498 301.125 89.9533 299.896C88.6157 298.719 87.5348 296.027 87.5348 296.027M130.101 299.896V298.929V293.124M87.5348 296.027C87.5348 296.027 86.1428 298.729 85.6 300.864C85.1345 302.694 84.6326 304.249 84.6326 305.701C84.6326 307.813 84.822 309.058 85.6 311.021C86.6437 313.656 90.0402 316.429 90.0402 316.429M87.5348 296.027V290.706V284.901L88.5022 276.195L89.9533 267.972L91.4044 262.651L92.8555 260.716M134.454 311.021C134.454 311.021 135.211 308.752 135.422 307.152C135.645 305.456 135.422 302.798 135.422 302.798C135.422 302.798 135.069 300.075 134.454 298.445C134.007 297.259 133.774 296.549 133.003 295.543C132.106 294.372 130.101 293.124 130.101 293.124M130.101 293.124V289.738C130.101 289.093 130.004 285.772 129.617 277.646C129.23 269.52 127.682 267.004 127.682 267.004L125.061 260.114M92.8555 260.716L101.562 257.814M92.8555 260.716V253.944C92.8555 253.944 92.7618 251.289 92.8555 249.591C92.9498 247.883 92.8641 246.881 93.3392 245.238C93.7553 243.799 94.9414 241.753 94.9414 241.753M101.562 257.814C101.562 257.814 101.186 260.46 101.079 262.167C100.936 264.43 100.799 265.722 101.079 267.972C101.293 269.7 101.287 270.757 102.046 272.325C102.92 274.133 103.998 275.273 105.432 276.678C106.676 277.897 107.235 278.37 108.818 279.097C111.221 280.2 113.09 279.961 115.59 279.097C117.521 278.429 118.892 277.544 120.427 276.195C121.935 274.869 122.454 274.133 123.329 272.325C124.087 270.757 124.477 269.687 124.78 267.972C125.316 264.935 125.061 260.114 125.061 260.114M44.4683 136.888C44.4683 136.888 39.5361 136.026 35.7616 137.371M22.7127 158.171C22.4764 163.455 22.2295 166.394 22.7128 171.714C23.2791 177.948 24.6481 185.742 24.6481 185.742M24.6481 185.742C24.6481 185.742 22.5909 189.667 23.6807 193.481C24.6481 196.867 25.6155 197.351 25.6155 197.351M24.6481 185.742C24.6481 185.742 27.5503 184.291 31.9036 183.323C36.257 182.355 38.6755 182.84 40.6103 184.291C42.5451 185.742 43.2469 187.056 43.5126 189.611C43.7165 191.573 42.0614 194.448 42.0614 194.448C42.0614 194.448 41.3359 195.416 40.6103 195.9C39.8848 196.383 38.7163 197.22 34.3222 198.318C30.4528 199.285 27.0669 198.318 25.6155 197.351M25.6155 197.351L23.6807 204.123C23.6807 204.123 22.4789 210.879 22.2281 216.215C22.104 218.857 22.3026 221.824 22.7015 224.438C23.0891 226.978 23.2771 228.794 24.1526 231.21C24.9894 233.519 29.4902 236.65 29.4902 236.65L34.3104 237.982L45.4356 236.047" stroke="#7EE3FF" stroke-width="2"/>
<path d="M82.9551 3.90234C106.41 3.90237 120.682 13.1178 129.113 23.8779C137.561 34.659 140.193 47.0549 140.207 53.4805C138.75 66.4066 139.003 77.7114 139 87.3125C138.996 96.9838 138.727 104.818 136.326 111.029C133.966 117.136 129.509 121.748 120.862 124.863C112.149 128.002 99.2258 129.6 80.042 129.6C68.1427 129.6 58.293 129.599 50.1719 128.638C42.0571 127.677 35.7983 125.77 31.0225 122.054C26.2645 118.351 22.8574 112.756 20.6406 104.17C18.4191 95.5658 17.4121 84.0294 17.4121 68.543C17.4121 48.8282 22.1354 32.7049 32.5957 21.5117C43.0443 10.3311 59.3747 3.90234 82.9551 3.90234Z" stroke="#7EE3FF" stroke-width="2"/>
<path d="M78.6455 38.761C98.9715 38.761 111.523 40.7273 118.955 44.5305C122.606 46.399 124.957 48.6805 126.423 51.3557C127.891 54.0353 128.557 57.2718 128.566 61.2004C127.996 67.2656 128.397 73.9127 128.35 79.929C128.3 86.1362 127.79 91.887 125.563 96.843C121.267 106.408 109.994 114.088 78.6455 114.088C68.4375 114.088 60.0585 114.086 53.1641 113.393C46.2677 112.7 41.1099 111.334 37.2422 108.778C29.6712 103.774 26.1524 93.554 26.1523 70.9495C26.1523 63.861 27.003 58.413 28.7861 54.1995C30.545 50.0436 33.2455 47.0053 37.1406 44.7532C41.0903 42.4696 46.3404 40.954 53.2314 40.0227C60.1136 39.0926 68.5002 38.761 78.6455 38.761Z" stroke="#7EE3FF" stroke-width="4"/>
<path d="M80.0068 2.5C88.3908 2.5 92.7936 2.6891 95.3652 3.0293C96.6242 3.19587 97.3579 3.38906 97.8604 3.5752C97.8709 3.57912 97.8811 3.58394 97.8916 3.58789C97.121 10.3623 96.999 15.1682 96.9268 18.5234C96.887 20.3724 96.8631 21.6412 96.7705 22.5879C96.7201 23.1029 96.6565 23.3992 96.6133 23.5576C96.596 23.5606 96.5771 23.5663 96.5566 23.5693C96.0623 23.6434 95.2544 23.6381 93.8037 23.543C91.0232 23.3606 86.6016 22.9102 80.0068 22.9102C75.7322 22.9102 71.5292 23.3103 68.1318 23.4961C64.5487 23.692 61.9587 23.6394 60.2061 23.0381C59.3989 22.7611 58.881 22.4014 58.5283 21.9766C58.176 21.5522 57.8484 20.8947 57.6963 19.7939C57.3751 17.47 57.896 13.6444 59.9521 7.47949C60.4585 5.96138 60.9464 5.10304 61.4795 4.54492C61.976 4.02522 62.6831 3.58791 63.9766 3.25391C65.3248 2.90581 67.1764 2.70387 69.8477 2.60156C72.5018 2.49992 75.8019 2.5 80.0068 2.5Z" fill="#030E21" stroke="#7EE3FF" stroke-width="5"/>
<path d="M10.3916 81.7282C10.3935 66.9913 12.8075 59.9224 15.099 56.5543C16.2221 54.9036 17.3131 54.1459 18.0821 53.7933C17.839 55.8279 17.6062 60.6154 17.6054 71.6095C17.6043 86.4054 19.0589 95.6455 20.3397 101.382C20.9756 104.231 21.5777 106.248 21.907 107.551C22.077 108.224 22.1665 108.677 22.1822 108.989C22.1918 109.181 22.1693 109.259 22.1604 109.281C21.6482 109.79 21.1745 109.971 20.7419 109.975C20.2898 109.978 19.7587 109.787 19.1498 109.317C17.913 108.36 16.5873 106.425 15.3403 103.698C12.8652 98.2854 10.8652 90.128 10.3916 81.7282Z" stroke="#7EE3FF" stroke-width="1.5"/>
<path d="M149.645 77.4443C149.643 62.7084 147.229 55.6394 144.937 52.2714C143.8 50.5993 142.695 49.8425 141.925 49.496C141.584 49.3428 141.3 49.2679 141.098 49.2296C141.007 49.5208 140.881 50.0615 140.75 51.0284C140.401 53.6129 140.043 58.9954 140.044 70.138C140.045 84.8964 139.646 93.4939 139.324 98.6501C139.162 101.246 139.024 102.921 138.962 104.11C138.931 104.727 138.923 105.169 138.938 105.498C139.163 105.29 139.443 105 139.766 104.614C140.809 103.367 142.181 101.326 143.573 98.6799C146.356 93.3933 149.173 85.7856 149.645 77.4443Z" stroke="#7EE3FF" stroke-width="1.5"/>
<path d="M75.9691 134.507C85.9902 134.575 91.2733 133.07 94.032 131.598C95.4084 130.863 96.1535 130.139 96.5497 129.624C96.5521 129.621 96.554 129.617 96.5565 129.614C96.5048 129.622 96.4512 129.63 96.3955 129.638C95.6143 129.747 94.4353 129.892 92.8375 130.044C89.6417 130.347 84.769 130.671 78.0474 130.757C73.5547 130.814 69.2506 130.536 66.1285 130.313C64.5613 130.2 63.3044 130.103 62.46 130.067C62.3551 130.063 62.2582 130.062 62.1694 130.06C63.1538 131.396 63.8952 132.198 65.425 132.809C67.2558 133.539 70.2127 133.992 75.9691 134.507Z" stroke="#7EE3FF"/>
<path d="M78.341 140.743C89.2457 140.466 95.0357 137.474 98.0946 134.626C99.6281 133.198 100.49 131.793 100.967 130.755C101.165 130.326 101.296 129.957 101.382 129.677C101.111 129.687 100.76 129.699 100.331 129.715C99.2108 129.759 97.5638 129.825 95.4585 129.914C91.2472 130.094 85.2022 130.369 77.8697 130.754C72.9547 131.011 68.4774 130.808 65.2925 130.643C63.6921 130.56 62.4371 130.487 61.6035 130.485C61.409 130.484 61.2468 130.489 61.1142 130.496C62.3405 132.904 63.6261 135.107 65.9582 136.876C68.4352 138.755 72.1478 140.186 78.341 140.743Z" stroke="#7EE3FF"/>
<path d="M109.768 199.769C109.768 199.769 90.6099 204.63 78.2534 203.629C67.7278 202.776 57.5362 200.253 53.1737 197.35" stroke="#7EE3FF" stroke-linecap="round"/>
<path d="M107.832 206.542C107.832 206.542 89.9369 211.124 78.7235 210.215C68.22 209.363 59.9456 207.509 55.5927 204.607" stroke="#7EE3FF" stroke-linecap="round"/>
<path d="M106.868 209.93C106.868 209.93 90.0252 216.643 78.8118 215.734C68.3082 214.882 60.914 212.348 56.561 209.446" stroke="#7EE3FF"/>
<path d="M2.08479 82.1913C2.2317 72.13 5.45348 66.1565 8.57129 62.7062C10.1375 60.973 11.6913 59.8616 12.8449 59.1862C12.9802 59.107 13.1101 59.0343 13.2337 58.9668C13.2171 59.0193 13.1991 59.0726 13.182 59.1272C12.831 60.2457 12.3632 61.8083 11.899 63.5829C10.9761 67.1111 10.044 71.5566 10.0941 75.0289C10.2451 85.4844 11.7976 92.3143 12.9361 96.5286C13.2162 97.5657 13.4799 98.4751 13.6758 99.1877C13.8784 99.9241 14.0136 100.469 14.0715 100.872C14.1045 101.102 14.1024 101.236 14.0969 101.308C14.0721 101.31 14.0403 101.313 14.0003 101.313C11.289 101.293 8.48795 99.4821 6.2447 96.1054C4.01537 92.7496 2.41094 87.941 2.08479 82.1913Z" stroke="#7EE3FF" stroke-width="1.5"/>
<path d="M157.949 77.9013C157.802 67.8404 154.58 61.8674 151.463 58.4171C149.896 56.6838 148.343 55.5726 147.189 54.8971C147.054 54.818 146.924 54.7452 146.8 54.6778C146.817 54.7303 146.835 54.7835 146.852 54.8381C147.203 55.9566 147.671 57.5183 148.135 59.2929C149.058 62.8211 149.99 67.2674 149.94 70.7399C149.789 81.2132 147.874 88.0451 146.368 92.2632C145.993 93.3136 145.644 94.1998 145.36 94.9278C145.071 95.6679 144.859 96.2176 144.738 96.632C144.699 96.7652 144.677 96.8726 144.661 96.9573C147.389 96.9146 150.529 95.0905 153.108 91.741C155.682 88.3969 157.624 83.6162 157.949 77.9013Z" stroke="#7EE3FF" stroke-width="1.5"/>
<path d="M49.3135 62.5562C49.9385 62.5562 50.5219 62.6067 51.0664 62.7036C46.5179 63.8229 43.0275 70.3558 43.0273 78.2476C43.0273 85.9285 46.334 92.3216 50.7041 93.6899C50.5432 93.7141 50.3787 93.7383 50.2109 93.7593C45.0039 93.7589 38.7627 87.8457 38.7627 79.1675C38.7627 70.4891 44.1064 62.5562 49.3135 62.5562Z" fill="#7EE3FF"/>
<path d="M100.027 62.5562C99.4019 62.5562 98.8182 62.6065 98.2734 62.7036C102.821 63.8235 106.311 70.3562 106.312 78.2476C106.312 85.928 103.005 92.3211 98.6357 93.6899C98.797 93.7142 98.9618 93.7383 99.1299 93.7593C104.337 93.759 110.578 87.8457 110.578 79.1675C110.578 70.4891 105.234 62.5562 100.027 62.5562Z" fill="#7EE3FF"/>
<ellipse cx="54.6252" cy="73.5236" rx="3.38593" ry="4.83703" fill="#7EE3FF"/>
<ellipse cx="3.38593" cy="4.83703" rx="3.38593" ry="4.83703" transform="matrix(-1 0 0 1 98.6201 68.6865)" fill="#7EE3FF"/>
<path d="M87.5684 94.4304C85.4652 97.4989 81.1542 99.6373 76.1475 99.7039C71.282 99.7685 67.0202 97.8605 64.7793 94.989C67.7036 96.5722 71.6535 97.5193 75.9902 97.4617C80.5506 97.401 84.6536 96.2417 87.5684 94.4304Z" fill="#7EE3FF"/>
<path d="M60.4306 129.15C60.4306 129.15 49.3054 131.568 45.9195 134.954C42.1203 138.753 42.7091 147.519 42.05 152.851C41.307 158.862 41.84 162.277 42.0503 168.33C42.2822 175.004 42.9351 178.893 44.9524 185.259C46.4587 190.013 48.8219 195.426 51.7242 196.873C54.6264 198.319 68.1911 196.217 80.2627 196.873C92.4064 197.533 108.801 200.899 110.252 199.287C114.606 194.45 117.929 191.883 120.41 185.259C123.14 177.972 122.779 173.197 122.345 165.427C121.958 158.511 121.523 155.397 120.894 148.498C120.328 142.29 122.345 135.926 119.926 132.057C117.993 128.963 106.866 128.182 106.866 128.182" stroke="#7EE3FF" stroke-width="2"/>
<line y1="-0.5" x2="11.0301" y2="-0.5" transform="matrix(-0.263118 0.964764 -0.964764 -0.263116 109.283 199.286)" stroke="#7EE3FF"/>
<line y1="-0.5" x2="12.9068" y2="-0.5" transform="matrix(0.22486 0.974391 -0.974391 0.224859 53.1738 197.351)" stroke="#7EE3FF"/>
<path d="M44.4683 203.156L43.5477 203.547L44.4683 203.156ZM42.5031 189.063C42.4663 189.614 42.8833 190.09 43.4343 190.127C43.9854 190.164 44.4619 189.747 44.4986 189.196L43.5009 189.129L42.5031 189.063ZM40.5986 196.385C39.77 196.944 39.7699 196.944 39.7699 196.944C39.7699 196.944 39.7699 196.944 39.77 196.944C39.77 196.944 39.7701 196.945 39.7702 196.945C39.7704 196.945 39.7708 196.946 39.7714 196.946C39.7725 196.948 39.7742 196.951 39.7766 196.954C39.7813 196.961 39.7886 196.972 39.7981 196.986C39.8173 197.015 39.8458 197.058 39.8828 197.113C39.9568 197.225 40.0642 197.388 40.1972 197.593C40.4632 198.003 40.8302 198.578 41.2336 199.24C42.0478 200.575 42.983 202.216 43.5477 203.547L44.4683 203.156L45.3889 202.766C44.7641 201.293 43.7645 199.548 42.9411 198.198C42.5259 197.517 42.1485 196.926 41.8748 196.504C41.7379 196.293 41.6267 196.124 41.5494 196.008C41.5108 195.95 41.4806 195.904 41.4599 195.873C41.4496 195.858 41.4416 195.846 41.4361 195.838C41.4334 195.834 41.4313 195.831 41.4298 195.829C41.429 195.827 41.4285 195.827 41.4281 195.826C41.4278 195.826 41.4277 195.825 41.4276 195.825C41.4275 195.825 41.4274 195.825 41.4274 195.825C41.4273 195.825 41.4273 195.825 40.5986 196.385ZM44.4683 203.156L43.5477 203.547C44.2356 205.169 44.8246 207.394 45.2457 209.254C45.4544 210.175 45.6185 210.992 45.7304 211.579C45.7864 211.872 45.8291 212.107 45.8578 212.268C45.8722 212.348 45.883 212.41 45.8902 212.451C45.8937 212.472 45.8964 212.488 45.8982 212.498C45.899 212.503 45.8997 212.507 45.9001 212.509C45.9003 212.511 45.9004 212.511 45.9005 212.512C45.9006 212.512 45.9006 212.512 45.9006 212.512C45.9006 212.512 45.9006 212.512 45.9006 212.512C45.9006 212.512 45.9006 212.512 46.8868 212.347C47.873 212.181 47.873 212.181 47.873 212.181C47.873 212.181 47.8729 212.181 47.8729 212.181C47.8729 212.18 47.8728 212.18 47.8727 212.18C47.8726 212.179 47.8724 212.178 47.8721 212.176C47.8716 212.173 47.8708 212.168 47.8698 212.162C47.8678 212.15 47.8648 212.133 47.861 212.111C47.8532 212.066 47.8418 212.001 47.8268 211.917C47.7968 211.748 47.7526 211.506 47.695 211.204C47.5799 210.601 47.4111 209.761 47.1964 208.812C46.7705 206.931 46.1502 204.561 45.3889 202.766L44.4683 203.156ZM43.5009 189.129L44.4986 189.196L44.9824 181.94L43.9846 181.874L42.9868 181.807L42.5031 189.063L43.5009 189.129Z" fill="#7EE3FF"/>
<path d="M122.418 196.283L123.339 196.673L122.418 196.283ZM124.384 182.189C124.42 182.74 124.003 183.217 123.452 183.253C122.901 183.29 122.425 182.873 122.388 182.322L123.386 182.256L124.384 182.189ZM124.5 192C125.356 192.517 125.356 192.516 125.356 192.516C125.356 192.516 125.356 192.516 125.356 192.516C125.357 192.516 125.357 192.516 125.357 192.516C125.357 192.516 125.357 192.516 125.357 192.516C125.357 192.516 125.356 192.517 125.356 192.517C125.355 192.519 125.353 192.522 125.35 192.527C125.345 192.536 125.336 192.551 125.324 192.572C125.3 192.613 125.263 192.677 125.214 192.764C125.118 192.936 124.974 193.199 124.794 193.549C124.433 194.248 123.923 195.296 123.339 196.673L122.418 196.283L121.498 195.892C122.103 194.466 122.634 193.372 123.017 192.631C123.208 192.261 123.362 191.978 123.47 191.786C123.523 191.69 123.566 191.617 123.595 191.566C123.61 191.541 123.621 191.521 123.629 191.508C123.633 191.501 123.637 191.495 123.639 191.491C123.64 191.489 123.641 191.488 123.642 191.486C123.642 191.486 123.643 191.485 123.643 191.485C123.643 191.484 123.643 191.484 123.643 191.484C123.643 191.484 123.644 191.484 123.644 191.484C123.644 191.484 123.644 191.483 124.5 192ZM122.418 196.283L123.339 196.673C122.642 198.316 121.181 203.052 119.874 207.457C119.226 209.642 118.623 211.721 118.182 213.254C117.961 214.021 117.781 214.65 117.657 215.088C117.594 215.307 117.546 215.479 117.513 215.595C117.496 215.653 117.483 215.697 117.475 215.727C117.471 215.742 117.468 215.753 117.465 215.761C117.464 215.765 117.464 215.768 117.463 215.769C117.463 215.77 117.463 215.771 117.462 215.771C117.462 215.772 117.462 215.772 117.462 215.772C117.462 215.772 117.462 215.772 116.5 215.5C115.538 215.228 115.538 215.228 115.538 215.228C115.538 215.228 115.538 215.227 115.538 215.227C115.538 215.227 115.538 215.226 115.539 215.225C115.539 215.223 115.54 215.22 115.541 215.216C115.543 215.208 115.546 215.197 115.551 215.182C115.559 215.152 115.572 215.107 115.589 215.049C115.622 214.932 115.671 214.76 115.733 214.54C115.858 214.101 116.039 213.47 116.26 212.701C116.702 211.165 117.307 209.08 117.957 206.888C119.247 202.539 120.745 197.666 121.498 195.892L122.418 196.283ZM123.386 182.256L122.388 182.322L121.904 175.067L122.902 175L123.9 174.933L124.384 182.189L123.386 182.256Z" fill="#7EE3FF"/>
<path d="M26.0869 234.113L27.538 242.82C27.538 242.82 28.3142 247.852 29.9566 250.559C31.8284 253.644 33.2837 255.771 36.7284 256.847C37.8252 257.19 39.6307 257.331 39.6307 257.331L41.5655 252.977C41.5655 252.977 38.0324 249.82 36.7284 247.173C35.0402 243.746 35.2773 238.466 35.2773 238.466L41.5655 237.015L44.4677 240.885" stroke="#7EE3FF" stroke-width="2"/>
<path d="M32.8593 146.079C34.4433 143.179 37.2124 139.788 37.2124 138.336C37.2124 137.069 35.5589 137.105 34.3105 136.888C32.3675 136.55 31.1597 137.317 29.4734 138.34C27.8744 139.309 27.3129 139.83 26.0872 141.242C24.849 142.669 24.0808 143.929 23.185 145.592C21.6205 148.496 21.0279 150.523 21.2501 153.815C21.4232 156.378 23.185 160.103 23.185 160.103C23.185 160.103 25.0733 158.069 26.0872 156.717C27.5386 154.782 27.5389 154.302 28.9897 152.367C30.7633 150.001 31.4421 148.674 32.8593 146.079Z" stroke="#7EE3FF" stroke-width="2"/>
<path d="M32.3755 146.563C32.3755 146.563 35.1054 148.225 36.7288 149.465C38.7481 151.008 40.5985 153.335 40.5985 153.335C40.5985 153.335 37.3382 153.209 34.794 152.851C32.5494 152.535 28.5059 152.851 28.5059 152.851" stroke="#7EE3FF" stroke-width="2"/>
<path d="M120.968 134L129.675 134.483M142.724 155.283C142.96 160.567 143.207 163.506 142.724 168.827C142.157 175.06 140.788 182.854 140.788 182.854M140.788 182.854C140.788 182.854 142.846 186.779 141.756 190.593C140.788 193.979 139.821 194.463 139.821 194.463M140.788 182.854C140.788 182.854 137.886 181.403 133.533 180.436C129.18 179.468 126.761 179.952 124.826 181.403C122.891 182.854 122.19 184.168 121.924 186.724C121.72 188.685 123.375 191.561 123.375 191.561C123.375 191.561 124.101 192.528 124.826 193.012C125.552 193.496 126.72 194.332 131.114 195.43C134.984 196.397 138.37 195.43 139.821 194.463M139.821 194.463L141.756 201.235C141.756 201.235 142.958 207.991 143.208 213.328C143.333 215.969 143.134 218.936 142.735 221.55C142.347 224.09 142.159 225.907 141.284 228.322C140.447 230.631 135.946 233.762 135.946 233.762L131.126 235.094L120.001 233.159" stroke="#7EE3FF" stroke-width="2"/>
<path d="M133.757 142.272C132.173 139.372 129.404 135.98 129.404 134.529C129.404 133.262 131.057 133.298 132.306 133.081C134.249 132.743 135.456 133.51 137.143 134.532C138.742 135.502 139.303 136.022 140.529 137.435C141.767 138.861 142.535 140.121 143.431 141.784C144.996 144.689 145.588 146.716 145.366 150.007C145.193 152.571 143.431 156.295 143.431 156.295C143.431 156.295 141.543 154.261 140.529 152.91C139.078 150.975 139.077 150.495 137.627 148.56C135.853 146.194 135.174 144.867 133.757 142.272Z" stroke="#7EE3FF" stroke-width="2"/>
<path d="M134.241 142.756C134.241 142.756 131.511 144.417 129.887 145.658C127.868 147.201 121.018 153 121.018 153C121.018 153 129.278 149.402 131.822 149.044C134.067 148.728 138.11 149.044 138.11 149.044" stroke="#7EE3FF" stroke-width="2"/>
<path d="M136.897 232L135.446 240.707C135.446 240.707 134.67 245.739 133.028 248.446C131.156 251.531 129.701 253.658 126.256 254.734C125.159 255.077 123.354 255.218 123.354 255.218L121.419 250.864C121.419 250.864 124.952 247.707 126.256 245.06C127.944 241.633 127.707 236.353 127.707 236.353L121.419 234.902L118.517 238.772" stroke="#7EE3FF" stroke-width="2"/>
</svg>
