<svg width="48" height="48" viewBox="0 0 48 48" fill="none" xmlns="http://www.w3.org/2000/svg">
<circle cx="35" cy="12.0001" r="3" fill="#F76969"/>
<path d="M16.2222 25H15.6093C14.9948 24.9998 14.394 25.1817 13.8827 25.5226L10 28.111V14.1112C10 13.2861 10.3278 12.4948 10.9112 11.9113C11.4947 11.3279 12.286 11.0001 13.1111 11.0001H24C24.8251 11.0001 25.6165 11.3279 26.1999 11.9113C26.7834 12.4948 27.1111 13.2861 27.1111 14.1112V17.2223" stroke="#7EE3FF" stroke-width="2" stroke-linecap="round" stroke-linejoin="round"/>
<path d="M23.9998 21.8889H34.8887C35.7138 21.8889 36.5051 22.2167 37.0886 22.8001C37.672 23.3836 37.9998 24.1749 37.9998 25V38.9998L34.1171 36.4114C33.6058 36.0705 33.005 35.8886 32.3905 35.8887H23.9998C23.1747 35.8887 22.3833 35.561 21.7999 34.9775C21.2164 34.3941 20.8887 33.6028 20.8887 32.7777V25C20.8887 24.1749 21.2164 23.3836 21.7999 22.8001C22.3833 22.2167 23.1747 21.8889 23.9998 21.8889Z" fill="#7EE3FF"/>
</svg>
