<svg width="24" height="26" viewBox="0 0 24 26" fill="none" xmlns="http://www.w3.org/2000/svg">
<path d="M21.6667 14.656V4.53268C21.6667 3.22588 20.6075 2.16668 19.3007 2.16668H16.2503V1.64993C16.2503 0.738512 15.5117 0 14.6003 0H7.06682C6.15545 0 5.41689 0.738512 5.41689 1.64993V2.16668H2.366C1.0592 2.16668 0 3.22588 0 4.53268V23.634C0 24.9408 1.0592 26 2.366 26H17.3333C20.9227 26 23.8333 23.0894 23.8333 19.5C23.8334 17.5754 22.9962 15.8462 21.6667 14.656ZM7.58357 2.16668H14.0834V4.33337H7.58357V2.16668ZM2.366 23.8333C2.2558 23.8333 2.16668 23.7442 2.16668 23.634V4.53268C2.16668 4.42249 2.2558 4.33337 2.366 4.33337H5.41668V4.85012C5.41668 5.76149 6.15519 6.5 7.06662 6.5H7.06682H14.6001H14.6003C15.5117 6.5 16.2503 5.76149 16.2503 4.85007V4.33332H19.3007C19.4109 4.33332 19.5 4.42244 19.5 4.53263V13.3705C18.9493 13.1758 18.3646 13.0532 17.7571 13.0141C17.7532 13.0138 17.7493 13.0136 17.7455 13.0133C17.7066 13.0109 17.6676 13.0086 17.6286 13.0069C17.6068 13.0059 17.585 13.0052 17.5633 13.0044C17.5373 13.0035 17.5114 13.0024 17.4854 13.0019C17.4348 13.0007 17.3841 12.9999 17.3333 12.9999C13.7439 12.9999 10.8333 15.9106 10.8333 19.4999C10.8333 19.5541 10.834 19.608 10.8353 19.6618C10.8358 19.6798 10.8367 19.6977 10.8372 19.7156C10.8384 19.7514 10.8396 19.7873 10.8413 19.8229C10.8423 19.8441 10.8438 19.8651 10.845 19.8862C10.8469 19.9185 10.8488 19.9508 10.8511 19.983C10.8528 20.0054 10.8548 20.0277 10.8567 20.05C10.8593 20.0807 10.8619 20.1115 10.8649 20.142C10.8671 20.165 10.8696 20.1878 10.8721 20.2107C10.8754 20.2405 10.8787 20.2704 10.8823 20.3001C10.8852 20.3233 10.8882 20.3464 10.8913 20.3694C10.8952 20.3986 10.8993 20.4278 10.9035 20.4569C10.907 20.4801 10.9106 20.5033 10.9142 20.5265C10.9188 20.5554 10.9236 20.5842 10.9285 20.613C10.9325 20.6359 10.9365 20.6588 10.9407 20.6817C10.946 20.7106 10.9516 20.7394 10.9573 20.7682C10.9617 20.7907 10.9662 20.8132 10.9709 20.8356C10.9769 20.8646 10.9833 20.8934 10.9898 20.9223C10.9947 20.9443 10.9995 20.9663 11.0047 20.9882C11.0115 21.0176 11.0188 21.0468 11.0261 21.076C11.0314 21.0972 11.0364 21.1183 11.0419 21.1393C11.0499 21.17 11.0583 21.2005 11.0668 21.231C11.072 21.2503 11.0772 21.2696 11.0827 21.2888C11.0925 21.3233 11.1029 21.3576 11.1133 21.3919C11.1179 21.4069 11.1222 21.422 11.1268 21.4369C11.1422 21.486 11.158 21.5349 11.1744 21.5835C11.1767 21.5903 11.1792 21.597 11.1815 21.6038C11.1958 21.6455 11.2104 21.6871 11.2254 21.7284C11.2316 21.7453 11.2381 21.7619 11.2444 21.7787C11.2561 21.8098 11.2677 21.841 11.2798 21.8719C11.2874 21.891 11.2952 21.91 11.3028 21.929C11.3143 21.9573 11.3256 21.9856 11.3375 22.0137C11.3458 22.0337 11.3545 22.0535 11.3631 22.0733C11.3747 22.1004 11.3864 22.1273 11.3984 22.1541C11.4074 22.1743 11.4167 22.1944 11.4259 22.2144C11.438 22.2406 11.4501 22.2667 11.4624 22.2927C11.4721 22.3129 11.4819 22.3331 11.4918 22.3532C11.5043 22.3788 11.5169 22.4043 11.5298 22.4297C11.5399 22.4497 11.5502 22.4697 11.5606 22.4896C11.5737 22.5148 11.5869 22.54 11.6003 22.565C11.6109 22.5847 11.6215 22.6044 11.6323 22.624C11.6461 22.649 11.66 22.6739 11.674 22.6987C11.685 22.718 11.6959 22.7373 11.707 22.7564C11.7215 22.7813 11.7362 22.8061 11.751 22.8308C11.7622 22.8495 11.7733 22.8682 11.7846 22.8868C11.8001 22.9121 11.8159 22.9372 11.8317 22.9623C11.8428 22.9798 11.8538 22.9975 11.865 23.0149C11.8822 23.0415 11.8997 23.0679 11.9172 23.0942C11.9276 23.1098 11.9378 23.1256 11.9483 23.1411C11.9691 23.1718 11.9903 23.2022 12.0116 23.2325C12.0193 23.2433 12.0267 23.2544 12.0344 23.2652C12.0636 23.3062 12.0932 23.3469 12.1234 23.3872C12.1298 23.3958 12.1365 23.4042 12.1429 23.4127C12.1667 23.4443 12.1907 23.4758 12.2151 23.5069C12.2263 23.5213 12.238 23.5354 12.2493 23.5498C12.2693 23.5747 12.2892 23.5997 12.3095 23.6244C12.3225 23.6402 12.3357 23.6557 12.3488 23.6714C12.368 23.6943 12.3872 23.7172 12.4067 23.7399C12.4206 23.756 12.4348 23.772 12.4489 23.788C12.4622 23.8032 12.4752 23.8184 12.4886 23.8334H2.366V23.8333ZM17.3334 23.8333C14.9406 23.8333 13.0001 21.8928 13.0001 19.5C13.0001 17.1072 14.9406 15.1667 17.3334 15.1667C17.3993 15.1667 17.4647 15.1688 17.53 15.1717C17.5634 15.1732 17.5967 15.1756 17.63 15.1779C17.6562 15.1797 17.6824 15.1816 17.7085 15.1839C18.5107 15.2559 19.2705 15.5575 19.9304 16.056L20.2593 16.3045C21.1241 17.0968 21.6667 18.2351 21.6667 19.5C21.6667 21.8928 19.7261 23.8333 17.3334 23.8333Z" fill="#060B1B"/>
<path d="M18.7333 17.6507L17.3327 19.0513L17.0154 18.734C16.5923 18.311 15.9064 18.311 15.4833 18.734C15.0603 19.1571 15.0603 19.843 15.4833 20.2661L16.5666 21.3494C16.9897 21.7725 17.6756 21.7725 18.0987 21.3494L20.2654 19.1827C20.6884 18.7597 20.6884 18.0737 20.2654 17.6507C19.8423 17.2276 19.1564 17.2276 18.7333 17.6507Z" fill="#060B1B"/>
<path d="M5.4173 10.8333H7.58398C8.18229 10.8333 8.6673 10.3483 8.6673 9.75C8.6673 9.1517 8.18229 8.66669 7.58398 8.66669H5.4173C4.819 8.66669 4.33398 9.1517 4.33398 9.75C4.33398 10.3483 4.819 10.8333 5.4173 10.8333Z" fill="#060B1B"/>
<path d="M11.9173 10.8333H16.2506C16.8489 10.8333 17.3339 10.3483 17.3339 9.75C17.3339 9.1517 16.8489 8.66669 16.2506 8.66669H11.9173C11.319 8.66669 10.834 9.1517 10.834 9.75C10.834 10.3483 11.319 10.8333 11.9173 10.8333Z" fill="#060B1B"/>
<path d="M8.66663 17.3333H4.33332C3.73501 17.3333 3.25 17.8183 3.25 18.4166C3.25 19.0149 3.73501 19.5 4.33332 19.5H8.66663C9.26494 19.5 9.74995 19.015 9.74995 18.4167C9.74995 17.8184 9.26494 17.3333 8.66663 17.3333Z" fill="#060B1B"/>
<path d="M5.4173 15.1667H10.834C11.4323 15.1667 11.9173 14.6817 11.9173 14.0834C11.9173 13.4851 11.4323 13.0001 10.834 13.0001H5.4173C4.819 13.0001 4.33398 13.4851 4.33398 14.0834C4.33398 14.6816 4.819 15.1667 5.4173 15.1667Z" fill="#060B1B"/>
</svg>
