<svg width="20" height="15" viewBox="0 0 20 15" fill="none" xmlns="http://www.w3.org/2000/svg">
<path d="M17.0298 8.42269C18.2997 8.42269 19.3294 7.39367 19.3294 6.12375C19.3294 4.85382 18.2997 3.8241 17.0298 3.8241C15.7602 3.8241 14.7305 4.85382 14.7305 6.12375C14.7305 7.39367 15.7602 8.42269 17.0298 8.42269Z" fill="#EFEFEF"/>
<path d="M19.9735 10.6386C19.8711 10.0229 19.3621 9.16116 18.9769 8.7762C18.9261 8.72518 18.6993 8.71339 18.6381 8.75135C18.1697 9.0394 17.6196 9.20893 17.0291 9.20893C16.4393 9.20893 15.8891 9.0394 15.4207 8.75135C15.3592 8.71339 15.1327 8.72518 15.082 8.7762C14.9743 8.88389 14.8568 9.02725 14.7422 9.1935C15.0521 9.7771 15.298 10.397 15.3867 10.9308C15.4754 11.466 15.4466 11.9726 15.3032 12.4345C15.8125 12.6188 16.4232 12.6996 17.0291 12.6996C18.6093 12.6996 20.2265 12.1517 19.9735 10.6386Z" fill="#EFEFEF"/>
<path d="M9.94055 7.45266C11.9986 7.45266 13.6672 5.78406 13.6672 3.72602C13.6672 1.66859 11.9986 0 9.94055 0C7.88281 0 6.21484 1.66859 6.21484 3.72602C6.21484 5.78406 7.88277 7.45266 9.94055 7.45266Z" fill="#EFEFEF"/>
<path d="M13.0963 8.02349C13.0155 7.94298 12.6483 7.92239 12.5484 7.98419C11.7887 8.45161 10.8972 8.72524 9.94079 8.72524C8.98509 8.72524 8.09313 8.45161 7.33384 7.98419C7.23403 7.92235 6.86681 7.94298 6.78595 8.02349C6.16013 8.64864 5.33532 10.0462 5.16938 11.0425C4.76024 13.4967 7.38165 14.3827 9.94079 14.3827C12.5006 14.3827 15.122 13.4967 14.7129 11.0425C14.5469 10.0462 13.7221 8.64864 13.0963 8.02349Z" fill="#EFEFEF"/>
<path d="M2.97055 8.42269C4.24016 8.42269 5.26984 7.39367 5.26984 6.12375C5.26984 4.85382 4.24016 3.8241 2.97055 3.8241C1.70059 3.8241 0.670898 4.85382 0.670898 6.12375C0.670898 7.39367 1.70059 8.42269 2.97055 8.42269Z" fill="#EFEFEF"/>
<path d="M4.49588 10.9308C4.59017 10.3702 4.85623 9.71003 5.18978 9.0996C5.09682 8.9726 5.00389 8.86198 4.9181 8.7762C4.86736 8.72518 4.64088 8.71339 4.57935 8.75135C4.11096 9.0394 3.56076 9.20893 2.97068 9.20893C2.38053 9.20893 1.82998 9.0394 1.36197 8.75135C1.30072 8.71339 1.07361 8.72518 1.02287 8.7762C0.636659 9.16112 0.129042 10.0229 0.0262295 10.6386C-0.226427 12.1517 1.39045 12.6996 2.97068 12.6996C3.53463 12.6996 4.10412 12.6302 4.59017 12.4715C4.43701 12.0002 4.40459 11.4817 4.49588 10.9308Z" fill="#EFEFEF"/>
</svg>
