<svg width="79" height="90" viewBox="0 0 79 90" fill="none" xmlns="http://www.w3.org/2000/svg">
<path d="M41.6999 52.7002L45.7001 37.2002L36.7001 38.8002L28.2001 40.2002L30.2001 41.2002L33.2001 42.7002C33.2001 42.7002 27.8726 46.1619 24.6999 48.7002C22.2001 50.7002 20.2001 52.4002 18.7001 53.7002C15.7712 56.6291 13.8057 58.4802 11.2001 61.7002C7.89289 65.7873 6.61557 68.3039 4.70013 73.2002C3.16448 77.1256 2.55095 79.4997 2.19994 83.7002C2.00481 86.0352 2.2002 89.7002 2.2002 89.7002L9.70013 89.6002L17.4201 89.5002V88.7002L17.4901 87.2002L17.7001 84.7002C17.7001 84.7002 17.9072 81.9439 18.2001 80.2002C18.6683 77.4137 19.0684 76.2376 20.0301 73.2002C21.5592 68.371 25.5335 62.7002 26.2001 61.7002C27.2001 60.2002 30.2049 56.4949 33.2001 53.2002C35.0577 51.1569 38.7001 47.7002 38.7001 47.7002L41.6999 52.7002Z" fill="#ECF5FA"/>
<path d="M19.1992 9.2005V14.7005H30.1992L36.6992 14.7007C36.6992 14.7007 40.6992 14.7002 43.1992 14.7002C45.6992 14.7002 47.8186 14.9132 49.6992 15.7002C50.9075 16.2059 53.1992 17.7002 53.1992 17.7002C53.1992 17.7002 55.271 19.3442 56.1992 21.2007C57.1992 23.2007 57.999 25 57.999 28C57.999 30.9549 57.427 33.5042 55.9992 35.7007C54.6992 37.7007 53.6772 38.4511 51.1992 39.7007C49.5452 40.5348 46.6992 41.2007 46.6992 41.2007L44.1992 50.2005L42.1992 57.7005L40.1992 54.2005L38.1992 51.7005H37.6992L36.6992 52.7005L33.6992 55.7005H35.1992L35.6992 56.7005L45.6992 70.2005L57.6992 86.2005L60.1992 89.7005H62.6992H72.1992H78.6992L70.6992 78.7007L62.1992 67.2007L55.6992 58.7007L52.1992 54.2007C52.1992 54.2007 54.1992 54.2007 55.6992 53.7007C57.8595 52.9806 59.7761 52.4201 61.6992 51.2007C63.4829 50.0697 64.7057 49.1942 66.1992 47.7007C66.8961 47.0038 68.3643 44.8565 69.3992 43.2007C70.1992 41.9207 70.9932 40.2663 71.6992 38.2005C72.2814 36.497 72.505 35.4767 72.7992 33.7007C73.0882 31.9563 73.1639 30.9683 73.1992 29.2005C73.2423 27.0442 73.0438 24.8297 72.6992 22.7007C72.4116 20.9236 72.3785 20.4359 71.8992 18.7007C71.4061 16.9151 71.4056 16.7044 70.4992 14.7007C69.5928 12.697 68.4282 11.0692 66.6992 9.2005C64.6025 6.93433 63.4171 6.16522 60.6992 4.70068C57.9222 3.20427 55.7503 2.50168 52.6992 1.7005C48.7152 0.654355 42.1992 0.700499 42.1992 0.700499H33.1992H22.6992H17.6992C17.6992 0.700499 18.1992 1.70087 18.1992 2.20068C18.1992 2.7005 17.6992 3.7005 17.6992 3.7005C17.6992 3.7005 18.0045 3.68552 18.1992 3.7005C18.8149 3.74787 19.6992 4.20068 19.6992 4.20068C19.6992 4.20068 19.9027 4.23456 20.1992 4.7005C20.6314 5.37972 20.761 5.89778 20.6992 6.7005C20.6519 7.31615 20.5307 7.67956 20.1992 8.2005C19.9027 8.66644 19.1992 8.64821 19.1992 9.2005Z" fill="url(#paint0_linear_1466_23534)"/>
<circle cx="17.9492" cy="49.9502" r="1.25" fill="#060B1B" stroke="#ECF5FA"/>
<path d="M2.19925 24.7002L2.19972 34.7002C2.19972 34.7002 2.19972 35.6144 2.19972 36.2002C2.19972 36.5907 2.11962 37.818 2.20007 38.2002C2.3451 38.8891 3.20007 39.7002 3.20007 39.7002C3.20007 39.7002 3.61457 40.1144 4.20044 40.7002C4.98144 41.4811 6.69996 42.6479 6.70007 43.2002C6.70044 45.2002 6.70007 49.7002 6.70007 49.7002C6.70007 48.7002 6.70007 48.2002 6.70007 54.2002C6.70007 60.2002 6.70007 62.7002 6.70007 63.2002C6.70007 63.7002 6.20007 63.7002 6.20007 63.7002" stroke="#ECF5FA"/>
<path d="M2.19922 3.2002V16.2002C2.19922 16.2002 3.39922 17.2002 4.39922 18.2002C4.84904 18.65 6.69922 20.2002 6.69922 20.7002C6.69922 21.2002 4.19922 22.6093 4.19922 23.2002C4.19922 25.7002 4.19922 32.7002 4.19922 32.7002" stroke="url(#paint1_linear_1466_23534)"/>
<path d="M7.69922 3.7002V12.7002" stroke="url(#paint2_linear_1466_23534)"/>
<path d="M6.19922 14.2002C6.19922 14.2002 9.19922 16.9934 9.19922 17.7002C9.19922 18.407 6.69922 20.7002 6.69922 20.7002" stroke="url(#paint3_linear_1466_23534)"/>
<path d="M10.6992 9.2002V20.2002" stroke="url(#paint4_linear_1466_23534)"/>
<path d="M11.1992 22.7002L6.69922 27.7002V32.7002" stroke="#ECF5FA"/>
<path d="M14.1992 2.7002V13.7002" stroke="url(#paint5_linear_1466_23534)"/>
<path d="M17.6993 6.2002V16.7002L15.4272 18.9723C14.9704 19.4291 14.7656 20.0779 14.8332 20.7204C14.9348 21.6865 15.0101 23.0791 14.6993 23.7002C14.199 24.7002 9.19964 28.7002 9.19935 29.2002C9.19906 29.7002 9.19935 34.7002 9.19935 34.7002L9.69922 35.2002" stroke="url(#paint6_linear_1466_23534)"/>
<path d="M17.6992 23.7002L12.1992 29.2002L11.6992 30.7002V36.2002" stroke="#ECF5FA"/>
<path d="M6.19922 37.2002V39.2002L8.69922 41.7002V46.7002V60.7002" stroke="#ECF5FA"/>
<path d="M11.6992 37.7002V42.2002L8.69922 45.2002" stroke="#ECF5FA"/>
<path d="M2.69922 45.2002V62.7002V70.7002L2.19922 72.2002" stroke="#ECF5FA"/>
<path d="M4.69922 51.7002V65.7002L4.19922 67.2002" stroke="#ECF5FA"/>
<path d="M15.1992 32.7002V41.7002L11.1992 45.7002L11.6992 56.7002L11.1992 58.2002" stroke="#ECF5FA"/>
<path d="M18.6992 31.2002V41.7002L18.1992 43.7002L15.6992 45.7002L13.6992 47.7002V54.7002L13.1992 55.7002" stroke="#ECF5FA"/>
<circle cx="1.75" cy="23.1504" r="1.25" fill="#060B1B" stroke="#ECF5FA"/>
<circle cx="6.15039" cy="12.9502" r="1.25" fill="#060B1B" stroke="#7EE3FF"/>
<circle cx="7.75" cy="2.75" r="1.25" fill="#060B1B" stroke="#7EE3FF"/>
<circle cx="2.44922" cy="1.8501" r="1.25" fill="#060B1B" stroke="#7EE3FF"/>
<circle cx="14.4492" cy="1.75" r="1.25" fill="#060B1B" stroke="#7EE3FF"/>
<circle cx="13.9492" cy="15.0503" r="1.25" fill="#060B1B" stroke="#7EE3FF"/>
<circle cx="17.8516" cy="5.8501" r="1.25" fill="#060B1B" stroke="#7EE3FF"/>
<circle cx="17.8516" cy="23.0503" r="1.25" fill="#060B1B" stroke="#ECF5FA"/>
<circle cx="10.9492" cy="21.75" r="1.25" fill="#060B1B" stroke="#ECF5FA"/>
<circle cx="11.6504" cy="37.4502" r="1.25" fill="#060B1B" stroke="#ECF5FA"/>
<circle cx="6.15039" cy="36.4502" r="1.25" fill="#060B1B" stroke="#ECF5FA"/>
<circle cx="2.44922" cy="44.8501" r="1.25" fill="#060B1B" stroke="#ECF5FA"/>
<circle cx="18.25" cy="30.4502" r="1.25" fill="#060B1B" stroke="#ECF5FA"/>
<circle cx="14.8516" cy="32.0503" r="1.25" fill="#060B1B" stroke="#ECF5FA"/>
<circle cx="4.75" cy="51.4502" r="1.25" fill="#060B1B" stroke="#ECF5FA"/>
<circle cx="10.75" cy="8.4502" r="1.25" fill="#060B1B" stroke="#7EE3FF"/>
<defs>
<linearGradient id="paint0_linear_1466_23534" x1="48" y1="11.2998" x2="71.2265" y2="89.6772" gradientUnits="userSpaceOnUse">
<stop stop-color="#59CEFC"/>
<stop offset="1" stop-color="#E7E7E7"/>
</linearGradient>
<linearGradient id="paint1_linear_1466_23534" x1="3.05818" y1="3.21023" x2="17.6731" y2="11.2996" gradientUnits="userSpaceOnUse">
<stop stop-color="#59CEFC"/>
<stop offset="1" stop-color="#E7E7E7"/>
</linearGradient>
<linearGradient id="paint2_linear_1466_23534" x1="7.8901" y1="3.70326" x2="11.5396" y2="5.17463" gradientUnits="userSpaceOnUse">
<stop stop-color="#59CEFC"/>
<stop offset="1" stop-color="#E7E7E7"/>
</linearGradient>
<linearGradient id="paint3_linear_1466_23534" x1="6.77186" y1="14.2024" x2="10.1174" y2="19.8051" gradientUnits="userSpaceOnUse">
<stop stop-color="#59CEFC"/>
<stop offset="1" stop-color="#E7E7E7"/>
</linearGradient>
<linearGradient id="paint4_linear_1466_23534" x1="10.8901" y1="9.20394" x2="14.7165" y2="10.4661" gradientUnits="userSpaceOnUse">
<stop stop-color="#59CEFC"/>
<stop offset="1" stop-color="#E7E7E7"/>
</linearGradient>
<linearGradient id="paint5_linear_1466_23534" x1="14.3901" y1="2.70394" x2="18.2165" y2="3.96613" gradientUnits="userSpaceOnUse">
<stop stop-color="#59CEFC"/>
<stop offset="1" stop-color="#E7E7E7"/>
</linearGradient>
<linearGradient id="paint6_linear_1466_23534" x1="10.8217" y1="6.21006" x2="27.7443" y2="24.2079" gradientUnits="userSpaceOnUse">
<stop stop-color="#59CEFC"/>
<stop offset="1" stop-color="#E7E7E7"/>
</linearGradient>
</defs>
</svg>
