<svg width="172" height="29" viewBox="0 0 172 29" fill="none" xmlns="http://www.w3.org/2000/svg">
<path d="M31.246 16.4504L32.5168 11.612L29.6578 12.1115L26.9577 12.5485L27.593 12.8606L28.546 13.3289C28.546 13.3289 26.8536 14.4094 25.8458 15.2018C25.0517 15.8261 24.4164 16.3567 23.9399 16.7625C23.0095 17.6768 22.3851 18.2546 21.5574 19.2597C20.5069 20.5355 20.1011 21.3211 19.4926 22.8494C19.0048 24.0748 18.8099 24.8158 18.6984 26.127C18.6364 26.8559 18.6985 27.9999 18.6985 27.9999L21.0809 27.9687L23.5333 27.9375V27.6877L23.5555 27.2195L23.6222 26.4391C23.6222 26.4391 23.688 25.5788 23.7811 25.0345C23.9298 24.1647 24.0569 23.7976 24.3624 22.8494C24.8481 21.342 26.1106 19.5719 26.3224 19.2597C26.64 18.7915 27.5945 17.6349 28.546 16.6064C29.1361 15.9686 30.2931 14.8896 30.2931 14.8896L31.246 16.4504Z" fill="#ECF5FA"/>
<path d="M24.0995 2.87194V4.58876H27.5938L29.6586 4.58882L31.7234 4.58867C32.5176 4.58867 33.1908 4.65516 33.7882 4.90082C34.172 5.05866 34.9 5.52512 34.9 5.52512C34.9 5.52512 35.5581 6.03828 35.853 6.61779C36.1707 7.24209 36.4247 7.80375 36.4247 8.7402C36.4247 9.66255 36.243 10.4583 35.7895 11.144C35.3765 11.7683 35.0519 12.0025 34.2647 12.3926C33.7393 12.6529 32.8352 12.8608 32.8352 12.8608L32.0411 15.6701L31.4057 18.0112L30.7704 16.9187L30.1351 16.1383H29.9763L29.6586 16.4505L28.7056 17.3869H29.1821L29.3409 17.6991L32.5176 21.9131L36.3295 26.9075L37.1236 28H37.9178H40.9356H43.0004L40.4591 24.5664L37.759 20.9767L35.6942 18.3234L34.5824 16.9187C34.5824 16.9187 35.2177 16.9187 35.6942 16.7627C36.3804 16.5379 36.9892 16.3629 37.6001 15.9823C38.1668 15.6292 38.5552 15.3559 39.0296 14.8898C39.251 14.6722 39.7174 14.002 40.0461 13.4851C40.3003 13.0855 40.5525 12.5691 40.7768 11.9243C40.9617 11.3925 41.0327 11.074 41.1262 10.5197C41.218 9.97515 41.242 9.66676 41.2532 9.11493C41.2669 8.44184 41.2039 7.7506 41.0944 7.08602C41.0031 6.53129 40.9925 6.37908 40.8403 5.83742C40.6836 5.28005 40.6835 5.21426 40.3956 4.58882C40.1076 3.96337 39.7377 3.45526 39.1884 2.87194C38.5224 2.16455 38.1459 1.92447 37.2825 1.46732C36.4003 1.00021 35.7104 0.7809 34.7412 0.530811C33.4756 0.204258 31.4057 0.218662 31.4057 0.218662H28.5468H25.2114H23.623C23.623 0.218662 23.7819 0.530927 23.7819 0.686944C23.7819 0.842961 23.623 1.15511 23.623 1.15511C23.623 1.15511 23.72 1.15044 23.7819 1.15511C23.9775 1.1699 24.2584 1.31124 24.2584 1.31124C24.2584 1.31124 24.323 1.32182 24.4172 1.46726C24.5545 1.67928 24.5956 1.84099 24.576 2.09156C24.561 2.28374 24.5225 2.39717 24.4172 2.55979C24.323 2.70523 24.0995 2.69954 24.0995 2.87194Z" fill="url(#paint0_linear_4208_4945)"/>
<mask id="path-3-inside-1_4208_4945" fill="white">
<ellipse cx="23.7024" cy="15.5919" rx="0.555907" ry="0.546262"/>
</mask>
<ellipse cx="23.7024" cy="15.5919" rx="0.555907" ry="0.546262" fill="#060B1B"/>
<path d="M24.2583 15.5919H23.4583C23.4583 15.4387 23.5808 15.3382 23.7024 15.3382V16.1382V16.9382C24.438 16.9382 25.0583 16.3486 25.0583 15.5919H24.2583ZM23.7024 16.1382V15.3382C23.8239 15.3382 23.9465 15.4387 23.9465 15.5919H23.1465H22.3465C22.3465 16.3486 22.9668 16.9382 23.7024 16.9382V16.1382ZM23.1465 15.5919H23.9465C23.9465 15.7452 23.8239 15.8457 23.7024 15.8457V15.0457V14.2457C22.9668 14.2457 22.3465 14.8353 22.3465 15.5919H23.1465ZM23.7024 15.0457V15.8457C23.5808 15.8457 23.4583 15.7452 23.4583 15.5919H24.2583H25.0583C25.0583 14.8353 24.438 14.2457 23.7024 14.2457V15.0457Z" fill="#ECF5FA" mask="url(#path-3-inside-1_4208_4945)"/>
<path d="M18.6987 7.71017L18.6988 10.8317C18.6988 10.8317 18.6988 11.117 18.6988 11.2999C18.6988 11.4218 18.6734 11.8049 18.6989 11.9242C18.745 12.1392 19.0166 12.3924 19.0166 12.3924C19.0166 12.3924 19.1483 12.5217 19.3344 12.7046C19.5825 12.9483 20.1284 13.3126 20.1284 13.4849C20.1285 14.1092 20.1284 15.5139 20.1284 15.5139C20.1284 15.2018 20.1284 15.0457 20.1284 16.9186C20.1284 18.7915 20.1284 19.5719 20.1284 19.7279C20.1284 19.884 19.9696 19.884 19.9696 19.884" stroke="#ECF5FA" stroke-width="0.3"/>
<path d="M18.6992 0.998932V5.05688C18.6992 5.05688 19.0804 5.36903 19.3981 5.68118C19.541 5.82159 20.1287 6.30548 20.1287 6.46155C20.1287 6.61763 19.3345 7.05748 19.3345 7.24193C19.3345 8.0223 19.3345 10.2074 19.3345 10.2074" stroke="url(#paint1_linear_4208_4945)" stroke-width="0.3"/>
<path d="M20.4463 1.15503V3.96438" stroke="url(#paint2_linear_4208_4945)" stroke-width="0.3"/>
<path d="M19.9697 4.43259C19.9697 4.43259 20.9227 5.30449 20.9227 5.52511C20.9227 5.74573 20.1286 6.46156 20.1286 6.46156" stroke="url(#paint3_linear_4208_4945)" stroke-width="0.3"/>
<path d="M21.3994 2.87183V6.30547" stroke="url(#paint4_linear_4208_4945)" stroke-width="0.3"/>
<path d="M21.5574 7.08588L20.1279 8.64663V10.2074" stroke="#ECF5FA" stroke-width="0.3"/>
<path d="M22.5107 0.842865V4.27651" stroke="url(#paint5_linear_4208_4945)" stroke-width="0.3"/>
<path d="M23.623 1.93539V5.21297L23.4148 5.41761C22.9481 5.87612 22.8121 6.54073 22.7263 7.18926C22.7153 7.27204 22.6974 7.34428 22.67 7.39802C22.5111 7.71017 20.923 8.95877 20.9229 9.11484C20.9228 9.27091 20.9229 10.8317 20.9229 10.8317L21.0817 10.9877" stroke="url(#paint6_linear_4208_4945)" stroke-width="0.3"/>
<path d="M23.6228 7.39801L21.8756 9.11483L21.7168 9.58306V11.2999" stroke="#ECF5FA" stroke-width="0.3"/>
<path d="M19.9697 11.612V12.2363L20.7639 13.0167V14.5775V18.9476" stroke="#ECF5FA" stroke-width="0.3"/>
<path d="M21.7167 11.7681V13.1728L20.7637 14.1092" stroke="#ECF5FA" stroke-width="0.3"/>
<path d="M18.858 14.1092V19.5718V22.069L18.6992 22.5373" stroke="#ECF5FA" stroke-width="0.3"/>
<path d="M19.4928 16.1382V20.5083L19.334 20.9765" stroke="#ECF5FA" stroke-width="0.3"/>
<path d="M22.8283 10.2074V13.0167L21.5576 14.2653L21.7164 17.699L21.5576 18.1672" stroke="#ECF5FA" stroke-width="0.3"/>
<path d="M23.9405 9.73914V13.0167L23.7817 13.641L22.9875 14.2653L22.3522 14.8896V17.0747L22.1934 17.3868" stroke="#ECF5FA" stroke-width="0.3"/>
<mask id="path-20-inside-2_4208_4945" fill="white">
<ellipse cx="18.5559" cy="7.22638" rx="0.555907" ry="0.546262"/>
</mask>
<ellipse cx="18.5559" cy="7.22638" rx="0.555907" ry="0.546262" fill="#060B1B"/>
<path d="M19.1118 7.22638H18.3118C18.3118 7.0731 18.4344 6.97264 18.5559 6.97264V7.77264V8.57264C19.2915 8.57264 19.9118 7.98304 19.9118 7.22638H19.1118ZM18.5559 7.77264V6.97264C18.6775 6.97264 18.8 7.0731 18.8 7.22638H18H17.2C17.2 7.98304 17.8203 8.57264 18.5559 8.57264V7.77264ZM18 7.22638H18.8C18.8 7.37965 18.6775 7.48011 18.5559 7.48011V6.68011V5.88011C17.8203 5.88011 17.2 6.46971 17.2 7.22638H18ZM18.5559 6.68011V7.48011C18.4344 7.48011 18.3118 7.37965 18.3118 7.22638H19.1118H19.9118C19.9118 6.46971 19.2915 5.88011 18.5559 5.88011V6.68011Z" fill="#ECF5FA" mask="url(#path-20-inside-2_4208_4945)"/>
<mask id="path-22-inside-3_4208_4945" fill="white">
<ellipse cx="19.9534" cy="4.04242" rx="0.555907" ry="0.546262"/>
</mask>
<ellipse cx="19.9534" cy="4.04242" rx="0.555907" ry="0.546262" fill="#060B1B"/>
<path d="M20.5093 4.04242H19.7093C19.7093 3.88914 19.8318 3.78868 19.9534 3.78868V4.58868V5.38868C20.689 5.38868 21.3093 4.79908 21.3093 4.04242H20.5093ZM19.9534 4.58868V3.78868C20.0749 3.78868 20.1975 3.88914 20.1975 4.04242H19.3975H18.5975C18.5975 4.79908 19.2178 5.38868 19.9534 5.38868V4.58868ZM19.3975 4.04242H20.1975C20.1975 4.19569 20.0749 4.29615 19.9534 4.29615V3.49615V2.69615C19.2178 2.69615 18.5975 3.28575 18.5975 4.04242H19.3975ZM19.9534 3.49615V4.29615C19.8318 4.29615 19.7093 4.19569 19.7093 4.04242H20.5093H21.3093C21.3093 3.28575 20.689 2.69615 19.9534 2.69615V3.49615Z" fill="#7EE3FF" mask="url(#path-22-inside-3_4208_4945)"/>
<mask id="path-24-inside-4_4208_4945" fill="white">
<ellipse cx="20.4622" cy="0.858427" rx="0.555907" ry="0.546262"/>
</mask>
<ellipse cx="20.4622" cy="0.858427" rx="0.555907" ry="0.546262" fill="#060B1B"/>
<path d="M21.0181 0.858427H20.2181C20.2181 0.705149 20.3406 0.604689 20.4622 0.604689V1.40469V2.20469C21.1977 2.20469 21.8181 1.61509 21.8181 0.858427H21.0181ZM20.4622 1.40469V0.604689C20.5837 0.604689 20.7063 0.705149 20.7063 0.858427H19.9062H19.1062C19.1062 1.61509 19.7266 2.20469 20.4622 2.20469V1.40469ZM19.9062 0.858427H20.7063C20.7063 1.0117 20.5837 1.11216 20.4622 1.11216V0.312164V-0.487836C19.7266 -0.487836 19.1062 0.101764 19.1062 0.858427H19.9062ZM20.4622 0.312164V1.11216C20.3406 1.11216 20.2181 1.0117 20.2181 0.858427H21.0181H21.8181C21.8181 0.101764 21.1977 -0.487836 20.4622 -0.487836V0.312164Z" fill="#7EE3FF" mask="url(#path-24-inside-4_4208_4945)"/>
<mask id="path-26-inside-5_4208_4945" fill="white">
<ellipse cx="18.7786" cy="0.577512" rx="0.555907" ry="0.546262"/>
</mask>
<ellipse cx="18.7786" cy="0.577512" rx="0.555907" ry="0.546262" fill="#060B1B"/>
<path d="M19.3345 0.577512H18.5345C18.5345 0.424235 18.657 0.323775 18.7786 0.323775V1.12377V1.92377C19.5142 1.92377 20.1345 1.33417 20.1345 0.577512H19.3345ZM18.7786 1.12377V0.323775C18.9001 0.323775 19.0227 0.424235 19.0227 0.577512H18.2227H17.4227C17.4227 1.33417 18.043 1.92377 18.7786 1.92377V1.12377ZM18.2227 0.577512H19.0227C19.0227 0.73079 18.9001 0.83125 18.7786 0.83125V0.03125V-0.76875C18.043 -0.76875 17.4227 -0.17915 17.4227 0.577512H18.2227ZM18.7786 0.03125V0.83125C18.657 0.83125 18.5345 0.73079 18.5345 0.577512H19.3345H20.1345C20.1345 -0.17915 19.5142 -0.76875 18.7786 -0.76875V0.03125Z" fill="#7EE3FF" mask="url(#path-26-inside-5_4208_4945)"/>
<mask id="path-28-inside-6_4208_4945" fill="white">
<ellipse cx="22.5901" cy="0.546262" rx="0.555907" ry="0.546262"/>
</mask>
<ellipse cx="22.5901" cy="0.546262" rx="0.555907" ry="0.546262" fill="#060B1B"/>
<path d="M23.146 0.546262H22.346C22.346 0.392985 22.4685 0.292525 22.5901 0.292525V1.09252V1.89252C23.3257 1.89252 23.946 1.30292 23.946 0.546262H23.146ZM22.5901 1.09252V0.292525C22.7116 0.292525 22.8342 0.392985 22.8342 0.546262H22.0342H21.2342C21.2342 1.30292 21.8545 1.89252 22.5901 1.89252V1.09252ZM22.0342 0.546262H22.8342C22.8342 0.69954 22.7116 0.8 22.5901 0.8V0V-0.8C21.8545 -0.8 21.2342 -0.2104 21.2342 0.546262H22.0342ZM22.5901 0V0.8C22.4685 0.8 22.346 0.69954 22.346 0.546262H23.146H23.946C23.946 -0.2104 23.3257 -0.8 22.5901 -0.8V0Z" fill="#7EE3FF" mask="url(#path-28-inside-6_4208_4945)"/>
<mask id="path-30-inside-7_4208_4945" fill="white">
<ellipse cx="22.4319" cy="4.69793" rx="0.555907" ry="0.546262"/>
</mask>
<ellipse cx="22.4319" cy="4.69793" rx="0.555907" ry="0.546262" fill="#060B1B"/>
<path d="M22.9878 4.69793H22.1878C22.1878 4.54466 22.3103 4.4442 22.4319 4.4442V5.2442V6.0442C23.1675 6.0442 23.7878 5.4546 23.7878 4.69793H22.9878ZM22.4319 5.2442V4.4442C22.5534 4.4442 22.676 4.54466 22.676 4.69793H21.876H21.076C21.076 5.4546 21.6963 6.0442 22.4319 6.0442V5.2442ZM21.876 4.69793H22.676C22.676 4.85121 22.5534 4.95167 22.4319 4.95167V4.15167V3.35167C21.6963 3.35167 21.076 3.94127 21.076 4.69793H21.876ZM22.4319 4.15167V4.95167C22.3103 4.95167 22.1878 4.85121 22.1878 4.69793H22.9878H23.7878C23.7878 3.94127 23.1675 3.35167 22.4319 3.35167V4.15167Z" fill="#7EE3FF" mask="url(#path-30-inside-7_4208_4945)"/>
<mask id="path-32-inside-8_4208_4945" fill="white">
<ellipse cx="23.6702" cy="1.82611" rx="0.555907" ry="0.546262"/>
</mask>
<ellipse cx="23.6702" cy="1.82611" rx="0.555907" ry="0.546262" fill="#060B1B"/>
<path d="M24.2261 1.82611H23.4261C23.4261 1.67283 23.5486 1.57237 23.6702 1.57237V2.37237V3.17237C24.4058 3.17237 25.0261 2.58277 25.0261 1.82611H24.2261ZM23.6702 2.37237V1.57237C23.7917 1.57237 23.9143 1.67283 23.9143 1.82611H23.1143H22.3143C22.3143 2.58277 22.9346 3.17237 23.6702 3.17237V2.37237ZM23.1143 1.82611H23.9143C23.9143 1.97939 23.7917 2.07985 23.6702 2.07985V1.27985V0.479846C22.9346 0.479846 22.3143 1.06945 22.3143 1.82611H23.1143ZM23.6702 1.27985V2.07985C23.5486 2.07985 23.4261 1.97939 23.4261 1.82611H24.2261H25.0261C25.0261 1.06945 24.4058 0.479846 23.6702 0.479846V1.27985Z" fill="#7EE3FF" mask="url(#path-32-inside-8_4208_4945)"/>
<mask id="path-34-inside-9_4208_4945" fill="white">
<ellipse cx="23.6702" cy="7.19516" rx="0.555907" ry="0.546262"/>
</mask>
<ellipse cx="23.6702" cy="7.19516" rx="0.555907" ry="0.546262" fill="#060B1B"/>
<path d="M24.2261 7.19516H23.4261C23.4261 7.04188 23.5486 6.94142 23.6702 6.94142V7.74142V8.54142C24.4058 8.54142 25.0261 7.95182 25.0261 7.19516H24.2261ZM23.6702 7.74142V6.94142C23.7917 6.94142 23.9143 7.04188 23.9143 7.19516H23.1143H22.3143C22.3143 7.95182 22.9346 8.54142 23.6702 8.54142V7.74142ZM23.1143 7.19516H23.9143C23.9143 7.34844 23.7917 7.4489 23.6702 7.4489V6.6489V5.8489C22.9346 5.8489 22.3143 6.4385 22.3143 7.19516H23.1143ZM23.6702 6.6489V7.4489C23.5486 7.4489 23.4261 7.34844 23.4261 7.19516H24.2261H25.0261C25.0261 6.4385 24.4058 5.8489 23.6702 5.8489V6.6489Z" fill="#ECF5FA" mask="url(#path-34-inside-9_4208_4945)"/>
<mask id="path-36-inside-10_4208_4945" fill="white">
<ellipse cx="21.4788" cy="6.78927" rx="0.555907" ry="0.546262"/>
</mask>
<ellipse cx="21.4788" cy="6.78927" rx="0.555907" ry="0.546262" fill="#060B1B"/>
<path d="M22.0347 6.78927H21.2347C21.2347 6.636 21.3572 6.53554 21.4788 6.53554V7.33554V8.13554C22.2143 8.13554 22.8347 7.54594 22.8347 6.78927H22.0347ZM21.4788 7.33554V6.53554C21.6003 6.53554 21.7229 6.636 21.7229 6.78927H20.9229H20.1229C20.1229 7.54594 20.7432 8.13554 21.4788 8.13554V7.33554ZM20.9229 6.78927H21.7229C21.7229 6.94255 21.6003 7.04301 21.4788 7.04301V6.24301V5.44301C20.7432 5.44301 20.1229 6.03261 20.1229 6.78927H20.9229ZM21.4788 6.24301V7.04301C21.3572 7.04301 21.2347 6.94255 21.2347 6.78927H22.0347H22.8347C22.8347 6.03261 22.2143 5.44301 21.4788 5.44301V6.24301Z" fill="#ECF5FA" mask="url(#path-36-inside-10_4208_4945)"/>
<mask id="path-38-inside-11_4208_4945" fill="white">
<ellipse cx="21.7004" cy="11.6901" rx="0.555907" ry="0.546262"/>
</mask>
<ellipse cx="21.7004" cy="11.6901" rx="0.555907" ry="0.546262" fill="#060B1B"/>
<path d="M22.2563 11.6901H21.4563C21.4563 11.5368 21.5789 11.4363 21.7004 11.4363V12.2363V13.0363C22.436 13.0363 23.0563 12.4467 23.0563 11.6901H22.2563ZM21.7004 12.2363V11.4363C21.822 11.4363 21.9445 11.5368 21.9445 11.6901H21.1445H20.3445C20.3445 12.4467 20.9648 13.0363 21.7004 13.0363V12.2363ZM21.1445 11.6901H21.9445C21.9445 11.8433 21.822 11.9438 21.7004 11.9438V11.1438V10.3438C20.9648 10.3438 20.3445 10.9334 20.3445 11.6901H21.1445ZM21.7004 11.1438V11.9438C21.5789 11.9438 21.4563 11.8433 21.4563 11.6901H22.2563H23.0563C23.0563 10.9334 22.436 10.3438 21.7004 10.3438V11.1438Z" fill="#ECF5FA" mask="url(#path-38-inside-11_4208_4945)"/>
<mask id="path-40-inside-12_4208_4945" fill="white">
<ellipse cx="19.9534" cy="11.3779" rx="0.555907" ry="0.546262"/>
</mask>
<ellipse cx="19.9534" cy="11.3779" rx="0.555907" ry="0.546262" fill="#060B1B"/>
<path d="M20.5093 11.3779H19.7093C19.7093 11.2246 19.8318 11.1242 19.9534 11.1242V11.9242V12.7242C20.689 12.7242 21.3093 12.1346 21.3093 11.3779H20.5093ZM19.9534 11.9242V11.1242C20.0749 11.1242 20.1975 11.2246 20.1975 11.3779H19.3975H18.5975C18.5975 12.1346 19.2178 12.7242 19.9534 12.7242V11.9242ZM19.3975 11.3779H20.1975C20.1975 11.5312 20.0749 11.6317 19.9534 11.6317V10.8317V10.0317C19.2178 10.0317 18.5975 10.6213 18.5975 11.3779H19.3975ZM19.9534 10.8317V11.6317C19.8318 11.6317 19.7093 11.5312 19.7093 11.3779H20.5093H21.3093C21.3093 10.6213 20.689 10.0317 19.9534 10.0317V10.8317Z" fill="#ECF5FA" mask="url(#path-40-inside-12_4208_4945)"/>
<mask id="path-42-inside-13_4208_4945" fill="white">
<ellipse cx="18.7786" cy="14" rx="0.555907" ry="0.546262"/>
</mask>
<ellipse cx="18.7786" cy="14" rx="0.555907" ry="0.546262" fill="#060B1B"/>
<path d="M19.3345 14H18.5345C18.5345 13.8467 18.657 13.7462 18.7786 13.7462V14.5462V15.3462C19.5142 15.3462 20.1345 14.7566 20.1345 14H19.3345ZM18.7786 14.5462V13.7462C18.9001 13.7462 19.0227 13.8467 19.0227 14H18.2227H17.4227C17.4227 14.7566 18.043 15.3462 18.7786 15.3462V14.5462ZM18.2227 14H19.0227C19.0227 14.1532 18.9001 14.2537 18.7786 14.2537V13.4537V12.6537C18.043 12.6537 17.4227 13.2433 17.4227 14H18.2227ZM18.7786 13.4537V14.2537C18.657 14.2537 18.5345 14.1532 18.5345 14H19.3345H20.1345C20.1345 13.2433 19.5142 12.6537 18.7786 12.6537V13.4537Z" fill="#ECF5FA" mask="url(#path-42-inside-13_4208_4945)"/>
<mask id="path-44-inside-14_4208_4945" fill="white">
<ellipse cx="23.7971" cy="9.50503" rx="0.555907" ry="0.546262"/>
</mask>
<ellipse cx="23.7971" cy="9.50503" rx="0.555907" ry="0.546262" fill="#060B1B"/>
<path d="M24.353 9.50503H23.553C23.553 9.35176 23.6756 9.2513 23.7971 9.2513V10.0513V10.8513C24.5327 10.8513 25.153 10.2617 25.153 9.50503H24.353ZM23.7971 10.0513V9.2513C23.9187 9.2513 24.0412 9.35176 24.0412 9.50503H23.2412H22.4412C22.4412 10.2617 23.0615 10.8513 23.7971 10.8513V10.0513ZM23.2412 9.50503H24.0412C24.0412 9.65831 23.9187 9.75877 23.7971 9.75877V8.95877V8.15877C23.0615 8.15877 22.4412 8.74837 22.4412 9.50503H23.2412ZM23.7971 8.95877V9.75877C23.6756 9.75877 23.553 9.65831 23.553 9.50503H24.353H25.153C25.153 8.74837 24.5327 8.15877 23.7971 8.15877V8.95877Z" fill="#ECF5FA" mask="url(#path-44-inside-14_4208_4945)"/>
<mask id="path-46-inside-15_4208_4945" fill="white">
<ellipse cx="22.717" cy="10.0045" rx="0.555907" ry="0.546262"/>
</mask>
<ellipse cx="22.717" cy="10.0045" rx="0.555907" ry="0.546262" fill="#060B1B"/>
<path d="M23.2729 10.0045H22.4729C22.4729 9.85121 22.5955 9.75075 22.717 9.75075V10.5507V11.3507C23.4526 11.3507 24.0729 10.7611 24.0729 10.0045H23.2729ZM22.717 10.5507V9.75075C22.8386 9.75075 22.9611 9.85121 22.9611 10.0045H22.1611H21.3611C21.3611 10.7611 21.9815 11.3507 22.717 11.3507V10.5507ZM22.1611 10.0045H22.9611C22.9611 10.1578 22.8386 10.2582 22.717 10.2582V9.45822V8.65822C21.9815 8.65822 21.3611 9.24782 21.3611 10.0045H22.1611ZM22.717 9.45822V10.2582C22.5955 10.2582 22.4729 10.1578 22.4729 10.0045H23.2729H24.0729C24.0729 9.24782 23.4526 8.65822 22.717 8.65822V9.45822Z" fill="#ECF5FA" mask="url(#path-46-inside-15_4208_4945)"/>
<mask id="path-48-inside-16_4208_4945" fill="white">
<ellipse cx="19.509" cy="16.0602" rx="0.555907" ry="0.546262"/>
</mask>
<ellipse cx="19.509" cy="16.0602" rx="0.555907" ry="0.546262" fill="#060B1B"/>
<path d="M20.0649 16.0602H19.2649C19.2649 15.9069 19.3875 15.8064 19.509 15.8064V16.6064V17.4064C20.2446 17.4064 20.8649 16.8168 20.8649 16.0602H20.0649ZM19.509 16.6064V15.8064C19.6306 15.8064 19.7531 15.9069 19.7531 16.0602H18.9531H18.1531C18.1531 16.8168 18.7734 17.4064 19.509 17.4064V16.6064ZM18.9531 16.0602H19.7531C19.7531 16.2135 19.6306 16.3139 19.509 16.3139V15.5139V14.7139C18.7734 14.7139 18.1531 15.3035 18.1531 16.0602H18.9531ZM19.509 15.5139V16.3139C19.3875 16.3139 19.2649 16.2135 19.2649 16.0602H20.0649H20.8649C20.8649 15.3035 20.2446 14.7139 19.509 14.7139V15.5139Z" fill="#ECF5FA" mask="url(#path-48-inside-16_4208_4945)"/>
<mask id="path-50-inside-17_4208_4945" fill="white">
<ellipse cx="21.4153" cy="2.63772" rx="0.555907" ry="0.546262"/>
</mask>
<ellipse cx="21.4153" cy="2.63772" rx="0.555907" ry="0.546262" fill="#060B1B"/>
<path d="M21.9712 2.63772H21.1712C21.1712 2.48445 21.2937 2.38399 21.4153 2.38399V3.18399V3.98399C22.1509 3.98399 22.7712 3.39439 22.7712 2.63772H21.9712ZM21.4153 3.18399V2.38399C21.5368 2.38399 21.6594 2.48445 21.6594 2.63772H20.8594H20.0594C20.0594 3.39439 20.6797 3.98399 21.4153 3.98399V3.18399ZM20.8594 2.63772H21.6594C21.6594 2.791 21.5368 2.89146 21.4153 2.89146V2.09146V1.29146C20.6797 1.29146 20.0594 1.88106 20.0594 2.63772H20.8594ZM21.4153 2.09146V2.89146C21.2937 2.89146 21.1712 2.791 21.1712 2.63772H21.9712H22.7712C22.7712 1.88106 22.1509 1.29146 21.4153 1.29146V2.09146Z" fill="#7EE3FF" mask="url(#path-50-inside-17_4208_4945)"/>
<path d="M51.1744 28.336C47.1184 28.336 44.3344 25.624 44.3344 21.688C44.3344 17.776 47.1424 15.064 51.2224 15.064C55.5424 15.064 58.2784 18.136 58.0624 22.744H47.9584C48.2944 24.472 49.5904 25.408 51.2464 25.408C52.4464 25.408 53.5264 24.928 54.1264 24.088H57.8224C56.7184 26.752 54.2704 28.336 51.1744 28.336ZM47.9824 20.44H54.5344C54.1264 18.904 52.9264 17.968 51.2464 17.968C49.6384 17.968 48.3904 18.904 47.9824 20.44ZM66.8084 28.336C62.7524 28.336 59.9204 25.576 59.9204 21.688C59.9204 17.824 62.7764 15.064 66.8084 15.064C70.3124 15.064 73.0004 17.104 73.5764 20.224H70.0724C69.4724 18.952 68.2964 18.184 66.8564 18.184C64.8884 18.184 63.5204 19.624 63.5204 21.688C63.5204 23.752 64.8884 25.192 66.8564 25.192C68.3924 25.192 69.6404 24.304 70.1444 22.936H73.6964C73.0244 26.248 70.3604 28.336 66.8084 28.336ZM82.6098 28.336C78.4098 28.336 75.5298 25.624 75.5298 21.688C75.5298 17.776 78.4098 15.064 82.6098 15.064C86.7858 15.064 89.6658 17.776 89.6658 21.688C89.6658 25.624 86.7858 28.336 82.6098 28.336ZM79.1298 21.688C79.1298 23.752 80.5698 25.192 82.6098 25.192C84.6498 25.192 86.0658 23.752 86.0658 21.688C86.0658 19.624 84.6498 18.184 82.6098 18.184C80.5698 18.184 79.1298 19.624 79.1298 21.688Z" fill="#F6F3F3"/>
<path d="M93.2621 28V11.2H96.5021L102.478 19.912L108.43 11.2H111.646V28H107.854V17.896L103.774 23.848H101.134L97.0541 17.872V28H93.2621ZM115.476 28V15.4H119.124V28H115.476ZM114.948 11.32C114.948 9.976 115.908 9.04 117.3 9.04C118.692 9.04 119.652 9.976 119.652 11.32C119.652 12.664 118.692 13.6 117.3 13.6C115.908 13.6 114.948 12.664 114.948 11.32ZM122.765 28V15.4H125.477L125.861 16.816C126.869 15.64 128.381 15.064 130.061 15.064C133.349 15.064 135.341 17.272 135.341 20.752V28H131.693V21.136C131.693 19.288 130.757 18.184 129.197 18.184C127.517 18.184 126.413 19.408 126.413 21.4V28H122.765ZM144.27 28.336C140.526 28.336 137.862 25.6 137.862 21.688C137.862 17.824 140.526 15.064 144.27 15.064C145.83 15.064 147.198 15.544 148.278 16.384V10.24H151.926V28H149.214L148.782 26.56C147.654 27.688 146.094 28.336 144.27 28.336ZM141.462 21.688C141.462 23.752 142.878 25.192 144.942 25.192C146.982 25.192 148.398 23.752 148.398 21.688C148.398 19.648 146.982 18.184 144.942 18.184C142.878 18.184 141.462 19.648 141.462 21.688Z" fill="#7EE3FF"/>
<defs>
<linearGradient id="paint0_linear_4208_4945" x1="33.2484" y1="3.52723" x2="40.3926" y2="28.0609" gradientUnits="userSpaceOnUse">
<stop stop-color="#59CEFC"/>
<stop offset="1" stop-color="#E7E7E7"/>
</linearGradient>
<linearGradient id="paint1_linear_4208_4945" x1="18.9721" y1="1.00206" x2="23.5762" y2="3.59544" gradientUnits="userSpaceOnUse">
<stop stop-color="#59CEFC"/>
<stop offset="1" stop-color="#E7E7E7"/>
</linearGradient>
<linearGradient id="paint2_linear_4208_4945" x1="20.6372" y1="1.15598" x2="22.2273" y2="3.20977" gradientUnits="userSpaceOnUse">
<stop stop-color="#59CEFC"/>
<stop offset="1" stop-color="#E7E7E7"/>
</linearGradient>
<linearGradient id="paint3_linear_4208_4945" x1="20.1516" y1="4.43328" x2="21.1872" y2="6.19811" gradientUnits="userSpaceOnUse">
<stop stop-color="#59CEFC"/>
<stop offset="1" stop-color="#E7E7E7"/>
</linearGradient>
<linearGradient id="paint4_linear_4208_4945" x1="21.5903" y1="2.87299" x2="23.5947" y2="4.99114" gradientUnits="userSpaceOnUse">
<stop stop-color="#59CEFC"/>
<stop offset="1" stop-color="#E7E7E7"/>
</linearGradient>
<linearGradient id="paint5_linear_4208_4945" x1="22.7016" y1="0.844033" x2="24.706" y2="2.96218" gradientUnits="userSpaceOnUse">
<stop stop-color="#59CEFC"/>
<stop offset="1" stop-color="#E7E7E7"/>
</linearGradient>
<linearGradient id="paint6_linear_4208_4945" x1="21.4383" y1="1.93847" x2="26.7141" y2="7.64866" gradientUnits="userSpaceOnUse">
<stop stop-color="#59CEFC"/>
<stop offset="1" stop-color="#E7E7E7"/>
</linearGradient>
</defs>
</svg>
