<svg width="33" height="33" viewBox="0 0 33 33" fill="none" xmlns="http://www.w3.org/2000/svg">
<path d="M15.8129 16.5H7.45074M7.21372 17.5961L5.83217 21.7231C5.07551 23.9833 4.69718 25.1134 4.96869 25.8093C5.20446 26.4137 5.71086 26.8719 6.33573 27.0464C7.05528 27.2471 8.14208 26.758 10.3157 25.78L24.2505 19.5093C26.3721 18.5545 27.4329 18.0773 27.7607 17.4141C28.0456 16.838 28.0456 16.1619 27.7607 15.5858C27.4329 14.9227 26.3721 14.4453 24.2505 13.4906L10.2916 7.20917C8.12459 6.234 7.04107 5.74641 6.32224 5.94644C5.69796 6.12014 5.19162 6.57712 4.95502 7.18037C4.68258 7.87501 5.05687 9.00269 5.80546 11.258L7.2164 15.509C7.34496 15.8964 7.40926 16.0901 7.43463 16.2881C7.45715 16.464 7.45691 16.6419 7.43395 16.8176C7.40806 17.0156 7.34328 17.2091 7.21372 17.5961Z" stroke="#7F7F7F" stroke-width="2" stroke-linecap="round" stroke-linejoin="round"/>
</svg>
