<svg width="14" height="14" viewBox="0 0 14 14" fill="none" xmlns="http://www.w3.org/2000/svg">
<path d="M10.7823 9.78099C10.4111 9.86971 10.0237 9.91667 9.62533 9.91667C6.88693 9.91667 4.66699 7.69674 4.66699 4.95834C4.66699 4.67631 4.69054 4.39979 4.73577 4.13062C4.71466 4.15092 4.69285 4.16962 4.66988 4.18706C4.50619 4.31132 4.30232 4.35745 3.8946 4.4497L3.52339 4.53369C2.08858 4.85833 1.37117 5.02065 1.20049 5.56952C1.0298 6.11841 1.51889 6.69031 2.49705 7.83411L2.75011 8.13004C3.02807 8.45507 3.16706 8.61759 3.22958 8.81866C3.29211 9.01974 3.27109 9.23656 3.22906 9.67027L3.19081 10.0651C3.04292 11.5912 2.96898 12.3542 3.41583 12.6935C3.86268 13.0327 4.53438 12.7234 5.87782 12.1049L6.22537 11.9448C6.6071 11.769 6.79797 11.6812 7.00033 11.6812C7.20269 11.6812 7.39355 11.769 7.77529 11.9448L8.12284 12.1049C9.46625 12.7234 10.138 13.0327 10.5849 12.6935C11.0317 12.3542 10.9577 11.5912 10.8098 10.0651L10.7823 9.78099Z" fill="url(#paint0_linear_4208_4941)"/>
<path opacity="0.5" d="M5.33967 3.15488L5.14851 3.49779C4.93855 3.87445 4.83356 4.06278 4.66987 4.18705C4.69285 4.1696 4.71466 4.15091 4.73577 4.1306C4.69054 4.39978 4.66699 4.6763 4.66699 4.95833C4.66699 7.69672 6.88689 9.91666 9.62535 9.91666C10.0237 9.91666 10.4111 9.8697 10.7823 9.78097L10.7716 9.67026C10.7295 9.23655 10.7085 9.01972 10.7711 8.81865C10.8336 8.61757 10.9726 8.45506 11.2505 8.13002L11.5036 7.8341C12.4818 6.6903 12.9708 6.11834 12.8001 5.5695C12.6295 5.02063 11.9121 4.85832 10.4772 4.53367L10.1061 4.44969C9.69832 4.35743 9.49445 4.31131 9.33077 4.18705C9.16708 4.06278 9.06208 3.87445 8.85214 3.4978L8.66098 3.15487C7.92207 1.82939 7.55265 1.16666 7.00035 1.16666C6.44799 1.16666 6.07857 1.8294 5.33967 3.15488Z" fill="#92AFFF"/>
<defs>
<linearGradient id="paint0_linear_4208_4941" x1="3.02943" y1="4.13358" x2="5.3883" y2="13.7297" gradientUnits="userSpaceOnUse">
<stop stop-color="#59CEFC"/>
<stop offset="1" stop-color="#E7E7E7"/>
</linearGradient>
</defs>
</svg>
