<svg width="32" height="32" viewBox="0 0 32 32" fill="none" xmlns="http://www.w3.org/2000/svg">
<path d="M16.0002 4.80001C15.3637 4.80001 14.7532 5.05287 14.3031 5.50296C13.8531 5.95304 13.6002 6.56349 13.6002 7.20001C13.6002 7.83653 13.8531 8.44698 14.3031 8.89707C14.7532 9.34716 15.3637 9.60001 16.0002 9.60001C16.6367 9.60001 17.2472 9.34716 17.6973 8.89707C18.1473 8.44698 18.4002 7.83653 18.4002 7.20001C18.4002 6.56349 18.1473 5.95304 17.6973 5.50296C17.2472 5.05287 16.6367 4.80001 16.0002 4.80001ZM12.0002 7.20001C12.0002 6.13915 12.4216 5.12173 13.1718 4.37159C13.9219 3.62144 14.9393 3.20001 16.0002 3.20001C17.0611 3.20001 18.0785 3.62144 18.8286 4.37159C19.5788 5.12173 20.0002 6.13915 20.0002 7.20001C20.0002 8.26088 19.5788 9.27829 18.8286 10.0284C18.0785 10.7786 17.0611 11.2 16.0002 11.2C14.9393 11.2 13.9219 10.7786 13.1718 10.0284C12.4216 9.27829 12.0002 8.26088 12.0002 7.20001ZM24.8002 6.40001C24.3758 6.40001 23.9689 6.56858 23.6688 6.86864C23.3688 7.1687 23.2002 7.57567 23.2002 8.00001C23.2002 8.42436 23.3688 8.83132 23.6688 9.13138C23.9689 9.43144 24.3758 9.60001 24.8002 9.60001C25.2245 9.60001 25.6315 9.43144 25.9316 9.13138C26.2316 8.83132 26.4002 8.42436 26.4002 8.00001C26.4002 7.57567 26.2316 7.1687 25.9316 6.86864C25.6315 6.56858 25.2245 6.40001 24.8002 6.40001ZM21.6002 8.00001C21.6002 7.15132 21.9373 6.33739 22.5375 5.73727C23.1376 5.13715 23.9515 4.80001 24.8002 4.80001C25.6489 4.80001 26.4628 5.13715 27.0629 5.73727C27.6631 6.33739 28.0002 7.15132 28.0002 8.00001C28.0002 8.8487 27.6631 9.66264 27.0629 10.2628C26.4628 10.8629 25.6489 11.2 24.8002 11.2C23.9515 11.2 23.1376 10.8629 22.5375 10.2628C21.9373 9.66264 21.6002 8.8487 21.6002 8.00001ZM5.6002 8.00001C5.6002 7.57567 5.76877 7.1687 6.06882 6.86864C6.36888 6.56858 6.77585 6.40001 7.2002 6.40001C7.62454 6.40001 8.03151 6.56858 8.33157 6.86864C8.63162 7.1687 8.8002 7.57567 8.80019 8.00001C8.8002 8.42436 8.63162 8.83132 8.33157 9.13138C8.03151 9.43144 7.62454 9.60001 7.2002 9.60001C6.77585 9.60001 6.36888 9.43144 6.06882 9.13138C5.76877 8.83132 5.6002 8.42436 5.6002 8.00001ZM7.2002 4.80001C6.3515 4.80001 5.53757 5.13715 4.93745 5.73727C4.33734 6.33739 4.0002 7.15132 4.0002 8.00001C4.0002 8.8487 4.33734 9.66264 4.93745 10.2628C5.53757 10.8629 6.3515 11.2 7.2002 11.2C8.04889 11.2 8.86282 10.8629 9.46294 10.2628C10.0631 9.66264 10.4002 8.8487 10.4002 8.00001C10.4002 7.15132 10.0631 6.33739 9.46294 5.73727C8.86282 5.13715 8.04889 4.80001 7.2002 4.80001ZM8.16019 23.9968L8.0002 24C7.1515 24 6.33757 23.6629 5.73745 23.0628C5.13734 22.4626 4.8002 21.6487 4.8002 20.8V14.8C4.8002 14.6939 4.84234 14.5922 4.91735 14.5172C4.99237 14.4422 5.09411 14.4 5.2002 14.4H8.02259C8.0866 13.8128 8.2946 13.2672 8.6066 12.8H5.2002C4.0962 12.8 3.2002 13.696 3.2002 14.8V20.8C3.20012 21.485 3.34666 22.1621 3.62996 22.7857C3.91326 23.4094 4.32676 23.9652 4.84268 24.4158C5.3586 24.8664 5.96499 25.2013 6.6211 25.3982C7.27721 25.595 7.96784 25.6491 8.64659 25.5568C8.43164 25.0548 8.26866 24.532 8.16019 23.9968ZM23.3538 25.5568C23.565 25.5856 23.7805 25.6 24.0002 25.6C25.2732 25.6 26.4941 25.0943 27.3943 24.1941C28.2945 23.2939 28.8002 22.073 28.8002 20.8V14.8C28.8002 13.696 27.9042 12.8 26.8002 12.8H23.3938C23.7074 13.2672 23.9138 13.8128 23.9778 14.4H26.8002C26.9063 14.4 27.008 14.4422 27.083 14.5172C27.1581 14.5922 27.2002 14.6939 27.2002 14.8V20.8C27.2003 21.2338 27.1122 21.663 26.9413 22.0617C26.7704 22.4604 26.5202 22.8202 26.2059 23.1192C25.8917 23.4182 25.5199 23.6501 25.1132 23.801C24.7065 23.9519 24.2734 24.0185 23.8402 23.9968C23.7317 24.532 23.5687 25.0548 23.3538 25.5568ZM11.6002 12.8C10.4962 12.8 9.60019 13.696 9.60019 14.8V22.4C9.60019 24.0974 10.2745 25.7253 11.4747 26.9255C12.6749 28.1257 14.3028 28.8 16.0002 28.8C17.6976 28.8 19.3254 28.1257 20.5257 26.9255C21.7259 25.7253 22.4002 24.0974 22.4002 22.4V14.8C22.4002 13.696 21.5042 12.8 20.4002 12.8H11.6002ZM11.2002 14.8C11.2002 14.6939 11.2423 14.5922 11.3174 14.5172C11.3924 14.4422 11.4941 14.4 11.6002 14.4H20.4002C20.5063 14.4 20.608 14.4422 20.683 14.5172C20.7581 14.5922 20.8002 14.6939 20.8002 14.8V22.4C20.8002 23.673 20.2945 24.8939 19.3943 25.7941C18.4941 26.6943 17.2732 27.2 16.0002 27.2C14.7272 27.2 13.5063 26.6943 12.6061 25.7941C11.7059 24.8939 11.2002 23.673 11.2002 22.4V14.8Z" fill="#68D1F9"/>
</svg>
