<svg width="163" height="170" viewBox="0 0 163 170" fill="none" xmlns="http://www.w3.org/2000/svg">
<path d="M74.5254 91.4648C74.5254 89.5949 76.043 88.0773 77.9129 88.0773H132.113C133.983 88.0773 135.5 89.5949 135.5 91.4648C135.5 93.3347 133.983 94.8523 132.113 94.8523H77.9129C76.043 94.8523 74.5254 93.3347 74.5254 91.4648Z" fill="#7EE3FF" fill-opacity="0.4"/>
<path d="M127.98 101.627C124.524 134.147 108.068 156.369 80.4871 161.45C53.7937 155.759 37.8725 133.673 34.5527 101.627H127.98Z" fill="#7EE3FF" fill-opacity="0.4"/>
<path d="M101.152 8.26816C100.068 6.77766 97.9673 6.30341 96.409 7.31966C94.8508 8.40366 94.4443 10.5039 95.4605 12.0621C103.387 23.9184 103.049 33.8098 97.493 40.3138C95.7993 42.3463 94.3088 43.6335 92.0053 45.0563C88.8888 46.8855 85.6368 48.8503 83.5366 52.441C80.0813 58.403 80.6233 65.6522 85.0948 72.9015C85.7046 73.9855 86.7886 74.5275 87.9403 74.5275L89.7018 74.0532C91.3278 73.037 91.802 70.9367 90.8535 69.3785C88.6178 65.7877 86.5853 60.571 89.3631 55.8285C90.6435 53.7283 92.886 52.3733 95.4538 50.8828C98.0282 49.3245 100.196 47.563 102.642 44.7175C111.856 33.9453 109.01 20.0566 101.152 8.26816Z" fill="url(#paint0_linear_5647_25746)"/>
<path d="M67.0717 1.42543C66.0555 -0.0650631 63.8875 -0.471563 62.397 0.612434C60.8387 1.69643 60.5 3.79667 61.584 5.35492C64.9715 10.2329 68.4267 17.8209 67.6137 24.3249C66.733 31.7096 61.1097 33.3356 51.4893 35.4358C48.576 36.1133 45.6628 36.7231 42.885 37.6716C34.6873 40.5171 29.8093 44.9885 28.0478 51.357C25.9476 58.6062 27.3026 67.346 31.3676 73.1047C32.0451 74.0532 33.0613 74.5274 34.1453 74.5274C34.8228 74.5274 35.5003 74.3242 36.1101 73.9177C37.6683 72.8337 38.0071 70.7335 36.9231 69.1752C34.0776 65.178 33.0613 58.4707 34.5518 53.1863C35.7036 49.0535 39.0911 46.1403 45.1208 44.04C47.492 43.227 50.1343 42.685 52.912 42.0753C61.9227 40.1106 72.7627 37.6716 74.3887 25.1379C75.6082 14.5011 69.1042 4.27092 67.0717 1.42543Z" fill="url(#paint1_linear_5647_25746)"/>
<path d="M135.296 94.9201C135.364 92.6844 135.5 90.4486 135.5 88.0774C135.5 84.3512 132.451 81.3024 128.725 81.3024H6.77498C3.04874 81.3024 0 84.3512 0 88.0774C0 125.95 14.092 151.288 37.0591 162.602H33.8749C31.9779 162.602 30.4874 164.093 30.4874 165.99C30.4874 167.887 31.9779 169.377 33.8749 169.377H101.625C103.522 169.377 105.012 167.887 105.012 165.99C105.012 164.093 103.522 162.602 101.625 162.602H98.4404C102.234 160.705 105.825 158.469 109.145 155.827C155.418 155.556 162.999 130.624 162.999 118.565C163.006 102.169 152.369 95.3266 135.296 94.9201ZM67.7498 162.602C28.4549 162.602 6.77498 132.996 6.77498 88.0774H128.725C128.725 97.9011 127.708 106.98 125.608 115.177H84.6872C82.7902 115.177 81.2997 116.668 81.2997 118.565C81.2997 120.462 82.7902 121.952 84.6872 121.952H123.643C122.017 126.898 119.917 131.437 117.478 135.502H91.4622C89.5652 135.502 88.0747 136.993 88.0747 138.89C88.0747 140.787 89.5652 142.277 91.4622 142.277H112.871C102.573 155.217 87.3295 162.602 67.7498 162.602ZM116.597 148.713C126.489 137.399 132.79 121.614 134.754 101.627C153.189 101.966 155.425 109.961 155.425 118.565C155.418 123.849 153.724 145.529 116.597 148.713Z" fill="#7EE3FF"/>
<path d="M128.725 94.8524H6.77539V101.627H128.725V94.8524Z" fill="#7EE3FF"/>
<defs>
<linearGradient id="paint0_linear_5647_25746" x1="101.898" y1="93.8298" x2="51.3237" y2="-14.5527" gradientUnits="userSpaceOnUse">
<stop stop-color="#000617"/>
<stop offset="0.896071" stop-color="#7EE3FF"/>
</linearGradient>
<linearGradient id="paint1_linear_5647_25746" x1="51" y1="62" x2="20.7293" y2="-55.3232" gradientUnits="userSpaceOnUse">
<stop stop-color="#000617"/>
<stop offset="0.896071" stop-color="#7EE3FF"/>
</linearGradient>
</defs>
</svg>
