<svg width="20" height="14" viewBox="0 0 20 14" fill="none" xmlns="http://www.w3.org/2000/svg">
<path d="M19.8977 2.13831L17.8671 0.107633C17.7236 -0.0358777 17.5011 -0.0358777 17.3576 0.107633L8.48148 8.99094L2.64777 3.15723C2.50426 3.01372 2.28182 3.01372 2.13831 3.15723L0.107633 5.18791C-0.0358777 5.33142 -0.0358777 5.55386 0.107633 5.69737L8.22316 13.8129C8.28774 13.8775 8.38102 13.9205 8.4743 13.9205C8.56758 13.9205 8.66087 13.8847 8.72545 13.8129L19.8977 2.64777C20.0341 2.50426 20.0341 2.28182 19.8977 2.13831ZM8.48148 13.0523L0.868239 5.43905L2.38945 3.91784L8.22316 9.75155C8.36667 9.89506 8.58911 9.89506 8.73262 9.75155L17.6159 0.868239L19.1371 2.38945L8.48148 13.0523Z" fill="#7EE3FF"/>
<path d="M17.4863 1.65753L12.4132 6.73063C12.3414 6.80238 12.3414 6.91719 12.4132 6.98177C12.4491 7.01765 12.4921 7.032 12.5424 7.032C12.5926 7.032 12.6356 7.01765 12.6715 6.98177L17.6155 2.03783L17.9958 2.41813C18.0675 2.48989 18.1823 2.48989 18.2469 2.41813C18.3187 2.34638 18.3187 2.23157 18.2469 2.16699L17.7374 1.65753C17.7016 1.62165 17.6585 1.6073 17.6083 1.6073C17.558 1.6073 17.5222 1.62165 17.4863 1.65753Z" fill="#7EE3FF"/>
</svg>
