<svg width="24" height="24" viewBox="0 0 24 24" fill="none" xmlns="http://www.w3.org/2000/svg">
<g clip-path="url(#clip0_8017_22827)">
<path d="M20.435 13.4775C21.9589 13.4775 23.1945 12.2427 23.1945 10.7188C23.1945 9.1949 21.9588 7.95923 20.435 7.95923C18.9115 7.95923 17.6758 9.1949 17.6758 10.7188C17.6758 12.2427 18.9115 13.4775 20.435 13.4775Z" fill="#EFEFEF"/>
<path d="M23.969 16.1367C23.846 15.3979 23.2353 14.3638 22.773 13.9018C22.7121 13.8406 22.44 13.8265 22.3665 13.872C21.8045 14.2177 21.1443 14.4211 20.4357 14.4211C19.7279 14.4211 19.0677 14.2177 18.5056 13.872C18.4318 13.8265 18.16 13.8406 18.0991 13.9018C17.9699 14.0311 17.8289 14.2031 17.6914 14.4026C18.0634 15.1029 18.3583 15.8468 18.4648 16.4874C18.5712 17.1296 18.5367 17.7376 18.3646 18.2918C18.9757 18.5129 19.7086 18.61 20.4357 18.61C22.332 18.61 24.2726 17.9525 23.969 16.1367Z" fill="#EFEFEF"/>
<path d="M11.9298 12.3135C14.3995 12.3135 16.4018 10.3112 16.4018 7.84158C16.4018 5.37267 14.3995 3.37036 11.9298 3.37036C9.46055 3.37036 7.45898 5.37267 7.45898 7.84158C7.45898 10.3112 9.4605 12.3135 11.9298 12.3135Z" fill="#EFEFEF"/>
<path d="M15.7156 12.9984C15.6186 12.9018 15.1779 12.8771 15.0581 12.9512C14.1465 13.5121 13.0766 13.8405 11.9289 13.8405C10.7821 13.8405 9.71176 13.5121 8.8006 12.9512C8.68084 12.877 8.24017 12.9018 8.14314 12.9984C7.39215 13.7486 6.40239 15.4257 6.20326 16.6213C5.71229 19.5662 8.85798 20.6295 11.9289 20.6295C15.0008 20.6295 18.1464 19.5662 17.6554 16.6213C17.4563 15.4257 16.4665 13.7486 15.7156 12.9984Z" fill="#EFEFEF"/>
<path d="M3.56426 13.4775C5.0878 13.4775 6.32342 12.2427 6.32342 10.7188C6.32342 9.1949 5.0878 7.95923 3.56426 7.95923C2.04031 7.95923 0.804688 9.1949 0.804688 10.7188C0.804687 12.2427 2.04031 13.4775 3.56426 13.4775Z" fill="#EFEFEF"/>
<path d="M5.39505 16.4874C5.50821 15.8146 5.82748 15.0224 6.22774 14.2899C6.11618 14.1375 6.00466 14.0048 5.90172 13.9018C5.84083 13.8406 5.56905 13.8265 5.49522 13.872C4.93315 14.2177 4.27291 14.4211 3.56482 14.4211C2.85663 14.4211 2.19598 14.2177 1.63437 13.872C1.56087 13.8265 1.28833 13.8406 1.22744 13.9018C0.763991 14.3638 0.15485 15.3979 0.0314755 16.1367C-0.271712 17.9525 1.66854 18.6099 3.56482 18.6099C4.24155 18.6099 4.92494 18.5266 5.50821 18.3362C5.32441 17.7706 5.28551 17.1485 5.39505 16.4874Z" fill="#EFEFEF"/>
</g>
<defs>
<clipPath id="clip0_8017_22827">
<rect width="24" height="24" fill="white"/>
</clipPath>
</defs>
</svg>
