<svg width="18" height="18" viewBox="0 0 18 18" fill="none" xmlns="http://www.w3.org/2000/svg">
<g clip-path="url(#clip0_2268_16374)">
<path d="M12.8524 7.12427C12.9609 7.22177 13.064 7.32394 13.1666 7.4275C13.2069 7.41522 13.2472 7.40293 13.2887 7.39028C13.3425 7.37411 13.3963 7.35795 13.4501 7.3418C13.4765 7.33371 13.503 7.32562 13.5302 7.31729C14.4074 7.05527 15.3811 7.2142 16.1813 7.63184C16.4037 7.75208 16.5975 7.89341 16.7877 8.06031C16.8139 8.08147 16.8401 8.10264 16.8671 8.12444C17.5043 8.65393 17.8999 9.46334 18.0182 10.2752C18.0322 10.4688 18.0331 10.6613 18.0322 10.8554C18.0323 10.9094 18.0324 10.9635 18.0325 11.0175C18.0327 11.1297 18.0325 11.2419 18.032 11.3541C18.0314 11.4976 18.0317 11.641 18.0323 11.7846C18.0327 11.8957 18.0326 12.0068 18.0323 12.118C18.0322 12.1709 18.0323 12.2239 18.0326 12.2768C18.0329 12.3506 18.0324 12.4243 18.0319 12.498C18.0317 12.5608 18.0317 12.5608 18.0316 12.6248C18.0162 12.7524 17.9957 12.8137 17.9127 12.9119C17.726 13.0184 17.5698 13.0322 17.3579 13.0293C17.3281 13.0293 17.2982 13.0293 17.2674 13.0294C17.1695 13.0293 17.0715 13.0285 16.9735 13.0276C16.9053 13.0274 16.8371 13.0273 16.7689 13.0272C16.5899 13.0268 16.4109 13.0258 16.2319 13.0246C16.049 13.0235 15.8661 13.023 15.6833 13.0225C15.3249 13.0214 14.9665 13.0196 14.608 13.0173C14.6092 13.0732 14.6092 13.0732 14.6103 13.1302C14.6128 13.2689 14.6144 13.4077 14.6158 13.5465C14.6165 13.6064 14.6174 13.6664 14.6187 13.7263C14.6204 13.8127 14.6212 13.8991 14.6218 13.9855C14.6225 14.0121 14.6232 14.0387 14.624 14.0661C14.6241 14.2474 14.5894 14.3516 14.4674 14.4939C14.3578 14.5631 14.2728 14.5731 14.1443 14.5733C14.0886 14.5736 14.0886 14.5736 14.0317 14.5739C13.991 14.5738 13.9502 14.5737 13.9082 14.5736C13.8649 14.5738 13.8216 14.5739 13.7769 14.5741C13.6566 14.5745 13.5363 14.5745 13.416 14.5744C13.2862 14.5744 13.1565 14.5748 13.0267 14.5751C12.7725 14.5757 12.5183 14.5759 12.2641 14.576C12.0574 14.576 11.8508 14.5761 11.6442 14.5764C11.0586 14.577 10.4729 14.5773 9.88732 14.5773C9.83995 14.5772 9.83995 14.5772 9.79163 14.5772C9.7442 14.5772 9.7442 14.5772 9.69582 14.5772C9.18332 14.5772 8.67082 14.5779 8.15832 14.5789C7.63225 14.5799 7.10618 14.5804 6.58011 14.5803C6.2847 14.5803 5.98929 14.5805 5.69388 14.5812C5.44237 14.5819 5.19087 14.582 4.93937 14.5815C4.81103 14.5813 4.68271 14.5813 4.55437 14.5819C4.41528 14.5826 4.2762 14.5821 4.1371 14.5816C4.0965 14.582 4.0559 14.5823 4.01407 14.5827C3.7965 14.5808 3.66354 14.5709 3.49867 14.4236C3.39982 14.2979 3.41944 14.1452 3.4215 13.9924C3.4216 13.9645 3.42169 13.9366 3.4218 13.9079C3.42219 13.819 3.42307 13.7302 3.42397 13.6414C3.42432 13.581 3.42464 13.5207 3.42493 13.4604C3.4257 13.3127 3.42692 13.165 3.42836 13.0173C3.3717 13.0177 3.37171 13.0177 3.3139 13.0181C2.95752 13.0202 2.60113 13.0218 2.24474 13.0228C2.06153 13.0234 1.87832 13.0241 1.69511 13.0253C1.51822 13.0264 1.34133 13.0271 1.16444 13.0273C1.09703 13.0275 1.02963 13.0279 0.962227 13.0285C0.867637 13.0293 0.773068 13.0294 0.678476 13.0293C0.650761 13.0297 0.623045 13.0301 0.594489 13.0305C0.412103 13.0294 0.28335 13.003 0.123675 12.9119C0.0122546 12.7798 0.00477663 12.6692 0.00400118 12.4997C0.00375989 12.4766 0.00351914 12.4536 0.00327054 12.4298C0.00262879 12.3537 0.00276283 12.2777 0.00296263 12.2016C0.00280201 12.1481 0.00261488 12.0946 0.00240365 12.0411C0.0020896 11.9288 0.00217521 11.8165 0.00252489 11.7042C0.00292495 11.5621 0.00222487 11.4199 0.00119237 11.2777C0.00053857 11.167 0.000557818 11.0563 0.000756778 10.9456C0.000762086 10.8933 0.000556705 10.841 0.000114121 10.7887C-0.00345085 10.2976 0.0762675 9.82129 0.273089 9.36768C0.288809 9.33075 0.288809 9.33075 0.304846 9.29308C0.703143 8.39019 1.46488 7.77075 2.3598 7.40113C3.18007 7.09908 4.08642 7.15595 4.90492 7.4275C4.93103 7.3916 4.93103 7.3916 4.95766 7.35499C5.79615 6.36976 7.17441 5.78396 8.43909 5.64565C10.1038 5.5121 11.6025 6.02877 12.8524 7.12427ZM5.48363 8.08589C5.01797 8.6317 4.66979 9.25894 4.46987 9.94776C4.46148 9.97652 4.45309 10.0053 4.44444 10.0349C4.12727 11.1953 4.30727 12.5841 4.30727 13.6853C7.41649 13.6853 10.5257 13.6853 13.7291 13.6853C13.8266 10.3589 13.5114 8.90076 12.2674 7.79018C11.0234 6.6796 10.152 6.49154 8.9199 6.50101C7.61096 6.53322 6.35687 7.10571 5.48363 8.08589ZM1.54091 8.99854C0.917267 9.72148 0.848462 10.5937 0.857562 11.5078C0.859012 11.7159 0.860462 11.924 0.861956 12.1384C1.70887 12.1384 2.55578 12.1384 3.42836 12.1384C3.43199 11.9209 3.43561 11.7034 3.43935 11.4793C3.46211 10.4838 3.46211 10.4838 3.56899 10.0291C3.57573 9.99994 3.58248 9.97081 3.58943 9.94081C3.72851 9.36231 3.94442 8.79444 4.27225 8.29514C4.31325 8.23745 4.31325 8.23745 4.30727 8.16578C3.25465 7.92192 2.28687 8.2234 1.54091 8.99854ZM13.7643 8.16578C13.7527 8.18898 13.7411 8.21218 13.7291 8.23609C13.7731 8.31876 13.819 8.39787 13.8676 8.47779C14.1213 8.91413 14.3034 9.37525 14.4279 9.86426C14.4346 9.89065 14.4413 9.91704 14.4482 9.94422C14.5675 10.4489 14.5859 10.9525 14.5949 11.4683C14.5992 11.6894 14.6036 11.9106 14.608 12.1384C15.455 12.1384 16.3019 12.1384 17.1745 12.1384C17.1759 11.9303 17.1774 11.7222 17.1789 11.5078C17.1795 11.4435 17.1801 11.3792 17.1808 11.313C17.1864 10.344 17.0051 9.54502 16.3223 8.82056C15.8133 8.32782 15.1579 8.08937 14.4564 8.08887C14.409 8.08823 14.409 8.08823 14.3607 8.08757C14.1587 8.08713 13.9557 8.09488 13.7643 8.16578Z" fill="#EFEFEF"/>
<path d="M8.87979 0.275621C9.64076 0.252065 10.3356 0.528658 10.8923 1.04604C11.4261 1.60205 11.6606 2.28148 11.6526 3.04149C11.6288 3.79525 11.2908 4.44645 10.7506 4.96362C10.175 5.44958 9.46311 5.63647 8.71815 5.58985C8.18214 5.52621 7.72928 5.33191 7.3119 4.99219C7.28448 4.97093 7.25707 4.94968 7.22882 4.92778C6.76364 4.54616 6.43464 3.93454 6.36268 3.33985C6.30722 2.54737 6.45159 1.82028 6.96913 1.19751C7.40736 0.697418 8.04619 0.349156 8.71362 0.285783C8.76901 0.28243 8.8244 0.279036 8.87979 0.275621ZM7.62831 1.79297C7.4534 2.00444 7.35685 2.23526 7.27675 2.4961C7.26995 2.5173 7.26315 2.53851 7.25615 2.56037C7.16715 3.02717 7.25476 3.49363 7.49867 3.89795C7.79291 4.32747 8.19312 4.57586 8.69975 4.69652C9.17386 4.77358 9.62296 4.65987 10.0189 4.39453C10.412 4.09884 10.6675 3.72152 10.7572 3.23438C10.8158 2.70223 10.7075 2.21892 10.3705 1.79297C10.0341 1.41742 9.59053 1.19645 9.09031 1.15274C8.52691 1.12949 8.00676 1.38681 7.62831 1.79297Z" fill="#EFEFEF"/>
<path d="M4.77262 4.08075C5.15298 4.41048 5.4668 4.82891 5.52037 5.34377C5.55347 5.9418 5.45874 6.4687 5.05236 6.93679C4.66125 7.34422 4.22213 7.58681 3.65247 7.60373C3.08827 7.61104 2.60198 7.43962 2.18932 7.04349C1.77734 6.61363 1.60433 6.15863 1.60746 5.56778C1.62084 5.02239 1.85974 4.55844 2.25084 4.18361C2.94733 3.54795 4.01961 3.50873 4.77262 4.08075ZM2.65692 5.05112C2.48744 5.28486 2.47224 5.55807 2.49694 5.83596C2.55568 6.14249 2.71663 6.37503 2.97155 6.55226C3.23329 6.72202 3.49228 6.74456 3.79772 6.71486C3.91377 6.68258 4.01096 6.63585 4.11412 6.57424C4.1361 6.56191 4.15808 6.54958 4.18073 6.53688C4.39739 6.40094 4.52437 6.19689 4.61949 5.9634C4.67377 5.64858 4.66085 5.3798 4.50084 5.09767C4.3055 4.82965 4.09153 4.64061 3.76256 4.57033C3.27591 4.51844 2.97336 4.68522 2.65692 5.05112Z" fill="#FAFAFA"/>
<path d="M15.6359 4.08075C16.0163 4.41051 16.33 4.82889 16.3837 5.34377C16.4176 5.95239 16.3268 6.45959 15.9156 6.93459C15.5264 7.34458 15.0856 7.58681 14.5157 7.60373C13.9516 7.61104 13.4653 7.43962 13.0526 7.04349C12.6502 6.62361 12.4675 6.1719 12.4707 5.59282C12.4853 5.03582 12.714 4.56708 13.1141 4.18361C13.8106 3.54795 14.8829 3.50873 15.6359 4.08075ZM13.525 5.04055C13.3518 5.31004 13.3161 5.6085 13.3767 5.92096C13.4657 6.22866 13.6455 6.4295 13.9106 6.60143C14.171 6.73769 14.4678 6.7686 14.7523 6.68946C14.8315 6.65592 14.9036 6.61829 14.9774 6.57424C14.9994 6.56191 15.0214 6.54958 15.044 6.53688C15.2559 6.40391 15.3748 6.20408 15.4828 5.98317C15.5467 5.65693 15.523 5.34806 15.3564 5.05826C15.2035 4.83359 15.0032 4.69413 14.7533 4.5923C14.2209 4.50051 13.8914 4.66426 13.525 5.04055Z" fill="#FAFAFA"/>
</g>
<defs>
<clipPath id="clip0_2268_16374">
<rect width="18" height="18" fill="white"/>
</clipPath>
</defs>
</svg>
