<svg width="25" height="25" viewBox="0 0 25 25" fill="none" xmlns="http://www.w3.org/2000/svg">
<g clip-path="url(#clip0_6073_31358)">
<path d="M16.2458 3.73743C16.1836 3.54599 16.0478 3.38712 15.8686 3.29575C15.6891 3.20427 15.481 3.18798 15.2894 3.25021L12.1146 4.28193C11.716 4.41145 11.4977 4.83957 11.6273 5.23815L11.786 5.72669L3.71009 11.6588L0.524391 12.6939C0.332943 12.7561 0.174078 12.8918 0.0827054 13.0711C-0.00866728 13.2504 -0.0250597 13.4588 0.0371709 13.6502L1.97279 19.6063C2.07702 19.927 2.37451 20.1309 2.69437 20.1309C2.77218 20.1309 2.85121 20.1189 2.92912 20.0936L6.11432 19.0585L7.75083 19.0671C8.07949 20.6189 9.45969 21.787 11.1078 21.787C12.7434 21.787 14.1145 20.6364 14.4567 19.1024L16.1351 19.1112L16.2937 19.5999C16.3559 19.7913 16.4915 19.9502 16.671 20.0415C16.7786 20.0964 16.8968 20.1242 17.0155 20.1242C17.0944 20.1242 17.1737 20.1119 17.2499 20.0871L20.4249 19.0555C20.8235 18.9259 21.0418 18.4978 20.9122 18.0992L16.2458 3.73743ZM3.18169 18.4155L1.71527 13.9028L3.57349 13.299L5.0397 17.8117L3.18169 18.4155ZM11.1077 20.2692C10.3071 20.2692 9.62088 19.7747 9.33563 19.0755L12.873 19.0941C12.5833 19.7837 11.9014 20.2692 11.1077 20.2692ZM6.54821 17.5429L5.75004 15.0864L4.95187 12.6298L12.2798 7.24724L14.5271 14.1633L15.6408 17.5909L6.54821 17.5429ZM17.5026 18.4091L17.4094 18.1224C17.4093 18.1219 17.4092 18.1213 17.409 18.1207L15.404 11.9499L13.3053 5.49082L15.0368 4.92811L19.234 17.8463L17.5026 18.4091Z" fill="#EEEEEE"/>
<path d="M18.8011 7.4265C18.9116 7.48276 19.0292 7.50937 19.1451 7.50937C19.4214 7.50937 19.6878 7.35799 19.8219 7.0949L21.184 4.42253C21.3744 4.04915 21.226 3.59208 20.8526 3.40174C20.4792 3.21151 20.0221 3.35975 19.8318 3.73324L18.4697 6.40561C18.2793 6.77909 18.4277 7.23616 18.8011 7.4265Z" fill="#EEEEEE"/>
<path d="M24.5049 14.6431L21.8321 13.2816C21.4586 13.0915 21.0016 13.24 20.8114 13.6134C20.6211 13.9869 20.7697 14.4439 21.1431 14.6341L23.8159 15.9956C23.9263 16.0518 24.0438 16.0784 24.1597 16.0784C24.4359 16.0784 24.7025 15.9269 24.8365 15.6638C25.0269 15.2904 24.8783 14.8335 24.5049 14.6431Z" fill="#EEEEEE"/>
<path d="M20.6663 10.2406C20.7705 10.5613 21.068 10.7652 21.3878 10.7652C21.4656 10.7652 21.5447 10.7532 21.6226 10.7279L24.4749 9.80098C24.8733 9.67146 25.0916 9.24333 24.962 8.84465C24.8325 8.44597 24.4043 8.22822 24.0057 8.35743L21.1534 9.28431C20.7549 9.41394 20.5367 9.84206 20.6663 10.2406Z" fill="#EEEEEE"/>
</g>
<defs>
<clipPath id="clip0_6073_31358">
<rect width="25" height="25" fill="white"/>
</clipPath>
</defs>
</svg>
