<svg width="28" height="28" viewBox="0 0 28 28" fill="none" xmlns="http://www.w3.org/2000/svg">
<g clip-path="url(#clip0_3035_7054)">
<path d="M26.25 10.5H25.6667V9.33333C25.6667 6.11683 23.0498 3.5 19.8333 3.5H15.1667V1.16667C15.1667 0.522667 14.6452 0 14 0C13.3548 0 12.8333 0.522667 12.8333 1.16667V3.5H8.16667C4.95017 3.5 2.33333 6.11683 2.33333 9.33333V10.5H1.75C0.785167 10.5 0 11.2852 0 12.25V15.75C0 16.7148 0.785167 17.5 1.75 17.5H2.33333V18.6667C2.33333 21.8832 4.95017 24.5 8.16667 24.5H17.1465L21.77 27.5823C22.19 27.8623 22.6742 28.0035 23.1595 28.0035C23.5655 28.0035 23.9715 27.9055 24.3437 27.706C25.1592 27.2685 25.6667 26.4227 25.6667 25.4963V17.4988H26.25C27.2148 17.4988 28 16.7137 28 15.7488V12.2488C28 11.284 27.2148 10.4988 26.25 10.4988V10.5ZM23.3333 25.4975C23.3333 25.5232 23.3333 25.6013 23.2423 25.6492C23.149 25.6993 23.0837 25.6538 23.065 25.641L18.1475 22.3627C17.9562 22.2355 17.731 22.1667 17.5 22.1667H8.16667C6.237 22.1667 4.66667 20.5963 4.66667 18.6667V9.33333C4.66667 7.40367 6.237 5.83333 8.16667 5.83333H19.8333C21.763 5.83333 23.3333 7.40367 23.3333 9.33333V25.4975ZM8.16667 11.0833C8.16667 10.1173 8.95067 9.33333 9.91667 9.33333C10.8827 9.33333 11.6667 10.1173 11.6667 11.0833C11.6667 12.0493 10.8827 12.8333 9.91667 12.8333C8.95067 12.8333 8.16667 12.0493 8.16667 11.0833ZM19.8333 11.0833C19.8333 12.0493 19.0493 12.8333 18.0833 12.8333C17.1173 12.8333 16.3333 12.0493 16.3333 11.0833C16.3333 10.1173 17.1173 9.33333 18.0833 9.33333C19.0493 9.33333 19.8333 10.1173 19.8333 11.0833ZM19.6548 16.5608C19.9978 17.1068 19.8322 17.8267 19.2873 18.1685C18.0775 18.928 16.177 19.8333 14.0012 19.8333C11.8253 19.8333 9.92483 18.928 8.715 18.1685C8.169 17.8267 8.0045 17.1057 8.3475 16.5608C8.6905 16.016 9.41033 15.8503 9.95517 16.1922C10.906 16.7895 12.3807 17.5 14.0023 17.5C15.624 17.5 17.0975 16.7895 18.0495 16.1922C18.5932 15.8492 19.3153 16.0148 19.6572 16.5608H19.6548Z" fill="#68D1F9"/>
</g>
<defs>
<clipPath id="clip0_3035_7054">
<rect width="28" height="28" fill="white"/>
</clipPath>
</defs>
</svg>
